%TF.GenerationSoftware,KiCad,Pcbnew,10.0.4*%
%TF.CreationDate,2026-06-29T19:01:09+05:30*%
%TF.ProjectId,rf_pa_300w,72665f70-615f-4333-9030-772e6b696361,1.0*%
%TF.SameCoordinates,Original*%
%TF.FileFunction,Copper,L2,Bot*%
%TF.FilePolarity,Positive*%
%FSLAX46Y46*%
G04 Gerber Fmt 4.6, Leading zero omitted, Abs format (unit mm)*
G04 Created by KiCad (PCBNEW 10.0.4) date 2026-06-29 19:01:09*
%MOMM*%
%LPD*%
G01*
G04 APERTURE LIST*
%TA.AperFunction,ComponentPad*%
%ADD10R,1.500000X1.500000*%
%TD*%
%TA.AperFunction,ComponentPad*%
%ADD11C,1.500000*%
%TD*%
%TA.AperFunction,ComponentPad*%
%ADD12R,2.000000X2.000000*%
%TD*%
%TA.AperFunction,ComponentPad*%
%ADD13C,2.000000*%
%TD*%
%TA.AperFunction,ComponentPad*%
%ADD14R,2.500000X2.500000*%
%TD*%
%TA.AperFunction,ComponentPad*%
%ADD15C,2.500000*%
%TD*%
%TA.AperFunction,ComponentPad*%
%ADD16R,1.700000X1.700000*%
%TD*%
%TA.AperFunction,ComponentPad*%
%ADD17C,1.700000*%
%TD*%
%TA.AperFunction,ViaPad*%
%ADD18C,0.800000*%
%TD*%
%TA.AperFunction,Conductor*%
%ADD19C,0.500000*%
%TD*%
%TA.AperFunction,Conductor*%
%ADD20C,1.000000*%
%TD*%
%TA.AperFunction,Conductor*%
%ADD21C,3.060000*%
%TD*%
%TA.AperFunction,Conductor*%
%ADD22C,1.500000*%
%TD*%
%TA.AperFunction,Conductor*%
%ADD23C,0.300000*%
%TD*%
G04 APERTURE END LIST*
D10*
%TO.P,R3,1*%
%TO.N,/TANK_OUT*%
X62460000Y-30000000D03*
D11*
%TO.P,R3,2*%
%TO.N,GND*%
X67540000Y-30000000D03*
%TD*%
D10*
%TO.P,L1,1*%
%TO.N,/TANK_OUT*%
X62460000Y-15000000D03*
D11*
%TO.P,L1,2*%
%TO.N,/MID*%
X67540000Y-15000000D03*
%TD*%
D12*
%TO.P,D1,1,A_1*%
%TO.N,VCC*%
X24920000Y-8000000D03*
D13*
%TO.P,D1,2,K_2*%
%TO.N,VB*%
X35080000Y-8000000D03*
%TD*%
D14*
%TO.P,J1,1,Pin_1_1*%
%TO.N,+72V5*%
X2460000Y-5000000D03*
D15*
%TO.P,J1,2,Pin_2_2*%
%TO.N,GND*%
X7540000Y-5000000D03*
%TD*%
D14*
%TO.P,J3,1,Pin_1_1*%
%TO.N,VCC*%
X2460000Y-45000000D03*
D15*
%TO.P,J3,2,Pin_2_2*%
%TO.N,GND*%
X7540000Y-45000000D03*
%TD*%
D12*
%TO.P,J2,1,Pin_1_1*%
%TO.N,/RF_OUT*%
X72000000Y-42000000D03*
D13*
%TO.P,J2,2,Pin_2_2*%
%TO.N,GND*%
X69460000Y-42000000D03*
%TD*%
D12*
%TO.P,C1,1*%
%TO.N,+72V5*%
X15500000Y-5000000D03*
D13*
%TO.P,C1,2*%
%TO.N,GND*%
X20500000Y-5000000D03*
%TD*%
D10*
%TO.P,Q1,1,G_1*%
%TO.N,/GATE1*%
X55460000Y-15000000D03*
D11*
%TO.P,Q1,2,D_2*%
%TO.N,+72V5*%
X58000000Y-15000000D03*
%TO.P,Q1,3,S_3*%
%TO.N,/MID*%
X60540000Y-15000000D03*
%TD*%
D12*
%TO.P,D2,1,A_1*%
%TO.N,/HO_NET*%
X33920000Y-15000000D03*
D13*
%TO.P,D2,2,K_2*%
%TO.N,/GATE1*%
X44080000Y-15000000D03*
%TD*%
D12*
%TO.P,D3,1,A_1*%
%TO.N,/LO_NET*%
X33920000Y-25000000D03*
D13*
%TO.P,D3,2,K_2*%
%TO.N,/GATE2*%
X44080000Y-25000000D03*
%TD*%
D10*
%TO.P,L2,1*%
%TO.N,/RF_OUT*%
X69460000Y-15000000D03*
D11*
%TO.P,L2,2*%
%TO.N,/TANK_OUT*%
X74540000Y-15000000D03*
%TD*%
D10*
%TO.P,Q2,1,G_1*%
%TO.N,/GATE2*%
X55460000Y-25000000D03*
D11*
%TO.P,Q2,2,D_2*%
%TO.N,/MID*%
X58000000Y-25000000D03*
%TO.P,Q2,3,S_3*%
%TO.N,GND*%
X60540000Y-25000000D03*
%TD*%
D16*
%TO.P,J4,1,Pin_1_1*%
%TO.N,/HIN*%
X5000000Y-25000000D03*
D17*
%TO.P,J4,2,Pin_2_2*%
%TO.N,/LIN*%
X5000000Y-27540000D03*
%TD*%
D18*
%TO.N,GND*%
X60540000Y-28000000D03*
X19600000Y-14500000D03*
X35000000Y-21910000D03*
X73600000Y-19500000D03*
X66600000Y-24500000D03*
X79000000Y-19500000D03*
X21500000Y-45000000D03*
%TO.N,/MID*%
X31600000Y-13000000D03*
X44500000Y-20640000D03*
X58000000Y-22000000D03*
%TO.N,VCC*%
X24920000Y-20640000D03*
X16400000Y-42500000D03*
%TO.N,/RF_OUT*%
X70400000Y-24500000D03*
%TO.N,/HO_NET*%
X50000000Y-13400000D03*
X33920000Y-13000000D03*
X44500000Y-19360000D03*
%TO.N,/LIN*%
X28000000Y-27540000D03*
X41910000Y-12000000D03*
%TD*%
%TO.N,GND*%
D19*
X73600000Y-19500000D02*
X79000000Y-19500000D01*
%TO.N,/MID*%
X31600000Y-20640000D02*
X31600000Y-13000000D01*
X58000000Y-20640000D02*
X58000000Y-22000000D01*
X44500000Y-20640000D02*
X58000000Y-20640000D01*
X44500000Y-20640000D02*
X31600000Y-20640000D01*
%TO.N,VCC*%
D20*
X16400000Y-42500000D02*
X24920000Y-42500000D01*
X24920000Y-42500000D02*
X24920000Y-8000000D01*
%TO.N,/RF_OUT*%
D21*
X74000000Y-24500000D02*
X74000000Y-42000000D01*
X70400000Y-24500000D02*
X74000000Y-24500000D01*
D22*
X74000000Y-42000000D02*
X72000000Y-42000000D01*
%TO.N,/HO_NET*%
D19*
X50000000Y-19360000D02*
X50000000Y-13400000D01*
X44500000Y-19360000D02*
X33920000Y-19360000D01*
X44500000Y-19360000D02*
X50000000Y-19360000D01*
X33920000Y-19360000D02*
X33920000Y-13000000D01*
%TO.N,/LIN*%
D23*
X28000000Y-27540000D02*
X28000000Y-12000000D01*
X28000000Y-12000000D02*
X41910000Y-12000000D01*
%TD*%
%TA.AperFunction,Conductor*%
%TO.N,GND*%
G36*
X79442539Y-520185D02*
G01*
X79488294Y-572989D01*
X79499500Y-624500D01*
X79499500Y-49375500D01*
X79479815Y-49442539D01*
X79427011Y-49488294D01*
X79375500Y-49499500D01*
X624500Y-49499500D01*
X557461Y-49479815D01*
X511706Y-49427011D01*
X500500Y-49375500D01*
X500500Y-46467236D01*
X520185Y-46400197D01*
X572989Y-46354442D01*
X642147Y-46344498D01*
X705703Y-46373523D01*
X740682Y-46423903D01*
X766202Y-46492328D01*
X766206Y-46492335D01*
X852452Y-46607544D01*
X852455Y-46607547D01*
X967664Y-46693793D01*
X967671Y-46693797D01*
X1102517Y-46744091D01*
X1102516Y-46744091D01*
X1109444Y-46744835D01*
X1162127Y-46750500D01*
X3757872Y-46750499D01*
X3817483Y-46744091D01*
X3952331Y-46693796D01*
X4067546Y-46607546D01*
X4153796Y-46492331D01*
X4204091Y-46357483D01*
X4210500Y-46297873D01*
X4210499Y-44885305D01*
X5790000Y-44885305D01*
X5790000Y-45114694D01*
X5790001Y-45114710D01*
X5819942Y-45342137D01*
X5879318Y-45563730D01*
X5967102Y-45775659D01*
X5967106Y-45775669D01*
X6081799Y-45974324D01*
X6081805Y-45974331D01*
X6138381Y-46048064D01*
X6975387Y-45211058D01*
X6980889Y-45231591D01*
X7059881Y-45368408D01*
X7171592Y-45480119D01*
X7308409Y-45559111D01*
X7328940Y-45564612D01*
X6491934Y-46401617D01*
X6491934Y-46401618D01*
X6565666Y-46458194D01*
X6764330Y-46572893D01*
X6764340Y-46572897D01*
X6976269Y-46660681D01*
X7197862Y-46720057D01*
X7425289Y-46749998D01*
X7425306Y-46750000D01*
X7654694Y-46750000D01*
X7654710Y-46749998D01*
X7882137Y-46720057D01*
X8103730Y-46660681D01*
X8315659Y-46572897D01*
X8315668Y-46572893D01*
X8514327Y-46458197D01*
X8514334Y-46458192D01*
X8588064Y-46401617D01*
X7751059Y-45564612D01*
X7771591Y-45559111D01*
X7908408Y-45480119D01*
X8020119Y-45368408D01*
X8099111Y-45231591D01*
X8104612Y-45211059D01*
X8941617Y-46048064D01*
X8998192Y-45974334D01*
X8998197Y-45974327D01*
X9112893Y-45775668D01*
X9112897Y-45775659D01*
X9200681Y-45563730D01*
X9260057Y-45342137D01*
X9289998Y-45114710D01*
X9290000Y-45114694D01*
X9290000Y-44885305D01*
X9289998Y-44885289D01*
X9260057Y-44657862D01*
X9200681Y-44436269D01*
X9112897Y-44224340D01*
X9112893Y-44224330D01*
X8998194Y-44025666D01*
X8941618Y-43951934D01*
X8941617Y-43951934D01*
X8104612Y-44788939D01*
X8099111Y-44768409D01*
X8020119Y-44631592D01*
X7908408Y-44519881D01*
X7771591Y-44440889D01*
X7751057Y-44435387D01*
X8588064Y-43598381D01*
X8588064Y-43598380D01*
X8514331Y-43541805D01*
X8514324Y-43541799D01*
X8315669Y-43427106D01*
X8315659Y-43427102D01*
X8103730Y-43339318D01*
X7882137Y-43279942D01*
X7654710Y-43250001D01*
X7654694Y-43250000D01*
X7425306Y-43250000D01*
X7425289Y-43250001D01*
X7197862Y-43279942D01*
X6976269Y-43339318D01*
X6764340Y-43427102D01*
X6764330Y-43427106D01*
X6565673Y-43541801D01*
X6565659Y-43541810D01*
X6491934Y-43598380D01*
X7328940Y-44435387D01*
X7308409Y-44440889D01*
X7171592Y-44519881D01*
X7059881Y-44631592D01*
X6980889Y-44768409D01*
X6975387Y-44788940D01*
X6138380Y-43951934D01*
X6081810Y-44025659D01*
X6081801Y-44025673D01*
X5967106Y-44224330D01*
X5967102Y-44224340D01*
X5879318Y-44436269D01*
X5819942Y-44657862D01*
X5790001Y-44885289D01*
X5790000Y-44885305D01*
X4210499Y-44885305D01*
X4210499Y-43702128D01*
X4204091Y-43642517D01*
X4187629Y-43598381D01*
X4153797Y-43507671D01*
X4153793Y-43507664D01*
X4067547Y-43392455D01*
X4067544Y-43392452D01*
X3952335Y-43306206D01*
X3952328Y-43306202D01*
X3817482Y-43255908D01*
X3817483Y-43255908D01*
X3757883Y-43249501D01*
X3757881Y-43249500D01*
X3757873Y-43249500D01*
X3757864Y-43249500D01*
X1162129Y-43249500D01*
X1162123Y-43249501D01*
X1102516Y-43255908D01*
X967671Y-43306202D01*
X967664Y-43306206D01*
X852455Y-43392452D01*
X852452Y-43392455D01*
X766206Y-43507664D01*
X766202Y-43507671D01*
X740682Y-43576096D01*
X698811Y-43632030D01*
X633347Y-43656447D01*
X565074Y-43641595D01*
X515668Y-43592190D01*
X500500Y-43532763D01*
X500500Y-42598543D01*
X15399499Y-42598543D01*
X15437947Y-42791829D01*
X15437950Y-42791839D01*
X15513364Y-42973907D01*
X15513371Y-42973920D01*
X15622860Y-43137781D01*
X15622863Y-43137785D01*
X15762214Y-43277136D01*
X15762218Y-43277139D01*
X15926079Y-43386628D01*
X15926092Y-43386635D01*
X16108160Y-43462049D01*
X16108165Y-43462051D01*
X16108169Y-43462051D01*
X16108170Y-43462052D01*
X16301456Y-43500500D01*
X16301459Y-43500500D01*
X25018543Y-43500500D01*
X25148582Y-43474632D01*
X25211835Y-43462051D01*
X25393914Y-43386632D01*
X25557782Y-43277139D01*
X25697139Y-43137782D01*
X25806632Y-42973914D01*
X25882051Y-42791835D01*
X25894632Y-42728582D01*
X25920500Y-42598543D01*
X25920500Y-41881947D01*
X67960000Y-41881947D01*
X67960000Y-42118052D01*
X67996934Y-42351247D01*
X68069897Y-42575802D01*
X68177087Y-42786174D01*
X68237338Y-42869104D01*
X68237340Y-42869105D01*
X69017861Y-42088584D01*
X69040667Y-42173694D01*
X69099910Y-42276306D01*
X69183694Y-42360090D01*
X69286306Y-42419333D01*
X69371414Y-42442137D01*
X68590893Y-43222658D01*
X68673828Y-43282914D01*
X68884197Y-43390102D01*
X69108752Y-43463065D01*
X69108751Y-43463065D01*
X69341948Y-43500000D01*
X69578052Y-43500000D01*
X69811247Y-43463065D01*
X70035802Y-43390102D01*
X70246171Y-43282914D01*
X70369977Y-43192964D01*
X70435784Y-43169484D01*
X70503838Y-43185309D01*
X70551779Y-43234640D01*
X70551953Y-43234546D01*
X70552293Y-43235169D01*
X70552532Y-43235415D01*
X70553009Y-43236480D01*
X70556206Y-43242335D01*
X70642452Y-43357544D01*
X70642455Y-43357547D01*
X70757664Y-43443793D01*
X70757671Y-43443797D01*
X70892517Y-43494091D01*
X70892516Y-43494091D01*
X70899444Y-43494835D01*
X70952127Y-43500500D01*
X72578146Y-43500499D01*
X72645185Y-43520184D01*
X72654989Y-43527566D01*
X72655106Y-43527415D01*
X72658325Y-43529885D01*
X72658326Y-43529886D01*
X72673851Y-43541799D01*
X72869483Y-43691914D01*
X72869486Y-43691916D01*
X72869494Y-43691922D01*
X73100006Y-43825008D01*
X73100011Y-43825010D01*
X73100017Y-43825013D01*
X73345909Y-43926864D01*
X73345911Y-43926864D01*
X73345917Y-43926867D01*
X73603019Y-43995758D01*
X73800940Y-44021814D01*
X73866913Y-44030500D01*
X73866914Y-44030500D01*
X74133087Y-44030500D01*
X74185865Y-44023551D01*
X74396981Y-43995758D01*
X74654083Y-43926867D01*
X74899994Y-43825008D01*
X75130506Y-43691922D01*
X75341674Y-43529886D01*
X75341678Y-43529881D01*
X75341683Y-43529878D01*
X75529878Y-43341683D01*
X75529881Y-43341678D01*
X75529886Y-43341674D01*
X75691922Y-43130506D01*
X75825008Y-42899994D01*
X75926867Y-42654083D01*
X75995758Y-42396981D01*
X76030500Y-42133086D01*
X76030500Y-24366914D01*
X76028886Y-24354658D01*
X76020877Y-24293819D01*
X75995758Y-24103019D01*
X75926867Y-23845917D01*
X75926864Y-23845909D01*
X75825013Y-23600017D01*
X75825010Y-23600011D01*
X75825008Y-23600006D01*
X75691922Y-23369494D01*
X75529886Y-23158326D01*
X75529885Y-23158325D01*
X75529878Y-23158317D01*
X75341683Y-22970122D01*
X75341674Y-22970114D01*
X75130516Y-22808085D01*
X75130510Y-22808081D01*
X75130506Y-22808078D01*
X74899994Y-22674992D01*
X74899982Y-22674986D01*
X74654090Y-22573135D01*
X74396977Y-22504241D01*
X74133087Y-22469500D01*
X74133086Y-22469500D01*
X70266914Y-22469500D01*
X70266913Y-22469500D01*
X70003022Y-22504241D01*
X69745909Y-22573135D01*
X69500017Y-22674986D01*
X69500003Y-22674993D01*
X69269500Y-22808074D01*
X69269483Y-22808085D01*
X69058325Y-22970114D01*
X68870114Y-23158325D01*
X68708085Y-23369483D01*
X68708074Y-23369500D01*
X68574993Y-23600003D01*
X68574986Y-23600017D01*
X68473135Y-23845909D01*
X68404241Y-24103022D01*
X68369500Y-24366913D01*
X68369500Y-24633086D01*
X68402257Y-24881908D01*
X68404242Y-24896981D01*
X68463490Y-25118097D01*
X68473135Y-25154090D01*
X68574986Y-25399982D01*
X68574992Y-25399994D01*
X68708078Y-25630506D01*
X68708081Y-25630510D01*
X68708085Y-25630516D01*
X68870114Y-25841674D01*
X68870122Y-25841683D01*
X69058317Y-26029878D01*
X69058325Y-26029885D01*
X69269483Y-26191914D01*
X69269486Y-26191916D01*
X69269494Y-26191922D01*
X69500006Y-26325008D01*
X69500011Y-26325010D01*
X69500017Y-26325013D01*
X69745909Y-26426864D01*
X69745911Y-26426864D01*
X69745917Y-26426867D01*
X70003019Y-26495758D01*
X70175141Y-26518418D01*
X70266913Y-26530500D01*
X70266914Y-26530500D01*
X71845500Y-26530500D01*
X71912539Y-26550185D01*
X71958294Y-26602989D01*
X71969500Y-26654500D01*
X71969500Y-40375500D01*
X71949815Y-40442539D01*
X71897011Y-40488294D01*
X71845500Y-40499500D01*
X70952129Y-40499500D01*
X70952123Y-40499501D01*
X70892516Y-40505908D01*
X70757671Y-40556202D01*
X70757664Y-40556206D01*
X70642455Y-40642452D01*
X70642452Y-40642455D01*
X70556206Y-40757664D01*
X70551953Y-40765454D01*
X70548807Y-40763736D01*
X70517139Y-40806010D01*
X70451667Y-40830404D01*
X70383399Y-40815529D01*
X70369978Y-40807035D01*
X70246174Y-40717087D01*
X70035802Y-40609897D01*
X69811247Y-40536934D01*
X69811248Y-40536934D01*
X69578052Y-40500000D01*
X69341948Y-40500000D01*
X69108752Y-40536934D01*
X68884197Y-40609897D01*
X68673830Y-40717084D01*
X68590894Y-40777340D01*
X69371415Y-41557861D01*
X69286306Y-41580667D01*
X69183694Y-41639910D01*
X69099910Y-41723694D01*
X69040667Y-41826306D01*
X69017861Y-41911415D01*
X68237340Y-41130894D01*
X68177084Y-41213830D01*
X68069897Y-41424197D01*
X67996934Y-41648752D01*
X67960000Y-41881947D01*
X25920500Y-41881947D01*
X25920500Y-29202135D01*
X61209500Y-29202135D01*
X61209500Y-30797870D01*
X61209501Y-30797876D01*
X61215908Y-30857483D01*
X61266202Y-30992328D01*
X61266206Y-30992335D01*
X61352452Y-31107544D01*
X61352455Y-31107547D01*
X61467664Y-31193793D01*
X61467671Y-31193797D01*
X61602517Y-31244091D01*
X61602516Y-31244091D01*
X61609444Y-31244835D01*
X61662127Y-31250500D01*
X63257872Y-31250499D01*
X63317483Y-31244091D01*
X63452331Y-31193796D01*
X63567546Y-31107546D01*
X63653796Y-30992331D01*
X63656299Y-30985617D01*
X63668434Y-30953086D01*
X63704091Y-30857482D01*
X63710500Y-30797873D01*
X63710499Y-29901617D01*
X66290000Y-29901617D01*
X66290000Y-30098382D01*
X66320778Y-30292705D01*
X66381581Y-30479835D01*
X66470905Y-30655145D01*
X66496319Y-30690125D01*
X66496320Y-30690125D01*
X67140000Y-30046445D01*
X67140000Y-30052661D01*
X67167259Y-30154394D01*
X67219920Y-30245606D01*
X67294394Y-30320080D01*
X67385606Y-30372741D01*
X67487339Y-30400000D01*
X67493553Y-30400000D01*
X66849873Y-31043677D01*
X66849873Y-31043678D01*
X66884858Y-31069096D01*
X67060164Y-31158418D01*
X67247294Y-31219221D01*
X67441618Y-31250000D01*
X67638382Y-31250000D01*
X67832705Y-31219221D01*
X68019835Y-31158418D01*
X68195143Y-31069095D01*
X68230125Y-31043678D01*
X68230126Y-31043678D01*
X67586448Y-30400000D01*
X67592661Y-30400000D01*
X67694394Y-30372741D01*
X67785606Y-30320080D01*
X67860080Y-30245606D01*
X67912741Y-30154394D01*
X67940000Y-30052661D01*
X67940000Y-30046447D01*
X68583678Y-30690126D01*
X68583678Y-30690125D01*
X68609095Y-30655143D01*
X68698418Y-30479835D01*
X68759221Y-30292705D01*
X68790000Y-30098382D01*
X68790000Y-29901617D01*
X68759221Y-29707294D01*
X68698418Y-29520164D01*
X68609096Y-29344858D01*
X68583678Y-29309873D01*
X68583677Y-29309873D01*
X67940000Y-29953551D01*
X67940000Y-29947339D01*
X67912741Y-29845606D01*
X67860080Y-29754394D01*
X67785606Y-29679920D01*
X67694394Y-29627259D01*
X67592661Y-29600000D01*
X67586447Y-29600000D01*
X68230125Y-28956320D01*
X68230125Y-28956319D01*
X68195145Y-28930905D01*
X68019835Y-28841581D01*
X67832705Y-28780778D01*
X67638382Y-28750000D01*
X67441618Y-28750000D01*
X67247294Y-28780778D01*
X67060161Y-28841582D01*
X66884863Y-28930899D01*
X66884859Y-28930902D01*
X66849873Y-28956320D01*
X66849872Y-28956320D01*
X67493554Y-29600000D01*
X67487339Y-29600000D01*
X67385606Y-29627259D01*
X67294394Y-29679920D01*
X67219920Y-29754394D01*
X67167259Y-29845606D01*
X67140000Y-29947339D01*
X67140000Y-29953552D01*
X66496320Y-29309872D01*
X66496320Y-29309873D01*
X66470902Y-29344859D01*
X66470899Y-29344863D01*
X66381582Y-29520161D01*
X66320778Y-29707294D01*
X66290000Y-29901617D01*
X63710499Y-29901617D01*
X63710499Y-29202128D01*
X63704091Y-29142517D01*
X63653796Y-29007669D01*
X63653795Y-29007668D01*
X63653793Y-29007664D01*
X63567547Y-28892455D01*
X63567544Y-28892452D01*
X63452335Y-28806206D01*
X63452328Y-28806202D01*
X63317482Y-28755908D01*
X63317483Y-28755908D01*
X63257883Y-28749501D01*
X63257881Y-28749500D01*
X63257873Y-28749500D01*
X63257864Y-28749500D01*
X61662129Y-28749500D01*
X61662123Y-28749501D01*
X61602516Y-28755908D01*
X61467671Y-28806202D01*
X61467664Y-28806206D01*
X61352455Y-28892452D01*
X61352452Y-28892455D01*
X61266206Y-29007664D01*
X61266202Y-29007671D01*
X61215908Y-29142517D01*
X61209501Y-29202116D01*
X61209501Y-29202123D01*
X61209500Y-29202135D01*
X25920500Y-29202135D01*
X25920500Y-27451304D01*
X27099500Y-27451304D01*
X27099500Y-27628695D01*
X27134103Y-27802658D01*
X27134106Y-27802667D01*
X27201983Y-27966540D01*
X27201990Y-27966553D01*
X27300535Y-28114034D01*
X27300538Y-28114038D01*
X27425961Y-28239461D01*
X27425965Y-28239464D01*
X27573446Y-28338009D01*
X27573459Y-28338016D01*
X27696363Y-28388923D01*
X27737334Y-28405894D01*
X27737336Y-28405894D01*
X27737341Y-28405896D01*
X27911304Y-28440499D01*
X27911307Y-28440500D01*
X27911309Y-28440500D01*
X28088693Y-28440500D01*
X28088694Y-28440499D01*
X28146682Y-28428964D01*
X28262658Y-28405896D01*
X28262661Y-28405894D01*
X28262666Y-28405894D01*
X28426547Y-28338013D01*
X28574035Y-28239464D01*
X28699464Y-28114035D01*
X28798013Y-27966547D01*
X28865894Y-27802666D01*
X28900500Y-27628691D01*
X28900500Y-27451309D01*
X28900500Y-27451306D01*
X28900499Y-27451304D01*
X28865896Y-27277341D01*
X28865893Y-27277332D01*
X28798016Y-27113459D01*
X28798009Y-27113446D01*
X28699464Y-26965965D01*
X28699461Y-26965961D01*
X28686819Y-26953319D01*
X28653334Y-26891996D01*
X28650500Y-26865638D01*
X28650500Y-23952135D01*
X32419500Y-23952135D01*
X32419500Y-26047870D01*
X32419501Y-26047876D01*
X32425908Y-26107483D01*
X32476202Y-26242328D01*
X32476206Y-26242335D01*
X32562452Y-26357544D01*
X32562455Y-26357547D01*
X32677664Y-26443793D01*
X32677671Y-26443797D01*
X32812517Y-26494091D01*
X32812516Y-26494091D01*
X32819444Y-26494835D01*
X32872127Y-26500500D01*
X34967872Y-26500499D01*
X35027483Y-26494091D01*
X35162331Y-26443796D01*
X35277546Y-26357546D01*
X35363796Y-26242331D01*
X35414091Y-26107483D01*
X35420500Y-26047873D01*
X35420499Y-24881902D01*
X42579500Y-24881902D01*
X42579500Y-25118097D01*
X42616446Y-25351368D01*
X42689433Y-25575996D01*
X42747586Y-25690126D01*
X42796657Y-25786433D01*
X42935483Y-25977510D01*
X43102490Y-26144517D01*
X43293567Y-26283343D01*
X43375335Y-26325006D01*
X43504003Y-26390566D01*
X43504005Y-26390566D01*
X43504008Y-26390568D01*
X43624412Y-26429689D01*
X43728631Y-26463553D01*
X43961903Y-26500500D01*
X43961908Y-26500500D01*
X44198097Y-26500500D01*
X44431368Y-26463553D01*
X44472633Y-26450145D01*
X44655992Y-26390568D01*
X44866433Y-26283343D01*
X45057510Y-26144517D01*
X45224517Y-25977510D01*
X45363343Y-25786433D01*
X45470568Y-25575992D01*
X45543553Y-25351368D01*
X45580500Y-25118097D01*
X45580500Y-24881902D01*
X45543553Y-24648631D01*
X45470566Y-24424003D01*
X45384506Y-24255101D01*
X45384505Y-24255099D01*
X45363344Y-24213569D01*
X45355037Y-24202135D01*
X54209500Y-24202135D01*
X54209500Y-25797870D01*
X54209501Y-25797876D01*
X54215908Y-25857483D01*
X54266202Y-25992328D01*
X54266206Y-25992335D01*
X54352452Y-26107544D01*
X54352455Y-26107547D01*
X54467664Y-26193793D01*
X54467671Y-26193797D01*
X54602517Y-26244091D01*
X54602516Y-26244091D01*
X54609444Y-26244835D01*
X54662127Y-26250500D01*
X56257872Y-26250499D01*
X56317483Y-26244091D01*
X56452331Y-26193796D01*
X56567546Y-26107546D01*
X56653796Y-25992331D01*
X56704091Y-25857483D01*
X56710500Y-25797873D01*
X56710499Y-25734265D01*
X56730183Y-25667229D01*
X56782986Y-25621473D01*
X56852144Y-25611529D01*
X56915700Y-25640553D01*
X56934816Y-25661381D01*
X57025674Y-25786433D01*
X57046172Y-25814646D01*
X57185354Y-25953828D01*
X57344595Y-26069524D01*
X57419092Y-26107482D01*
X57519970Y-26158882D01*
X57519972Y-26158882D01*
X57519975Y-26158884D01*
X57620317Y-26191487D01*
X57707173Y-26219709D01*
X57901578Y-26250500D01*
X57901583Y-26250500D01*
X58098422Y-26250500D01*
X58292826Y-26219709D01*
X58294328Y-26219221D01*
X58480025Y-26158884D01*
X58655405Y-26069524D01*
X58814646Y-25953828D01*
X58953828Y-25814646D01*
X59069524Y-25655405D01*
X59158884Y-25480025D01*
X59158884Y-25480022D01*
X59159795Y-25478236D01*
X59207769Y-25427440D01*
X59275590Y-25410644D01*
X59341725Y-25433181D01*
X59380765Y-25478235D01*
X59470905Y-25655145D01*
X59496319Y-25690125D01*
X59496320Y-25690125D01*
X60140000Y-25046445D01*
X60140000Y-25052661D01*
X60167259Y-25154394D01*
X60219920Y-25245606D01*
X60294394Y-25320080D01*
X60385606Y-25372741D01*
X60487339Y-25400000D01*
X60493553Y-25400000D01*
X59849873Y-26043677D01*
X59849873Y-26043678D01*
X59884858Y-26069096D01*
X60060164Y-26158418D01*
X60247294Y-26219221D01*
X60441618Y-26250000D01*
X60638382Y-26250000D01*
X60832705Y-26219221D01*
X61019835Y-26158418D01*
X61195143Y-26069095D01*
X61230125Y-26043678D01*
X61230126Y-26043678D01*
X60586448Y-25400000D01*
X60592661Y-25400000D01*
X60694394Y-25372741D01*
X60785606Y-25320080D01*
X60860080Y-25245606D01*
X60912741Y-25154394D01*
X60940000Y-25052661D01*
X60940000Y-25046447D01*
X61583678Y-25690126D01*
X61583678Y-25690125D01*
X61609095Y-25655143D01*
X61698418Y-25479835D01*
X61759221Y-25292705D01*
X61790000Y-25098382D01*
X61790000Y-24901617D01*
X61759221Y-24707294D01*
X61698418Y-24520164D01*
X61646949Y-24419150D01*
X61646948Y-24419148D01*
X61609097Y-24344860D01*
X61583678Y-24309873D01*
X61583677Y-24309873D01*
X60940000Y-24953551D01*
X60940000Y-24947339D01*
X60912741Y-24845606D01*
X60860080Y-24754394D01*
X60785606Y-24679920D01*
X60694394Y-24627259D01*
X60592661Y-24600000D01*
X60586447Y-24600000D01*
X61230125Y-23956320D01*
X61230125Y-23956319D01*
X61195145Y-23930905D01*
X61019835Y-23841581D01*
X60832705Y-23780778D01*
X60638382Y-23750000D01*
X60441618Y-23750000D01*
X60247294Y-23780778D01*
X60060161Y-23841582D01*
X59884863Y-23930899D01*
X59884859Y-23930902D01*
X59849873Y-23956320D01*
X59849872Y-23956320D01*
X60493554Y-24600000D01*
X60487339Y-24600000D01*
X60385606Y-24627259D01*
X60294394Y-24679920D01*
X60219920Y-24754394D01*
X60167259Y-24845606D01*
X60140000Y-24947339D01*
X60140000Y-24953552D01*
X59496320Y-24309872D01*
X59496320Y-24309873D01*
X59470902Y-24344859D01*
X59380765Y-24521764D01*
X59332790Y-24572560D01*
X59264969Y-24589355D01*
X59198835Y-24566818D01*
X59159795Y-24521763D01*
X59069525Y-24344596D01*
X59032633Y-24293819D01*
X58953828Y-24185354D01*
X58814646Y-24046172D01*
X58655405Y-23930476D01*
X58480029Y-23841117D01*
X58292826Y-23780290D01*
X58098422Y-23749500D01*
X58098417Y-23749500D01*
X57901583Y-23749500D01*
X57901578Y-23749500D01*
X57707173Y-23780290D01*
X57519970Y-23841117D01*
X57344594Y-23930476D01*
X57253741Y-23996485D01*
X57185354Y-24046172D01*
X57185352Y-24046174D01*
X57185351Y-24046174D01*
X57046173Y-24185352D01*
X56934817Y-24338620D01*
X56879486Y-24381285D01*
X56809873Y-24387264D01*
X56748078Y-24354658D01*
X56713721Y-24293819D01*
X56710499Y-24265734D01*
X56710499Y-24202129D01*
X56710498Y-24202123D01*
X56710497Y-24202116D01*
X56704091Y-24142517D01*
X56689360Y-24103022D01*
X56653797Y-24007671D01*
X56653793Y-24007664D01*
X56567547Y-23892455D01*
X56567544Y-23892452D01*
X56452335Y-23806206D01*
X56452328Y-23806202D01*
X56317482Y-23755908D01*
X56317483Y-23755908D01*
X56257883Y-23749501D01*
X56257881Y-23749500D01*
X56257873Y-23749500D01*
X56257864Y-23749500D01*
X54662129Y-23749500D01*
X54662123Y-23749501D01*
X54602516Y-23755908D01*
X54467671Y-23806202D01*
X54467664Y-23806206D01*
X54352455Y-23892452D01*
X54352452Y-23892455D01*
X54266206Y-24007664D01*
X54266202Y-24007671D01*
X54215908Y-24142517D01*
X54211303Y-24185354D01*
X54209501Y-24202123D01*
X54209500Y-24202135D01*
X45355037Y-24202135D01*
X45224517Y-24022490D01*
X45057510Y-23855483D01*
X44866433Y-23716657D01*
X44845914Y-23706202D01*
X44655996Y-23609433D01*
X44431368Y-23536446D01*
X44198097Y-23499500D01*
X44198092Y-23499500D01*
X43961908Y-23499500D01*
X43961903Y-23499500D01*
X43728631Y-23536446D01*
X43504003Y-23609433D01*
X43293566Y-23716657D01*
X43205312Y-23780778D01*
X43102490Y-23855483D01*
X43102488Y-23855485D01*
X43102487Y-23855485D01*
X42935485Y-24022487D01*
X42935485Y-24022488D01*
X42935483Y-24022490D01*
X42918277Y-24046172D01*
X42796657Y-24213566D01*
X42689433Y-24424003D01*
X42616446Y-24648631D01*
X42579500Y-24881902D01*
X35420499Y-24881902D01*
X35420499Y-23952128D01*
X35414091Y-23892517D01*
X35400278Y-23855483D01*
X35363797Y-23757671D01*
X35363793Y-23757664D01*
X35277547Y-23642455D01*
X35277544Y-23642452D01*
X35162335Y-23556206D01*
X35162328Y-23556202D01*
X35027482Y-23505908D01*
X35027483Y-23505908D01*
X34967883Y-23499501D01*
X34967881Y-23499500D01*
X34967873Y-23499500D01*
X34967864Y-23499500D01*
X32872129Y-23499500D01*
X32872123Y-23499501D01*
X32812516Y-23505908D01*
X32677671Y-23556202D01*
X32677664Y-23556206D01*
X32562455Y-23642452D01*
X32562452Y-23642455D01*
X32476206Y-23757664D01*
X32476202Y-23757671D01*
X32425908Y-23892517D01*
X32419501Y-23952116D01*
X32419501Y-23952123D01*
X32419500Y-23952135D01*
X28650500Y-23952135D01*
X28650500Y-12774500D01*
X28670185Y-12707461D01*
X28722989Y-12661706D01*
X28774500Y-12650500D01*
X30600284Y-12650500D01*
X30667323Y-12670185D01*
X30713078Y-12722989D01*
X30723022Y-12792147D01*
X30721901Y-12798692D01*
X30699500Y-12911306D01*
X30699500Y-13088695D01*
X30734103Y-13262658D01*
X30734106Y-13262667D01*
X30801984Y-13426542D01*
X30801985Y-13426543D01*
X30801987Y-13426547D01*
X30824338Y-13459997D01*
X30828602Y-13466378D01*
X30849480Y-13533055D01*
X30849500Y-13535269D01*
X30849500Y-20713918D01*
X30849500Y-20713920D01*
X30849499Y-20713920D01*
X30878340Y-20858907D01*
X30878343Y-20858917D01*
X30934912Y-20995488D01*
X30934919Y-20995501D01*
X31017048Y-21118415D01*
X31017051Y-21118419D01*
X31121580Y-21222948D01*
X31121584Y-21222951D01*
X31244498Y-21305080D01*
X31244511Y-21305087D01*
X31381082Y-21361656D01*
X31381087Y-21361658D01*
X31381091Y-21361658D01*
X31381092Y-21361659D01*
X31526079Y-21390500D01*
X31526082Y-21390500D01*
X31673918Y-21390500D01*
X43964730Y-21390500D01*
X44031769Y-21410185D01*
X44033622Y-21411399D01*
X44073447Y-21438010D01*
X44073450Y-21438011D01*
X44073453Y-21438013D01*
X44237334Y-21505894D01*
X44237336Y-21505894D01*
X44237341Y-21505896D01*
X44411304Y-21540499D01*
X44411307Y-21540500D01*
X44411309Y-21540500D01*
X44588693Y-21540500D01*
X44588694Y-21540499D01*
X44646682Y-21528964D01*
X44762658Y-21505896D01*
X44762661Y-21505894D01*
X44762666Y-21505894D01*
X44926547Y-21438013D01*
X44926550Y-21438010D01*
X44926552Y-21438010D01*
X44966378Y-21411399D01*
X45033055Y-21390520D01*
X45035270Y-21390500D01*
X57092896Y-21390500D01*
X57159935Y-21410185D01*
X57205690Y-21462989D01*
X57215634Y-21532147D01*
X57203982Y-21567685D01*
X57204318Y-21567825D01*
X57202488Y-21572241D01*
X57202256Y-21572951D01*
X57201983Y-21573460D01*
X57134106Y-21737332D01*
X57134103Y-21737341D01*
X57099500Y-21911304D01*
X57099500Y-22088695D01*
X57134103Y-22262658D01*
X57134106Y-22262667D01*
X57201983Y-22426540D01*
X57201990Y-22426553D01*
X57300535Y-22574034D01*
X57300538Y-22574038D01*
X57425961Y-22699461D01*
X57425965Y-22699464D01*
X57573446Y-22798009D01*
X57573459Y-22798016D01*
X57696363Y-22848923D01*
X57737334Y-22865894D01*
X57737336Y-22865894D01*
X57737341Y-22865896D01*
X57911304Y-22900499D01*
X57911307Y-22900500D01*
X57911309Y-22900500D01*
X58088693Y-22900500D01*
X58088694Y-22900499D01*
X58146682Y-22888964D01*
X58262658Y-22865896D01*
X58262661Y-22865894D01*
X58262666Y-22865894D01*
X58426547Y-22798013D01*
X58574035Y-22699464D01*
X58699464Y-22574035D01*
X58798013Y-22426547D01*
X58865894Y-22262666D01*
X58900500Y-22088691D01*
X58900500Y-21911309D01*
X58900500Y-21911306D01*
X58900499Y-21911304D01*
X58865896Y-21737341D01*
X58865893Y-21737332D01*
X58798013Y-21573453D01*
X58798011Y-21573451D01*
X58798011Y-21573449D01*
X58771398Y-21533620D01*
X58750520Y-21466942D01*
X58750500Y-21464729D01*
X58750500Y-20566079D01*
X58721659Y-20421092D01*
X58721658Y-20421091D01*
X58721658Y-20421087D01*
X58721656Y-20421082D01*
X58665087Y-20284511D01*
X58665080Y-20284498D01*
X58582951Y-20161584D01*
X58582948Y-20161580D01*
X58478419Y-20057051D01*
X58478415Y-20057048D01*
X58355501Y-19974919D01*
X58355488Y-19974912D01*
X58218917Y-19918343D01*
X58218907Y-19918340D01*
X58073920Y-19889500D01*
X58073918Y-19889500D01*
X50778588Y-19889500D01*
X50711549Y-19869815D01*
X50665794Y-19817011D01*
X50655850Y-19747853D01*
X50664027Y-19718048D01*
X50721656Y-19578917D01*
X50721658Y-19578913D01*
X50750500Y-19433918D01*
X50750500Y-14202135D01*
X54209500Y-14202135D01*
X54209500Y-15797870D01*
X54209501Y-15797876D01*
X54215908Y-15857483D01*
X54266202Y-15992328D01*
X54266206Y-15992335D01*
X54352452Y-16107544D01*
X54352455Y-16107547D01*
X54467664Y-16193793D01*
X54467671Y-16193797D01*
X54602517Y-16244091D01*
X54602516Y-16244091D01*
X54609444Y-16244835D01*
X54662127Y-16250500D01*
X56257872Y-16250499D01*
X56317483Y-16244091D01*
X56452331Y-16193796D01*
X56567546Y-16107546D01*
X56653796Y-15992331D01*
X56704091Y-15857483D01*
X56710500Y-15797873D01*
X56710499Y-15734265D01*
X56730183Y-15667229D01*
X56782986Y-15621473D01*
X56852144Y-15611529D01*
X56915700Y-15640553D01*
X56934816Y-15661381D01*
X57025674Y-15786433D01*
X57046172Y-15814646D01*
X57185354Y-15953828D01*
X57344595Y-16069524D01*
X57419092Y-16107482D01*
X57519970Y-16158882D01*
X57519972Y-16158882D01*
X57519975Y-16158884D01*
X57620317Y-16191487D01*
X57707173Y-16219709D01*
X57901578Y-16250500D01*
X57901583Y-16250500D01*
X58098422Y-16250500D01*
X58292826Y-16219709D01*
X58372574Y-16193797D01*
X58480025Y-16158884D01*
X58655405Y-16069524D01*
X58814646Y-15953828D01*
X58953828Y-15814646D01*
X59069524Y-15655405D01*
X59158884Y-15480025D01*
X59159515Y-15478787D01*
X59207489Y-15427990D01*
X59275310Y-15411195D01*
X59341445Y-15433732D01*
X59380485Y-15478787D01*
X59470474Y-15655403D01*
X59505234Y-15703246D01*
X59586172Y-15814646D01*
X59725354Y-15953828D01*
X59884595Y-16069524D01*
X59959092Y-16107482D01*
X60059970Y-16158882D01*
X60059972Y-16158882D01*
X60059975Y-16158884D01*
X60160317Y-16191487D01*
X60247173Y-16219709D01*
X60441578Y-16250500D01*
X60441583Y-16250500D01*
X60638422Y-16250500D01*
X60832826Y-16219709D01*
X60912574Y-16193797D01*
X61020025Y-16158884D01*
X61195405Y-16069524D01*
X61195410Y-16069519D01*
X61195479Y-16069485D01*
X61264148Y-16056589D01*
X61328888Y-16082865D01*
X61351039Y-16105657D01*
X61352449Y-16107540D01*
X61352451Y-16107542D01*
X61352454Y-16107546D01*
X61352457Y-16107548D01*
X61467664Y-16193793D01*
X61467671Y-16193797D01*
X61602517Y-16244091D01*
X61602516Y-16244091D01*
X61609444Y-16244835D01*
X61662127Y-16250500D01*
X63257872Y-16250499D01*
X63317483Y-16244091D01*
X63452331Y-16193796D01*
X63567546Y-16107546D01*
X63653796Y-15992331D01*
X63704091Y-15857483D01*
X63710500Y-15797873D01*
X63710499Y-14901577D01*
X66289500Y-14901577D01*
X66289500Y-15098422D01*
X66320290Y-15292826D01*
X66381117Y-15480029D01*
X66470475Y-15655403D01*
X66470476Y-15655405D01*
X66586172Y-15814646D01*
X66725354Y-15953828D01*
X66884595Y-16069524D01*
X66959092Y-16107482D01*
X67059970Y-16158882D01*
X67059972Y-16158882D01*
X67059975Y-16158884D01*
X67160317Y-16191487D01*
X67247173Y-16219709D01*
X67441578Y-16250500D01*
X67441583Y-16250500D01*
X67638422Y-16250500D01*
X67832826Y-16219709D01*
X67912574Y-16193797D01*
X68020025Y-16158884D01*
X68195405Y-16069524D01*
X68195410Y-16069519D01*
X68195479Y-16069485D01*
X68264148Y-16056589D01*
X68328888Y-16082865D01*
X68351039Y-16105657D01*
X68352449Y-16107540D01*
X68352451Y-16107542D01*
X68352454Y-16107546D01*
X68352457Y-16107548D01*
X68467664Y-16193793D01*
X68467671Y-16193797D01*
X68602517Y-16244091D01*
X68602516Y-16244091D01*
X68609444Y-16244835D01*
X68662127Y-16250500D01*
X70257872Y-16250499D01*
X70317483Y-16244091D01*
X70452331Y-16193796D01*
X70567546Y-16107546D01*
X70653796Y-15992331D01*
X70704091Y-15857483D01*
X70710500Y-15797873D01*
X70710499Y-14901577D01*
X73289500Y-14901577D01*
X73289500Y-15098422D01*
X73320290Y-15292826D01*
X73381117Y-15480029D01*
X73470475Y-15655403D01*
X73470476Y-15655405D01*
X73586172Y-15814646D01*
X73725354Y-15953828D01*
X73884595Y-16069524D01*
X73959092Y-16107482D01*
X74059970Y-16158882D01*
X74059972Y-16158882D01*
X74059975Y-16158884D01*
X74160317Y-16191487D01*
X74247173Y-16219709D01*
X74441578Y-16250500D01*
X74441583Y-16250500D01*
X74638422Y-16250500D01*
X74832826Y-16219709D01*
X74912574Y-16193797D01*
X75020025Y-16158884D01*
X75195405Y-16069524D01*
X75354646Y-15953828D01*
X75493828Y-15814646D01*
X75609524Y-15655405D01*
X75698884Y-15480025D01*
X75759709Y-15292826D01*
X75790500Y-15098422D01*
X75790500Y-14901577D01*
X75759709Y-14707173D01*
X75698882Y-14519970D01*
X75609523Y-14344594D01*
X75605183Y-14338620D01*
X75493828Y-14185354D01*
X75354646Y-14046172D01*
X75195405Y-13930476D01*
X75132258Y-13898301D01*
X75020029Y-13841117D01*
X74832826Y-13780290D01*
X74638422Y-13749500D01*
X74638417Y-13749500D01*
X74441583Y-13749500D01*
X74441578Y-13749500D01*
X74247173Y-13780290D01*
X74059970Y-13841117D01*
X73884594Y-13930476D01*
X73854792Y-13952129D01*
X73725354Y-14046172D01*
X73725352Y-14046174D01*
X73725351Y-14046174D01*
X73586174Y-14185351D01*
X73586174Y-14185352D01*
X73586172Y-14185354D01*
X73573980Y-14202135D01*
X73470476Y-14344594D01*
X73381117Y-14519970D01*
X73320290Y-14707173D01*
X73289500Y-14901577D01*
X70710499Y-14901577D01*
X70710499Y-14202128D01*
X70704091Y-14142517D01*
X70668157Y-14046174D01*
X70653797Y-14007671D01*
X70653793Y-14007664D01*
X70567547Y-13892455D01*
X70567544Y-13892452D01*
X70452335Y-13806206D01*
X70452328Y-13806202D01*
X70317482Y-13755908D01*
X70317483Y-13755908D01*
X70257883Y-13749501D01*
X70257881Y-13749500D01*
X70257873Y-13749500D01*
X70257864Y-13749500D01*
X68662129Y-13749500D01*
X68662123Y-13749501D01*
X68602516Y-13755908D01*
X68467671Y-13806202D01*
X68467664Y-13806206D01*
X68352457Y-13892451D01*
X68352448Y-13892459D01*
X68351035Y-13894348D01*
X68349147Y-13895760D01*
X68346180Y-13898728D01*
X68345753Y-13898301D01*
X68295098Y-13936214D01*
X68225406Y-13941193D01*
X68195479Y-13930514D01*
X68195406Y-13930476D01*
X68195405Y-13930476D01*
X68127271Y-13895760D01*
X68020029Y-13841117D01*
X67832826Y-13780290D01*
X67638422Y-13749500D01*
X67638417Y-13749500D01*
X67441583Y-13749500D01*
X67441578Y-13749500D01*
X67247173Y-13780290D01*
X67059970Y-13841117D01*
X66884594Y-13930476D01*
X66854792Y-13952129D01*
X66725354Y-14046172D01*
X66725352Y-14046174D01*
X66725351Y-14046174D01*
X66586174Y-14185351D01*
X66586174Y-14185352D01*
X66586172Y-14185354D01*
X66573980Y-14202135D01*
X66470476Y-14344594D01*
X66381117Y-14519970D01*
X66320290Y-14707173D01*
X66289500Y-14901577D01*
X63710499Y-14901577D01*
X63710499Y-14202128D01*
X63704091Y-14142517D01*
X63668157Y-14046174D01*
X63653797Y-14007671D01*
X63653793Y-14007664D01*
X63567547Y-13892455D01*
X63567544Y-13892452D01*
X63452335Y-13806206D01*
X63452328Y-13806202D01*
X63317482Y-13755908D01*
X63317483Y-13755908D01*
X63257883Y-13749501D01*
X63257881Y-13749500D01*
X63257873Y-13749500D01*
X63257864Y-13749500D01*
X61662129Y-13749500D01*
X61662123Y-13749501D01*
X61602516Y-13755908D01*
X61467671Y-13806202D01*
X61467664Y-13806206D01*
X61352457Y-13892451D01*
X61352448Y-13892459D01*
X61351035Y-13894348D01*
X61349147Y-13895760D01*
X61346180Y-13898728D01*
X61345753Y-13898301D01*
X61295098Y-13936214D01*
X61225406Y-13941193D01*
X61195479Y-13930514D01*
X61195406Y-13930476D01*
X61195405Y-13930476D01*
X61127271Y-13895760D01*
X61020029Y-13841117D01*
X60832826Y-13780290D01*
X60638422Y-13749500D01*
X60638417Y-13749500D01*
X60441583Y-13749500D01*
X60441578Y-13749500D01*
X60247173Y-13780290D01*
X60059970Y-13841117D01*
X59884594Y-13930476D01*
X59854792Y-13952129D01*
X59725354Y-14046172D01*
X59725352Y-14046174D01*
X59725351Y-14046174D01*
X59586174Y-14185351D01*
X59586174Y-14185352D01*
X59586172Y-14185354D01*
X59573980Y-14202135D01*
X59470476Y-14344594D01*
X59380485Y-14521213D01*
X59332511Y-14572009D01*
X59264690Y-14588804D01*
X59198555Y-14566267D01*
X59159515Y-14521213D01*
X59109984Y-14424003D01*
X59069524Y-14344595D01*
X58953828Y-14185354D01*
X58814646Y-14046172D01*
X58655405Y-13930476D01*
X58592258Y-13898301D01*
X58480029Y-13841117D01*
X58292826Y-13780290D01*
X58098422Y-13749500D01*
X58098417Y-13749500D01*
X57901583Y-13749500D01*
X57901578Y-13749500D01*
X57707173Y-13780290D01*
X57519970Y-13841117D01*
X57344594Y-13930476D01*
X57314792Y-13952129D01*
X57185354Y-14046172D01*
X57185352Y-14046174D01*
X57185351Y-14046174D01*
X57046173Y-14185352D01*
X56934817Y-14338620D01*
X56879486Y-14381285D01*
X56809873Y-14387264D01*
X56748078Y-14354658D01*
X56713721Y-14293819D01*
X56710499Y-14265734D01*
X56710499Y-14202129D01*
X56710498Y-14202123D01*
X56710497Y-14202116D01*
X56704091Y-14142517D01*
X56668157Y-14046174D01*
X56653797Y-14007671D01*
X56653793Y-14007664D01*
X56567547Y-13892455D01*
X56567544Y-13892452D01*
X56452335Y-13806206D01*
X56452328Y-13806202D01*
X56317482Y-13755908D01*
X56317483Y-13755908D01*
X56257883Y-13749501D01*
X56257881Y-13749500D01*
X56257873Y-13749500D01*
X56257864Y-13749500D01*
X54662129Y-13749500D01*
X54662123Y-13749501D01*
X54602516Y-13755908D01*
X54467671Y-13806202D01*
X54467664Y-13806206D01*
X54352455Y-13892452D01*
X54352452Y-13892455D01*
X54266206Y-14007664D01*
X54266202Y-14007671D01*
X54215908Y-14142517D01*
X54211303Y-14185354D01*
X54209501Y-14202123D01*
X54209500Y-14202135D01*
X50750500Y-14202135D01*
X50750500Y-13935269D01*
X50770185Y-13868230D01*
X50771398Y-13866378D01*
X50798013Y-13826547D01*
X50865894Y-13662666D01*
X50867750Y-13653339D01*
X50900499Y-13488695D01*
X50900500Y-13488693D01*
X50900500Y-13311306D01*
X50900499Y-13311304D01*
X50865896Y-13137341D01*
X50865893Y-13137332D01*
X50798016Y-12973459D01*
X50798009Y-12973446D01*
X50699464Y-12825965D01*
X50699461Y-12825961D01*
X50574038Y-12700538D01*
X50574034Y-12700535D01*
X50426553Y-12601990D01*
X50426540Y-12601983D01*
X50262667Y-12534106D01*
X50262658Y-12534103D01*
X50088694Y-12499500D01*
X50088691Y-12499500D01*
X49911309Y-12499500D01*
X49911306Y-12499500D01*
X49737341Y-12534103D01*
X49737332Y-12534106D01*
X49573459Y-12601983D01*
X49573446Y-12601990D01*
X49425965Y-12700535D01*
X49425961Y-12700538D01*
X49300538Y-12825961D01*
X49300535Y-12825965D01*
X49201990Y-12973446D01*
X49201983Y-12973459D01*
X49134106Y-13137332D01*
X49134103Y-13137341D01*
X49099500Y-13311304D01*
X49099500Y-13488695D01*
X49134103Y-13662658D01*
X49134106Y-13662667D01*
X49201984Y-13826542D01*
X49201985Y-13826543D01*
X49201987Y-13826547D01*
X49228602Y-13866378D01*
X49249480Y-13933055D01*
X49249500Y-13935269D01*
X49249500Y-18485500D01*
X49229815Y-18552539D01*
X49177011Y-18598294D01*
X49125500Y-18609500D01*
X45035270Y-18609500D01*
X44968231Y-18589815D01*
X44966378Y-18588601D01*
X44926552Y-18561989D01*
X44926547Y-18561987D01*
X44762667Y-18494106D01*
X44762658Y-18494103D01*
X44588694Y-18459500D01*
X44588691Y-18459500D01*
X44411309Y-18459500D01*
X44411306Y-18459500D01*
X44237341Y-18494103D01*
X44237332Y-18494106D01*
X44073452Y-18561987D01*
X44073447Y-18561989D01*
X44033622Y-18588601D01*
X43966945Y-18609480D01*
X43964730Y-18609500D01*
X34794500Y-18609500D01*
X34727461Y-18589815D01*
X34681706Y-18537011D01*
X34670500Y-18485500D01*
X34670500Y-16624499D01*
X34690185Y-16557460D01*
X34742989Y-16511705D01*
X34794500Y-16500499D01*
X34967871Y-16500499D01*
X34967872Y-16500499D01*
X35027483Y-16494091D01*
X35162331Y-16443796D01*
X35277546Y-16357546D01*
X35363796Y-16242331D01*
X35414091Y-16107483D01*
X35420500Y-16047873D01*
X35420499Y-14881902D01*
X42579500Y-14881902D01*
X42579500Y-15118097D01*
X42616446Y-15351368D01*
X42689433Y-15575996D01*
X42770078Y-15734269D01*
X42796657Y-15786433D01*
X42935483Y-15977510D01*
X43102490Y-16144517D01*
X43293567Y-16283343D01*
X43369860Y-16322216D01*
X43504003Y-16390566D01*
X43504005Y-16390566D01*
X43504008Y-16390568D01*
X43624412Y-16429689D01*
X43728631Y-16463553D01*
X43961903Y-16500500D01*
X43961908Y-16500500D01*
X44198097Y-16500500D01*
X44431368Y-16463553D01*
X44655992Y-16390568D01*
X44866433Y-16283343D01*
X45057510Y-16144517D01*
X45224517Y-15977510D01*
X45363343Y-15786433D01*
X45470568Y-15575992D01*
X45543553Y-15351368D01*
X45552825Y-15292826D01*
X45580500Y-15118097D01*
X45580500Y-14881902D01*
X45543553Y-14648631D01*
X45470566Y-14424003D01*
X45363342Y-14213566D01*
X45355037Y-14202135D01*
X45224517Y-14022490D01*
X45057510Y-13855483D01*
X44866433Y-13716657D01*
X44655996Y-13609433D01*
X44431368Y-13536446D01*
X44198097Y-13499500D01*
X44198092Y-13499500D01*
X43961908Y-13499500D01*
X43961903Y-13499500D01*
X43728631Y-13536446D01*
X43504003Y-13609433D01*
X43293566Y-13716657D01*
X43184550Y-13795862D01*
X43102490Y-13855483D01*
X43102488Y-13855485D01*
X43102487Y-13855485D01*
X42935485Y-14022487D01*
X42935485Y-14022488D01*
X42935483Y-14022490D01*
X42918277Y-14046172D01*
X42796657Y-14213566D01*
X42689433Y-14424003D01*
X42616446Y-14648631D01*
X42579500Y-14881902D01*
X35420499Y-14881902D01*
X35420499Y-13952128D01*
X35414091Y-13892517D01*
X35414069Y-13892459D01*
X35363797Y-13757671D01*
X35363793Y-13757664D01*
X35277547Y-13642455D01*
X35277544Y-13642452D01*
X35162335Y-13556206D01*
X35162328Y-13556202D01*
X35027482Y-13505908D01*
X35027483Y-13505908D01*
X34967883Y-13499501D01*
X34967881Y-13499500D01*
X34967873Y-13499500D01*
X34967865Y-13499500D01*
X34873373Y-13499500D01*
X34806334Y-13479815D01*
X34760579Y-13427011D01*
X34750635Y-13357853D01*
X34758812Y-13328048D01*
X34785894Y-13262666D01*
X34820500Y-13088691D01*
X34820500Y-12911309D01*
X34820500Y-12911306D01*
X34798099Y-12798692D01*
X34804326Y-12729100D01*
X34847189Y-12673923D01*
X34913078Y-12650678D01*
X34919716Y-12650500D01*
X41235638Y-12650500D01*
X41302677Y-12670185D01*
X41323319Y-12686819D01*
X41335961Y-12699461D01*
X41335965Y-12699464D01*
X41483446Y-12798009D01*
X41483459Y-12798016D01*
X41606363Y-12848923D01*
X41647334Y-12865894D01*
X41647336Y-12865894D01*
X41647341Y-12865896D01*
X41821304Y-12900499D01*
X41821307Y-12900500D01*
X41821309Y-12900500D01*
X41998693Y-12900500D01*
X41998694Y-12900499D01*
X42056682Y-12888964D01*
X42172658Y-12865896D01*
X42172661Y-12865894D01*
X42172666Y-12865894D01*
X42336547Y-12798013D01*
X42484035Y-12699464D01*
X42609464Y-12574035D01*
X42708013Y-12426547D01*
X42775894Y-12262666D01*
X42810500Y-12088691D01*
X42810500Y-11911309D01*
X42810500Y-11911306D01*
X42810499Y-11911304D01*
X42775896Y-11737341D01*
X42775893Y-11737332D01*
X42708016Y-11573459D01*
X42708009Y-11573446D01*
X42609464Y-11425965D01*
X42609461Y-11425961D01*
X42484038Y-11300538D01*
X42484034Y-11300535D01*
X42336553Y-11201990D01*
X42336540Y-11201983D01*
X42172667Y-11134106D01*
X42172658Y-11134103D01*
X41998694Y-11099500D01*
X41998691Y-11099500D01*
X41821309Y-11099500D01*
X41821306Y-11099500D01*
X41647341Y-11134103D01*
X41647332Y-11134106D01*
X41483459Y-11201983D01*
X41483446Y-11201990D01*
X41335965Y-11300535D01*
X41335961Y-11300538D01*
X41323319Y-11313181D01*
X41261996Y-11346666D01*
X41235638Y-11349500D01*
X27935929Y-11349500D01*
X27810261Y-11374497D01*
X27810255Y-11374499D01*
X27691875Y-11423533D01*
X27691866Y-11423538D01*
X27585331Y-11494723D01*
X27585327Y-11494726D01*
X27494726Y-11585327D01*
X27494723Y-11585331D01*
X27423538Y-11691866D01*
X27423533Y-11691875D01*
X27374499Y-11810255D01*
X27374497Y-11810261D01*
X27349500Y-11935928D01*
X27349500Y-26865638D01*
X27329815Y-26932677D01*
X27313181Y-26953319D01*
X27300538Y-26965961D01*
X27300535Y-26965965D01*
X27201990Y-27113446D01*
X27201983Y-27113459D01*
X27134106Y-27277332D01*
X27134103Y-27277341D01*
X27099500Y-27451304D01*
X25920500Y-27451304D01*
X25920500Y-9616976D01*
X25940185Y-9549937D01*
X25992989Y-9504182D01*
X26020135Y-9496736D01*
X26019932Y-9495876D01*
X26027479Y-9494092D01*
X26027481Y-9494091D01*
X26027483Y-9494091D01*
X26162331Y-9443796D01*
X26277546Y-9357546D01*
X26363796Y-9242331D01*
X26414091Y-9107483D01*
X26420500Y-9047873D01*
X26420499Y-7881902D01*
X33579500Y-7881902D01*
X33579500Y-8118097D01*
X33616446Y-8351368D01*
X33689433Y-8575996D01*
X33796657Y-8786433D01*
X33935483Y-8977510D01*
X34102490Y-9144517D01*
X34293567Y-9283343D01*
X34392991Y-9334002D01*
X34504003Y-9390566D01*
X34504005Y-9390566D01*
X34504008Y-9390568D01*
X34624412Y-9429689D01*
X34728631Y-9463553D01*
X34961903Y-9500500D01*
X34961908Y-9500500D01*
X35198097Y-9500500D01*
X35431368Y-9463553D01*
X35655992Y-9390568D01*
X35866433Y-9283343D01*
X36057510Y-9144517D01*
X36224517Y-8977510D01*
X36363343Y-8786433D01*
X36470568Y-8575992D01*
X36543553Y-8351368D01*
X36580500Y-8118097D01*
X36580500Y-7881902D01*
X36543553Y-7648631D01*
X36470566Y-7424003D01*
X36363342Y-7213566D01*
X36224517Y-7022490D01*
X36057510Y-6855483D01*
X35866433Y-6716657D01*
X35821560Y-6693793D01*
X35655996Y-6609433D01*
X35431368Y-6536446D01*
X35198097Y-6499500D01*
X35198092Y-6499500D01*
X34961908Y-6499500D01*
X34961903Y-6499500D01*
X34728631Y-6536446D01*
X34504003Y-6609433D01*
X34293566Y-6716657D01*
X34237119Y-6757669D01*
X34102490Y-6855483D01*
X34102488Y-6855485D01*
X34102487Y-6855485D01*
X33935485Y-7022487D01*
X33935485Y-7022488D01*
X33935483Y-7022490D01*
X33875862Y-7104550D01*
X33796657Y-7213566D01*
X33689433Y-7424003D01*
X33616446Y-7648631D01*
X33579500Y-7881902D01*
X26420499Y-7881902D01*
X26420499Y-6952128D01*
X26414091Y-6892517D01*
X26400278Y-6855483D01*
X26363797Y-6757671D01*
X26363793Y-6757664D01*
X26277547Y-6642455D01*
X26277544Y-6642452D01*
X26162335Y-6556206D01*
X26162328Y-6556202D01*
X26027482Y-6505908D01*
X26027483Y-6505908D01*
X25967883Y-6499501D01*
X25967881Y-6499500D01*
X25967873Y-6499500D01*
X25967864Y-6499500D01*
X23872129Y-6499500D01*
X23872123Y-6499501D01*
X23812516Y-6505908D01*
X23677671Y-6556202D01*
X23677664Y-6556206D01*
X23562455Y-6642452D01*
X23562452Y-6642455D01*
X23476206Y-6757664D01*
X23476202Y-6757671D01*
X23425908Y-6892517D01*
X23419501Y-6952116D01*
X23419501Y-6952123D01*
X23419500Y-6952135D01*
X23419500Y-9047870D01*
X23419501Y-9047876D01*
X23425908Y-9107483D01*
X23476202Y-9242328D01*
X23476206Y-9242335D01*
X23562452Y-9357544D01*
X23562455Y-9357547D01*
X23677664Y-9443793D01*
X23677671Y-9443797D01*
X23812517Y-9494091D01*
X23820062Y-9495874D01*
X23819523Y-9498151D01*
X23873287Y-9520408D01*
X23913147Y-9577793D01*
X23919500Y-9616975D01*
X23919500Y-41375500D01*
X23899815Y-41442539D01*
X23847011Y-41488294D01*
X23795500Y-41499500D01*
X16301457Y-41499500D01*
X16108170Y-41537947D01*
X16108160Y-41537950D01*
X15926092Y-41613364D01*
X15926079Y-41613371D01*
X15762218Y-41722860D01*
X15762214Y-41722863D01*
X15622863Y-41862214D01*
X15622860Y-41862218D01*
X15513371Y-42026079D01*
X15513364Y-42026092D01*
X15437950Y-42208160D01*
X15437947Y-42208170D01*
X15399500Y-42401456D01*
X15399500Y-42401459D01*
X15399500Y-42598541D01*
X15399500Y-42598543D01*
X15399499Y-42598543D01*
X500500Y-42598543D01*
X500500Y-24102135D01*
X3649500Y-24102135D01*
X3649500Y-25897870D01*
X3649501Y-25897876D01*
X3655908Y-25957483D01*
X3706202Y-26092328D01*
X3706206Y-26092335D01*
X3792452Y-26207544D01*
X3792455Y-26207547D01*
X3907664Y-26293793D01*
X3907671Y-26293797D01*
X4039082Y-26342810D01*
X4095016Y-26384681D01*
X4119433Y-26450145D01*
X4104582Y-26518418D01*
X4083431Y-26546673D01*
X3969889Y-26660215D01*
X3844951Y-26832179D01*
X3748444Y-27021585D01*
X3682753Y-27223760D01*
X3649500Y-27433713D01*
X3649500Y-27646286D01*
X3682753Y-27856239D01*
X3748444Y-28058414D01*
X3844951Y-28247820D01*
X3969890Y-28419786D01*
X4120213Y-28570109D01*
X4292179Y-28695048D01*
X4292181Y-28695049D01*
X4292184Y-28695051D01*
X4481588Y-28791557D01*
X4683757Y-28857246D01*
X4893713Y-28890500D01*
X4893714Y-28890500D01*
X5106286Y-28890500D01*
X5106287Y-28890500D01*
X5316243Y-28857246D01*
X5518412Y-28791557D01*
X5707816Y-28695051D01*
X5729789Y-28679086D01*
X5879786Y-28570109D01*
X5879788Y-28570106D01*
X5879792Y-28570104D01*
X6030104Y-28419792D01*
X6030106Y-28419788D01*
X6030109Y-28419786D01*
X6155048Y-28247820D01*
X6155047Y-28247820D01*
X6155051Y-28247816D01*
X6251557Y-28058412D01*
X6317246Y-27856243D01*
X6350500Y-27646287D01*
X6350500Y-27433713D01*
X6317246Y-27223757D01*
X6251557Y-27021588D01*
X6155051Y-26832184D01*
X6155049Y-26832181D01*
X6155048Y-26832179D01*
X6030109Y-26660213D01*
X5916569Y-26546673D01*
X5883084Y-26485350D01*
X5888068Y-26415658D01*
X5929940Y-26359725D01*
X5960915Y-26342810D01*
X6092331Y-26293796D01*
X6207546Y-26207546D01*
X6293796Y-26092331D01*
X6344091Y-25957483D01*
X6350500Y-25897873D01*
X6350499Y-24102128D01*
X6344091Y-24042517D01*
X6336621Y-24022490D01*
X6293797Y-23907671D01*
X6293793Y-23907664D01*
X6207547Y-23792455D01*
X6207544Y-23792452D01*
X6092335Y-23706206D01*
X6092328Y-23706202D01*
X5957482Y-23655908D01*
X5957483Y-23655908D01*
X5897883Y-23649501D01*
X5897881Y-23649500D01*
X5897873Y-23649500D01*
X5897864Y-23649500D01*
X4102129Y-23649500D01*
X4102123Y-23649501D01*
X4042516Y-23655908D01*
X3907671Y-23706202D01*
X3907664Y-23706206D01*
X3792455Y-23792452D01*
X3792452Y-23792455D01*
X3706206Y-23907664D01*
X3706202Y-23907671D01*
X3655908Y-24042517D01*
X3649501Y-24102116D01*
X3649501Y-24102123D01*
X3649500Y-24102135D01*
X500500Y-24102135D01*
X500500Y-6467236D01*
X520185Y-6400197D01*
X572989Y-6354442D01*
X642147Y-6344498D01*
X705703Y-6373523D01*
X740682Y-6423903D01*
X766202Y-6492328D01*
X766206Y-6492335D01*
X852452Y-6607544D01*
X852455Y-6607547D01*
X967664Y-6693793D01*
X967671Y-6693797D01*
X1102517Y-6744091D01*
X1102516Y-6744091D01*
X1109444Y-6744835D01*
X1162127Y-6750500D01*
X3757872Y-6750499D01*
X3817483Y-6744091D01*
X3952331Y-6693796D01*
X4067546Y-6607546D01*
X4153796Y-6492331D01*
X4204091Y-6357483D01*
X4210500Y-6297873D01*
X4210499Y-4885305D01*
X5790000Y-4885305D01*
X5790000Y-5114694D01*
X5790001Y-5114710D01*
X5819942Y-5342137D01*
X5879318Y-5563730D01*
X5967102Y-5775659D01*
X5967106Y-5775669D01*
X6081799Y-5974324D01*
X6081805Y-5974331D01*
X6138381Y-6048064D01*
X6975387Y-5211058D01*
X6980889Y-5231591D01*
X7059881Y-5368408D01*
X7171592Y-5480119D01*
X7308409Y-5559111D01*
X7328940Y-5564612D01*
X6491934Y-6401617D01*
X6491934Y-6401618D01*
X6565666Y-6458194D01*
X6764330Y-6572893D01*
X6764340Y-6572897D01*
X6976269Y-6660681D01*
X7197862Y-6720057D01*
X7425289Y-6749998D01*
X7425306Y-6750000D01*
X7654694Y-6750000D01*
X7654710Y-6749998D01*
X7882137Y-6720057D01*
X8103730Y-6660681D01*
X8315659Y-6572897D01*
X8315668Y-6572893D01*
X8514327Y-6458197D01*
X8514334Y-6458192D01*
X8588064Y-6401617D01*
X7751059Y-5564612D01*
X7771591Y-5559111D01*
X7908408Y-5480119D01*
X8020119Y-5368408D01*
X8099111Y-5231591D01*
X8104612Y-5211059D01*
X8941617Y-6048064D01*
X8998192Y-5974334D01*
X8998197Y-5974327D01*
X9112893Y-5775668D01*
X9112897Y-5775659D01*
X9200681Y-5563730D01*
X9260057Y-5342137D01*
X9289998Y-5114710D01*
X9290000Y-5114694D01*
X9290000Y-4885305D01*
X9289998Y-4885289D01*
X9260057Y-4657862D01*
X9200681Y-4436269D01*
X9112897Y-4224340D01*
X9112893Y-4224330D01*
X8998195Y-4025667D01*
X8997139Y-4024291D01*
X8997138Y-4024290D01*
X8941772Y-3952135D01*
X13999500Y-3952135D01*
X13999500Y-6047870D01*
X13999501Y-6047876D01*
X14005908Y-6107483D01*
X14056202Y-6242328D01*
X14056206Y-6242335D01*
X14142452Y-6357544D01*
X14142455Y-6357547D01*
X14257664Y-6443793D01*
X14257671Y-6443797D01*
X14392517Y-6494091D01*
X14392516Y-6494091D01*
X14399444Y-6494835D01*
X14452127Y-6500500D01*
X16547872Y-6500499D01*
X16607483Y-6494091D01*
X16742331Y-6443796D01*
X16857546Y-6357546D01*
X16943796Y-6242331D01*
X16994091Y-6107483D01*
X17000500Y-6047873D01*
X17000499Y-4881947D01*
X19000000Y-4881947D01*
X19000000Y-5118052D01*
X19036934Y-5351247D01*
X19109897Y-5575802D01*
X19217087Y-5786174D01*
X19277338Y-5869104D01*
X19277340Y-5869105D01*
X20100000Y-5046445D01*
X20100000Y-5052661D01*
X20127259Y-5154394D01*
X20179920Y-5245606D01*
X20254394Y-5320080D01*
X20345606Y-5372741D01*
X20447339Y-5400000D01*
X20453554Y-5400000D01*
X19630893Y-6222658D01*
X19713828Y-6282914D01*
X19924197Y-6390102D01*
X20148752Y-6463065D01*
X20148751Y-6463065D01*
X20381948Y-6500000D01*
X20618052Y-6500000D01*
X20851247Y-6463065D01*
X21075802Y-6390102D01*
X21286163Y-6282918D01*
X21286169Y-6282914D01*
X21369104Y-6222658D01*
X21369105Y-6222658D01*
X20546446Y-5400000D01*
X20552661Y-5400000D01*
X20654394Y-5372741D01*
X20745606Y-5320080D01*
X20820080Y-5245606D01*
X20872741Y-5154394D01*
X20900000Y-5052661D01*
X20900000Y-5046447D01*
X21722658Y-5869105D01*
X21722658Y-5869104D01*
X21782914Y-5786169D01*
X21782918Y-5786163D01*
X21890102Y-5575802D01*
X21963065Y-5351247D01*
X22000000Y-5118052D01*
X22000000Y-4881947D01*
X21963065Y-4648752D01*
X21890102Y-4424197D01*
X21782914Y-4213828D01*
X21722658Y-4130894D01*
X21722658Y-4130893D01*
X20900000Y-4953552D01*
X20900000Y-4947339D01*
X20872741Y-4845606D01*
X20820080Y-4754394D01*
X20745606Y-4679920D01*
X20654394Y-4627259D01*
X20552661Y-4600000D01*
X20546447Y-4600000D01*
X21369105Y-3777340D01*
X21369104Y-3777338D01*
X21286174Y-3717087D01*
X21075802Y-3609897D01*
X20851247Y-3536934D01*
X20851248Y-3536934D01*
X20618052Y-3500000D01*
X20381948Y-3500000D01*
X20148752Y-3536934D01*
X19924197Y-3609897D01*
X19713830Y-3717084D01*
X19630894Y-3777340D01*
X20453554Y-4600000D01*
X20447339Y-4600000D01*
X20345606Y-4627259D01*
X20254394Y-4679920D01*
X20179920Y-4754394D01*
X20127259Y-4845606D01*
X20100000Y-4947339D01*
X20100000Y-4953554D01*
X19277340Y-4130894D01*
X19217084Y-4213830D01*
X19109897Y-4424197D01*
X19036934Y-4648752D01*
X19000000Y-4881947D01*
X17000499Y-4881947D01*
X17000499Y-3952128D01*
X16994091Y-3892517D01*
X16994090Y-3892514D01*
X16984922Y-3867931D01*
X16943797Y-3757671D01*
X16943793Y-3757664D01*
X16857547Y-3642455D01*
X16857544Y-3642452D01*
X16742335Y-3556206D01*
X16742328Y-3556202D01*
X16607482Y-3505908D01*
X16607483Y-3505908D01*
X16547883Y-3499501D01*
X16547881Y-3499500D01*
X16547873Y-3499500D01*
X16547864Y-3499500D01*
X14452129Y-3499500D01*
X14452123Y-3499501D01*
X14392516Y-3505908D01*
X14257671Y-3556202D01*
X14257664Y-3556206D01*
X14142455Y-3642452D01*
X14142452Y-3642455D01*
X14056206Y-3757664D01*
X14056202Y-3757671D01*
X14005908Y-3892517D01*
X13999521Y-3951934D01*
X13999501Y-3952123D01*
X13999500Y-3952135D01*
X8941772Y-3952135D01*
X8941618Y-3951934D01*
X8941617Y-3951934D01*
X8104612Y-4788939D01*
X8099111Y-4768409D01*
X8020119Y-4631592D01*
X7908408Y-4519881D01*
X7771591Y-4440889D01*
X7751057Y-4435387D01*
X8588064Y-3598381D01*
X8588064Y-3598380D01*
X8514331Y-3541805D01*
X8514324Y-3541799D01*
X8315669Y-3427106D01*
X8315659Y-3427102D01*
X8103730Y-3339318D01*
X7882137Y-3279942D01*
X7654710Y-3250001D01*
X7654694Y-3250000D01*
X7425306Y-3250000D01*
X7425289Y-3250001D01*
X7197862Y-3279942D01*
X6976269Y-3339318D01*
X6764340Y-3427102D01*
X6764330Y-3427106D01*
X6565673Y-3541801D01*
X6565659Y-3541810D01*
X6491934Y-3598380D01*
X7328940Y-4435387D01*
X7308409Y-4440889D01*
X7171592Y-4519881D01*
X7059881Y-4631592D01*
X6980889Y-4768409D01*
X6975387Y-4788940D01*
X6138380Y-3951934D01*
X6081810Y-4025659D01*
X6081801Y-4025673D01*
X5967106Y-4224330D01*
X5967102Y-4224340D01*
X5879318Y-4436269D01*
X5819942Y-4657862D01*
X5790001Y-4885289D01*
X5790000Y-4885305D01*
X4210499Y-4885305D01*
X4210499Y-3702128D01*
X4204091Y-3642517D01*
X4187629Y-3598381D01*
X4153797Y-3507671D01*
X4153793Y-3507664D01*
X4067547Y-3392455D01*
X4067544Y-3392452D01*
X3952335Y-3306206D01*
X3952328Y-3306202D01*
X3817482Y-3255908D01*
X3817483Y-3255908D01*
X3757883Y-3249501D01*
X3757881Y-3249500D01*
X3757873Y-3249500D01*
X3757864Y-3249500D01*
X1162129Y-3249500D01*
X1162123Y-3249501D01*
X1102516Y-3255908D01*
X967671Y-3306202D01*
X967664Y-3306206D01*
X852455Y-3392452D01*
X852452Y-3392455D01*
X766206Y-3507664D01*
X766202Y-3507671D01*
X740682Y-3576096D01*
X698811Y-3632030D01*
X633347Y-3656447D01*
X565074Y-3641595D01*
X515668Y-3592190D01*
X500500Y-3532763D01*
X500500Y-624500D01*
X520185Y-557461D01*
X572989Y-511706D01*
X624500Y-500500D01*
X79375500Y-500500D01*
X79442539Y-520185D01*
G37*
%TD.AperFunction*%
%TD*%
M02*
