%TF.GenerationSoftware,KiCad,Pcbnew,10.0.4*%
%TF.CreationDate,2026-06-29T19:01:09+05:30*%
%TF.ProjectId,rf_pa_300w,72665f70-615f-4333-9030-772e6b696361,1.0*%
%TF.SameCoordinates,Original*%
%TF.FileFunction,Legend,Top*%
%TF.FilePolarity,Positive*%
%FSLAX46Y46*%
G04 Gerber Fmt 4.6, Leading zero omitted, Abs format (unit mm)*
G04 Created by KiCad (PCBNEW 10.0.4) date 2026-06-29 19:01:09*
%MOMM*%
%LPD*%
G01*
G04 APERTURE LIST*
%ADD10C,0.150000*%
%ADD11C,0.120000*%
G04 APERTURE END LIST*
D10*
X33238094Y-48454819D02*
X33238094Y-47454819D01*
X33238094Y-47931009D02*
X33809522Y-47931009D01*
X33809522Y-48454819D02*
X33809522Y-47454819D01*
X34714284Y-48454819D02*
X34714284Y-47931009D01*
X34714284Y-47931009D02*
X34666665Y-47835771D01*
X34666665Y-47835771D02*
X34571427Y-47788152D01*
X34571427Y-47788152D02*
X34380951Y-47788152D01*
X34380951Y-47788152D02*
X34285713Y-47835771D01*
X34714284Y-48407200D02*
X34619046Y-48454819D01*
X34619046Y-48454819D02*
X34380951Y-48454819D01*
X34380951Y-48454819D02*
X34285713Y-48407200D01*
X34285713Y-48407200D02*
X34238094Y-48311961D01*
X34238094Y-48311961D02*
X34238094Y-48216723D01*
X34238094Y-48216723D02*
X34285713Y-48121485D01*
X34285713Y-48121485D02*
X34380951Y-48073866D01*
X34380951Y-48073866D02*
X34619046Y-48073866D01*
X34619046Y-48073866D02*
X34714284Y-48026247D01*
X35619046Y-48407200D02*
X35523808Y-48454819D01*
X35523808Y-48454819D02*
X35333332Y-48454819D01*
X35333332Y-48454819D02*
X35238094Y-48407200D01*
X35238094Y-48407200D02*
X35190475Y-48359580D01*
X35190475Y-48359580D02*
X35142856Y-48264342D01*
X35142856Y-48264342D02*
X35142856Y-47978628D01*
X35142856Y-47978628D02*
X35190475Y-47883390D01*
X35190475Y-47883390D02*
X35238094Y-47835771D01*
X35238094Y-47835771D02*
X35333332Y-47788152D01*
X35333332Y-47788152D02*
X35523808Y-47788152D01*
X35523808Y-47788152D02*
X35619046Y-47835771D01*
X36047618Y-48454819D02*
X36047618Y-47454819D01*
X36142856Y-48073866D02*
X36428570Y-48454819D01*
X36428570Y-47788152D02*
X36047618Y-48169104D01*
X37238094Y-48407200D02*
X37142856Y-48454819D01*
X37142856Y-48454819D02*
X36952380Y-48454819D01*
X36952380Y-48454819D02*
X36857142Y-48407200D01*
X36857142Y-48407200D02*
X36809523Y-48311961D01*
X36809523Y-48311961D02*
X36809523Y-47931009D01*
X36809523Y-47931009D02*
X36857142Y-47835771D01*
X36857142Y-47835771D02*
X36952380Y-47788152D01*
X36952380Y-47788152D02*
X37142856Y-47788152D01*
X37142856Y-47788152D02*
X37238094Y-47835771D01*
X37238094Y-47835771D02*
X37285713Y-47931009D01*
X37285713Y-47931009D02*
X37285713Y-48026247D01*
X37285713Y-48026247D02*
X36809523Y-48121485D01*
X37714285Y-48454819D02*
X37714285Y-47788152D01*
X37714285Y-47978628D02*
X37761904Y-47883390D01*
X37761904Y-47883390D02*
X37809523Y-47835771D01*
X37809523Y-47835771D02*
X37904761Y-47788152D01*
X37904761Y-47788152D02*
X37999999Y-47788152D01*
X38190476Y-47788152D02*
X38571428Y-47788152D01*
X38333333Y-48454819D02*
X38333333Y-47597676D01*
X38333333Y-47597676D02*
X38380952Y-47502438D01*
X38380952Y-47502438D02*
X38476190Y-47454819D01*
X38476190Y-47454819D02*
X38571428Y-47454819D01*
X39333333Y-48454819D02*
X39333333Y-47931009D01*
X39333333Y-47931009D02*
X39285714Y-47835771D01*
X39285714Y-47835771D02*
X39190476Y-47788152D01*
X39190476Y-47788152D02*
X39000000Y-47788152D01*
X39000000Y-47788152D02*
X38904762Y-47835771D01*
X39333333Y-48407200D02*
X39238095Y-48454819D01*
X39238095Y-48454819D02*
X39000000Y-48454819D01*
X39000000Y-48454819D02*
X38904762Y-48407200D01*
X38904762Y-48407200D02*
X38857143Y-48311961D01*
X38857143Y-48311961D02*
X38857143Y-48216723D01*
X38857143Y-48216723D02*
X38904762Y-48121485D01*
X38904762Y-48121485D02*
X39000000Y-48073866D01*
X39000000Y-48073866D02*
X39238095Y-48073866D01*
X39238095Y-48073866D02*
X39333333Y-48026247D01*
X39809524Y-48454819D02*
X39809524Y-47454819D01*
X39809524Y-47835771D02*
X39904762Y-47788152D01*
X39904762Y-47788152D02*
X40095238Y-47788152D01*
X40095238Y-47788152D02*
X40190476Y-47835771D01*
X40190476Y-47835771D02*
X40238095Y-47883390D01*
X40238095Y-47883390D02*
X40285714Y-47978628D01*
X40285714Y-47978628D02*
X40285714Y-48264342D01*
X40285714Y-48264342D02*
X40238095Y-48359580D01*
X40238095Y-48359580D02*
X40190476Y-48407200D01*
X40190476Y-48407200D02*
X40095238Y-48454819D01*
X40095238Y-48454819D02*
X39904762Y-48454819D01*
X39904762Y-48454819D02*
X39809524Y-48407200D01*
X42047619Y-48454819D02*
X41714286Y-47978628D01*
X41476191Y-48454819D02*
X41476191Y-47454819D01*
X41476191Y-47454819D02*
X41857143Y-47454819D01*
X41857143Y-47454819D02*
X41952381Y-47502438D01*
X41952381Y-47502438D02*
X42000000Y-47550057D01*
X42000000Y-47550057D02*
X42047619Y-47645295D01*
X42047619Y-47645295D02*
X42047619Y-47788152D01*
X42047619Y-47788152D02*
X42000000Y-47883390D01*
X42000000Y-47883390D02*
X41952381Y-47931009D01*
X41952381Y-47931009D02*
X41857143Y-47978628D01*
X41857143Y-47978628D02*
X41476191Y-47978628D01*
X42857143Y-48407200D02*
X42761905Y-48454819D01*
X42761905Y-48454819D02*
X42571429Y-48454819D01*
X42571429Y-48454819D02*
X42476191Y-48407200D01*
X42476191Y-48407200D02*
X42428572Y-48311961D01*
X42428572Y-48311961D02*
X42428572Y-47931009D01*
X42428572Y-47931009D02*
X42476191Y-47835771D01*
X42476191Y-47835771D02*
X42571429Y-47788152D01*
X42571429Y-47788152D02*
X42761905Y-47788152D01*
X42761905Y-47788152D02*
X42857143Y-47835771D01*
X42857143Y-47835771D02*
X42904762Y-47931009D01*
X42904762Y-47931009D02*
X42904762Y-48026247D01*
X42904762Y-48026247D02*
X42428572Y-48121485D01*
X43238096Y-47788152D02*
X43476191Y-48454819D01*
X43476191Y-48454819D02*
X43714286Y-47788152D01*
X45380953Y-48454819D02*
X44809525Y-48454819D01*
X45095239Y-48454819D02*
X45095239Y-47454819D01*
X45095239Y-47454819D02*
X45000001Y-47597676D01*
X45000001Y-47597676D02*
X44904763Y-47692914D01*
X44904763Y-47692914D02*
X44809525Y-47740533D01*
X45809525Y-48359580D02*
X45857144Y-48407200D01*
X45857144Y-48407200D02*
X45809525Y-48454819D01*
X45809525Y-48454819D02*
X45761906Y-48407200D01*
X45761906Y-48407200D02*
X45809525Y-48359580D01*
X45809525Y-48359580D02*
X45809525Y-48454819D01*
X46476191Y-47454819D02*
X46571429Y-47454819D01*
X46571429Y-47454819D02*
X46666667Y-47502438D01*
X46666667Y-47502438D02*
X46714286Y-47550057D01*
X46714286Y-47550057D02*
X46761905Y-47645295D01*
X46761905Y-47645295D02*
X46809524Y-47835771D01*
X46809524Y-47835771D02*
X46809524Y-48073866D01*
X46809524Y-48073866D02*
X46761905Y-48264342D01*
X46761905Y-48264342D02*
X46714286Y-48359580D01*
X46714286Y-48359580D02*
X46666667Y-48407200D01*
X46666667Y-48407200D02*
X46571429Y-48454819D01*
X46571429Y-48454819D02*
X46476191Y-48454819D01*
X46476191Y-48454819D02*
X46380953Y-48407200D01*
X46380953Y-48407200D02*
X46333334Y-48359580D01*
X46333334Y-48359580D02*
X46285715Y-48264342D01*
X46285715Y-48264342D02*
X46238096Y-48073866D01*
X46238096Y-48073866D02*
X46238096Y-47835771D01*
X46238096Y-47835771D02*
X46285715Y-47645295D01*
X46285715Y-47645295D02*
X46333334Y-47550057D01*
X46333334Y-47550057D02*
X46380953Y-47502438D01*
X46380953Y-47502438D02*
X46476191Y-47454819D01*
X21964286Y-1186128D02*
X22892858Y-1186128D01*
X22892858Y-1186128D02*
X22392858Y-1757557D01*
X22392858Y-1757557D02*
X22607143Y-1757557D01*
X22607143Y-1757557D02*
X22750001Y-1828985D01*
X22750001Y-1828985D02*
X22821429Y-1900414D01*
X22821429Y-1900414D02*
X22892858Y-2043271D01*
X22892858Y-2043271D02*
X22892858Y-2400414D01*
X22892858Y-2400414D02*
X22821429Y-2543271D01*
X22821429Y-2543271D02*
X22750001Y-2614700D01*
X22750001Y-2614700D02*
X22607143Y-2686128D01*
X22607143Y-2686128D02*
X22178572Y-2686128D01*
X22178572Y-2686128D02*
X22035715Y-2614700D01*
X22035715Y-2614700D02*
X21964286Y-2543271D01*
X23821429Y-1186128D02*
X23964286Y-1186128D01*
X23964286Y-1186128D02*
X24107143Y-1257557D01*
X24107143Y-1257557D02*
X24178572Y-1328985D01*
X24178572Y-1328985D02*
X24250000Y-1471842D01*
X24250000Y-1471842D02*
X24321429Y-1757557D01*
X24321429Y-1757557D02*
X24321429Y-2114700D01*
X24321429Y-2114700D02*
X24250000Y-2400414D01*
X24250000Y-2400414D02*
X24178572Y-2543271D01*
X24178572Y-2543271D02*
X24107143Y-2614700D01*
X24107143Y-2614700D02*
X23964286Y-2686128D01*
X23964286Y-2686128D02*
X23821429Y-2686128D01*
X23821429Y-2686128D02*
X23678572Y-2614700D01*
X23678572Y-2614700D02*
X23607143Y-2543271D01*
X23607143Y-2543271D02*
X23535714Y-2400414D01*
X23535714Y-2400414D02*
X23464286Y-2114700D01*
X23464286Y-2114700D02*
X23464286Y-1757557D01*
X23464286Y-1757557D02*
X23535714Y-1471842D01*
X23535714Y-1471842D02*
X23607143Y-1328985D01*
X23607143Y-1328985D02*
X23678572Y-1257557D01*
X23678572Y-1257557D02*
X23821429Y-1186128D01*
X25250000Y-1186128D02*
X25392857Y-1186128D01*
X25392857Y-1186128D02*
X25535714Y-1257557D01*
X25535714Y-1257557D02*
X25607143Y-1328985D01*
X25607143Y-1328985D02*
X25678571Y-1471842D01*
X25678571Y-1471842D02*
X25750000Y-1757557D01*
X25750000Y-1757557D02*
X25750000Y-2114700D01*
X25750000Y-2114700D02*
X25678571Y-2400414D01*
X25678571Y-2400414D02*
X25607143Y-2543271D01*
X25607143Y-2543271D02*
X25535714Y-2614700D01*
X25535714Y-2614700D02*
X25392857Y-2686128D01*
X25392857Y-2686128D02*
X25250000Y-2686128D01*
X25250000Y-2686128D02*
X25107143Y-2614700D01*
X25107143Y-2614700D02*
X25035714Y-2543271D01*
X25035714Y-2543271D02*
X24964285Y-2400414D01*
X24964285Y-2400414D02*
X24892857Y-2114700D01*
X24892857Y-2114700D02*
X24892857Y-1757557D01*
X24892857Y-1757557D02*
X24964285Y-1471842D01*
X24964285Y-1471842D02*
X25035714Y-1328985D01*
X25035714Y-1328985D02*
X25107143Y-1257557D01*
X25107143Y-1257557D02*
X25250000Y-1186128D01*
X26249999Y-1186128D02*
X26607142Y-2686128D01*
X26607142Y-2686128D02*
X26892856Y-1614700D01*
X26892856Y-1614700D02*
X27178571Y-2686128D01*
X27178571Y-2686128D02*
X27535714Y-1186128D01*
X30035714Y-2686128D02*
X29178571Y-2686128D01*
X29607142Y-2686128D02*
X29607142Y-1186128D01*
X29607142Y-1186128D02*
X29464285Y-1400414D01*
X29464285Y-1400414D02*
X29321428Y-1543271D01*
X29321428Y-1543271D02*
X29178571Y-1614700D01*
X30535713Y-1186128D02*
X31464285Y-1186128D01*
X31464285Y-1186128D02*
X30964285Y-1757557D01*
X30964285Y-1757557D02*
X31178570Y-1757557D01*
X31178570Y-1757557D02*
X31321428Y-1828985D01*
X31321428Y-1828985D02*
X31392856Y-1900414D01*
X31392856Y-1900414D02*
X31464285Y-2043271D01*
X31464285Y-2043271D02*
X31464285Y-2400414D01*
X31464285Y-2400414D02*
X31392856Y-2543271D01*
X31392856Y-2543271D02*
X31321428Y-2614700D01*
X31321428Y-2614700D02*
X31178570Y-2686128D01*
X31178570Y-2686128D02*
X30749999Y-2686128D01*
X30749999Y-2686128D02*
X30607142Y-2614700D01*
X30607142Y-2614700D02*
X30535713Y-2543271D01*
X32107141Y-2543271D02*
X32178570Y-2614700D01*
X32178570Y-2614700D02*
X32107141Y-2686128D01*
X32107141Y-2686128D02*
X32035713Y-2614700D01*
X32035713Y-2614700D02*
X32107141Y-2543271D01*
X32107141Y-2543271D02*
X32107141Y-2686128D01*
X33535713Y-1186128D02*
X32821427Y-1186128D01*
X32821427Y-1186128D02*
X32749999Y-1900414D01*
X32749999Y-1900414D02*
X32821427Y-1828985D01*
X32821427Y-1828985D02*
X32964285Y-1757557D01*
X32964285Y-1757557D02*
X33321427Y-1757557D01*
X33321427Y-1757557D02*
X33464285Y-1828985D01*
X33464285Y-1828985D02*
X33535713Y-1900414D01*
X33535713Y-1900414D02*
X33607142Y-2043271D01*
X33607142Y-2043271D02*
X33607142Y-2400414D01*
X33607142Y-2400414D02*
X33535713Y-2543271D01*
X33535713Y-2543271D02*
X33464285Y-2614700D01*
X33464285Y-2614700D02*
X33321427Y-2686128D01*
X33321427Y-2686128D02*
X32964285Y-2686128D01*
X32964285Y-2686128D02*
X32821427Y-2614700D01*
X32821427Y-2614700D02*
X32749999Y-2543271D01*
X34892856Y-1186128D02*
X34607141Y-1186128D01*
X34607141Y-1186128D02*
X34464284Y-1257557D01*
X34464284Y-1257557D02*
X34392856Y-1328985D01*
X34392856Y-1328985D02*
X34249998Y-1543271D01*
X34249998Y-1543271D02*
X34178570Y-1828985D01*
X34178570Y-1828985D02*
X34178570Y-2400414D01*
X34178570Y-2400414D02*
X34249998Y-2543271D01*
X34249998Y-2543271D02*
X34321427Y-2614700D01*
X34321427Y-2614700D02*
X34464284Y-2686128D01*
X34464284Y-2686128D02*
X34749998Y-2686128D01*
X34749998Y-2686128D02*
X34892856Y-2614700D01*
X34892856Y-2614700D02*
X34964284Y-2543271D01*
X34964284Y-2543271D02*
X35035713Y-2400414D01*
X35035713Y-2400414D02*
X35035713Y-2043271D01*
X35035713Y-2043271D02*
X34964284Y-1900414D01*
X34964284Y-1900414D02*
X34892856Y-1828985D01*
X34892856Y-1828985D02*
X34749998Y-1757557D01*
X34749998Y-1757557D02*
X34464284Y-1757557D01*
X34464284Y-1757557D02*
X34321427Y-1828985D01*
X34321427Y-1828985D02*
X34249998Y-1900414D01*
X34249998Y-1900414D02*
X34178570Y-2043271D01*
X35678569Y-2686128D02*
X35678569Y-1186128D01*
X35678569Y-1186128D02*
X36178569Y-2257557D01*
X36178569Y-2257557D02*
X36678569Y-1186128D01*
X36678569Y-1186128D02*
X36678569Y-2686128D01*
X37392855Y-2686128D02*
X37392855Y-1186128D01*
X37392855Y-1900414D02*
X38249998Y-1900414D01*
X38249998Y-2686128D02*
X38249998Y-1186128D01*
X38821427Y-1686128D02*
X39607142Y-1686128D01*
X39607142Y-1686128D02*
X38821427Y-2686128D01*
X38821427Y-2686128D02*
X39607142Y-2686128D01*
X42178570Y-2543271D02*
X42107142Y-2614700D01*
X42107142Y-2614700D02*
X41892856Y-2686128D01*
X41892856Y-2686128D02*
X41749999Y-2686128D01*
X41749999Y-2686128D02*
X41535713Y-2614700D01*
X41535713Y-2614700D02*
X41392856Y-2471842D01*
X41392856Y-2471842D02*
X41321427Y-2328985D01*
X41321427Y-2328985D02*
X41249999Y-2043271D01*
X41249999Y-2043271D02*
X41249999Y-1828985D01*
X41249999Y-1828985D02*
X41321427Y-1543271D01*
X41321427Y-1543271D02*
X41392856Y-1400414D01*
X41392856Y-1400414D02*
X41535713Y-1257557D01*
X41535713Y-1257557D02*
X41749999Y-1186128D01*
X41749999Y-1186128D02*
X41892856Y-1186128D01*
X41892856Y-1186128D02*
X42107142Y-1257557D01*
X42107142Y-1257557D02*
X42178570Y-1328985D01*
X43035713Y-2686128D02*
X42892856Y-2614700D01*
X42892856Y-2614700D02*
X42821427Y-2471842D01*
X42821427Y-2471842D02*
X42821427Y-1186128D01*
X44249999Y-2686128D02*
X44249999Y-1900414D01*
X44249999Y-1900414D02*
X44178570Y-1757557D01*
X44178570Y-1757557D02*
X44035713Y-1686128D01*
X44035713Y-1686128D02*
X43749999Y-1686128D01*
X43749999Y-1686128D02*
X43607141Y-1757557D01*
X44249999Y-2614700D02*
X44107141Y-2686128D01*
X44107141Y-2686128D02*
X43749999Y-2686128D01*
X43749999Y-2686128D02*
X43607141Y-2614700D01*
X43607141Y-2614700D02*
X43535713Y-2471842D01*
X43535713Y-2471842D02*
X43535713Y-2328985D01*
X43535713Y-2328985D02*
X43607141Y-2186128D01*
X43607141Y-2186128D02*
X43749999Y-2114700D01*
X43749999Y-2114700D02*
X44107141Y-2114700D01*
X44107141Y-2114700D02*
X44249999Y-2043271D01*
X44892856Y-2614700D02*
X45035713Y-2686128D01*
X45035713Y-2686128D02*
X45321427Y-2686128D01*
X45321427Y-2686128D02*
X45464284Y-2614700D01*
X45464284Y-2614700D02*
X45535713Y-2471842D01*
X45535713Y-2471842D02*
X45535713Y-2400414D01*
X45535713Y-2400414D02*
X45464284Y-2257557D01*
X45464284Y-2257557D02*
X45321427Y-2186128D01*
X45321427Y-2186128D02*
X45107142Y-2186128D01*
X45107142Y-2186128D02*
X44964284Y-2114700D01*
X44964284Y-2114700D02*
X44892856Y-1971842D01*
X44892856Y-1971842D02*
X44892856Y-1900414D01*
X44892856Y-1900414D02*
X44964284Y-1757557D01*
X44964284Y-1757557D02*
X45107142Y-1686128D01*
X45107142Y-1686128D02*
X45321427Y-1686128D01*
X45321427Y-1686128D02*
X45464284Y-1757557D01*
X46107142Y-2614700D02*
X46249999Y-2686128D01*
X46249999Y-2686128D02*
X46535713Y-2686128D01*
X46535713Y-2686128D02*
X46678570Y-2614700D01*
X46678570Y-2614700D02*
X46749999Y-2471842D01*
X46749999Y-2471842D02*
X46749999Y-2400414D01*
X46749999Y-2400414D02*
X46678570Y-2257557D01*
X46678570Y-2257557D02*
X46535713Y-2186128D01*
X46535713Y-2186128D02*
X46321428Y-2186128D01*
X46321428Y-2186128D02*
X46178570Y-2114700D01*
X46178570Y-2114700D02*
X46107142Y-1971842D01*
X46107142Y-1971842D02*
X46107142Y-1900414D01*
X46107142Y-1900414D02*
X46178570Y-1757557D01*
X46178570Y-1757557D02*
X46321428Y-1686128D01*
X46321428Y-1686128D02*
X46535713Y-1686128D01*
X46535713Y-1686128D02*
X46678570Y-1757557D01*
X47392856Y-2114700D02*
X48535714Y-2114700D01*
X49249999Y-2686128D02*
X49249999Y-1186128D01*
X49249999Y-1186128D02*
X49607142Y-1186128D01*
X49607142Y-1186128D02*
X49821428Y-1257557D01*
X49821428Y-1257557D02*
X49964285Y-1400414D01*
X49964285Y-1400414D02*
X50035714Y-1543271D01*
X50035714Y-1543271D02*
X50107142Y-1828985D01*
X50107142Y-1828985D02*
X50107142Y-2043271D01*
X50107142Y-2043271D02*
X50035714Y-2328985D01*
X50035714Y-2328985D02*
X49964285Y-2471842D01*
X49964285Y-2471842D02*
X49821428Y-2614700D01*
X49821428Y-2614700D02*
X49607142Y-2686128D01*
X49607142Y-2686128D02*
X49249999Y-2686128D01*
X52749999Y-2686128D02*
X52249999Y-1971842D01*
X51892856Y-2686128D02*
X51892856Y-1186128D01*
X51892856Y-1186128D02*
X52464285Y-1186128D01*
X52464285Y-1186128D02*
X52607142Y-1257557D01*
X52607142Y-1257557D02*
X52678571Y-1328985D01*
X52678571Y-1328985D02*
X52749999Y-1471842D01*
X52749999Y-1471842D02*
X52749999Y-1686128D01*
X52749999Y-1686128D02*
X52678571Y-1828985D01*
X52678571Y-1828985D02*
X52607142Y-1900414D01*
X52607142Y-1900414D02*
X52464285Y-1971842D01*
X52464285Y-1971842D02*
X51892856Y-1971842D01*
X53892856Y-1900414D02*
X53392856Y-1900414D01*
X53392856Y-2686128D02*
X53392856Y-1186128D01*
X53392856Y-1186128D02*
X54107142Y-1186128D01*
X55821427Y-2686128D02*
X55821427Y-1186128D01*
X55821427Y-1186128D02*
X56392856Y-1186128D01*
X56392856Y-1186128D02*
X56535713Y-1257557D01*
X56535713Y-1257557D02*
X56607142Y-1328985D01*
X56607142Y-1328985D02*
X56678570Y-1471842D01*
X56678570Y-1471842D02*
X56678570Y-1686128D01*
X56678570Y-1686128D02*
X56607142Y-1828985D01*
X56607142Y-1828985D02*
X56535713Y-1900414D01*
X56535713Y-1900414D02*
X56392856Y-1971842D01*
X56392856Y-1971842D02*
X55821427Y-1971842D01*
X57249999Y-2257557D02*
X57964285Y-2257557D01*
X57107142Y-2686128D02*
X57607142Y-1186128D01*
X57607142Y-1186128D02*
X58107142Y-2686128D01*
X64833333Y-27454819D02*
X64500000Y-26978628D01*
X64261905Y-27454819D02*
X64261905Y-26454819D01*
X64261905Y-26454819D02*
X64642857Y-26454819D01*
X64642857Y-26454819D02*
X64738095Y-26502438D01*
X64738095Y-26502438D02*
X64785714Y-26550057D01*
X64785714Y-26550057D02*
X64833333Y-26645295D01*
X64833333Y-26645295D02*
X64833333Y-26788152D01*
X64833333Y-26788152D02*
X64785714Y-26883390D01*
X64785714Y-26883390D02*
X64738095Y-26931009D01*
X64738095Y-26931009D02*
X64642857Y-26978628D01*
X64642857Y-26978628D02*
X64261905Y-26978628D01*
X65166667Y-26454819D02*
X65785714Y-26454819D01*
X65785714Y-26454819D02*
X65452381Y-26835771D01*
X65452381Y-26835771D02*
X65595238Y-26835771D01*
X65595238Y-26835771D02*
X65690476Y-26883390D01*
X65690476Y-26883390D02*
X65738095Y-26931009D01*
X65738095Y-26931009D02*
X65785714Y-27026247D01*
X65785714Y-27026247D02*
X65785714Y-27264342D01*
X65785714Y-27264342D02*
X65738095Y-27359580D01*
X65738095Y-27359580D02*
X65690476Y-27407200D01*
X65690476Y-27407200D02*
X65595238Y-27454819D01*
X65595238Y-27454819D02*
X65309524Y-27454819D01*
X65309524Y-27454819D02*
X65214286Y-27407200D01*
X65214286Y-27407200D02*
X65166667Y-27359580D01*
X64833333Y-12454819D02*
X64357143Y-12454819D01*
X64357143Y-12454819D02*
X64357143Y-11454819D01*
X65690476Y-12454819D02*
X65119048Y-12454819D01*
X65404762Y-12454819D02*
X65404762Y-11454819D01*
X65404762Y-11454819D02*
X65309524Y-11597676D01*
X65309524Y-11597676D02*
X65214286Y-11692914D01*
X65214286Y-11692914D02*
X65119048Y-11740533D01*
X29833333Y-12359580D02*
X29785714Y-12407200D01*
X29785714Y-12407200D02*
X29642857Y-12454819D01*
X29642857Y-12454819D02*
X29547619Y-12454819D01*
X29547619Y-12454819D02*
X29404762Y-12407200D01*
X29404762Y-12407200D02*
X29309524Y-12311961D01*
X29309524Y-12311961D02*
X29261905Y-12216723D01*
X29261905Y-12216723D02*
X29214286Y-12026247D01*
X29214286Y-12026247D02*
X29214286Y-11883390D01*
X29214286Y-11883390D02*
X29261905Y-11692914D01*
X29261905Y-11692914D02*
X29309524Y-11597676D01*
X29309524Y-11597676D02*
X29404762Y-11502438D01*
X29404762Y-11502438D02*
X29547619Y-11454819D01*
X29547619Y-11454819D02*
X29642857Y-11454819D01*
X29642857Y-11454819D02*
X29785714Y-11502438D01*
X29785714Y-11502438D02*
X29833333Y-11550057D01*
X30690476Y-11788152D02*
X30690476Y-12454819D01*
X30452381Y-11407200D02*
X30214286Y-12121485D01*
X30214286Y-12121485D02*
X30833333Y-12121485D01*
X29261905Y-5454819D02*
X29261905Y-4454819D01*
X29261905Y-4454819D02*
X29500000Y-4454819D01*
X29500000Y-4454819D02*
X29642857Y-4502438D01*
X29642857Y-4502438D02*
X29738095Y-4597676D01*
X29738095Y-4597676D02*
X29785714Y-4692914D01*
X29785714Y-4692914D02*
X29833333Y-4883390D01*
X29833333Y-4883390D02*
X29833333Y-5026247D01*
X29833333Y-5026247D02*
X29785714Y-5216723D01*
X29785714Y-5216723D02*
X29738095Y-5311961D01*
X29738095Y-5311961D02*
X29642857Y-5407200D01*
X29642857Y-5407200D02*
X29500000Y-5454819D01*
X29500000Y-5454819D02*
X29261905Y-5454819D01*
X30785714Y-5454819D02*
X30214286Y-5454819D01*
X30500000Y-5454819D02*
X30500000Y-4454819D01*
X30500000Y-4454819D02*
X30404762Y-4597676D01*
X30404762Y-4597676D02*
X30309524Y-4692914D01*
X30309524Y-4692914D02*
X30214286Y-4740533D01*
X17833333Y-9359580D02*
X17785714Y-9407200D01*
X17785714Y-9407200D02*
X17642857Y-9454819D01*
X17642857Y-9454819D02*
X17547619Y-9454819D01*
X17547619Y-9454819D02*
X17404762Y-9407200D01*
X17404762Y-9407200D02*
X17309524Y-9311961D01*
X17309524Y-9311961D02*
X17261905Y-9216723D01*
X17261905Y-9216723D02*
X17214286Y-9026247D01*
X17214286Y-9026247D02*
X17214286Y-8883390D01*
X17214286Y-8883390D02*
X17261905Y-8692914D01*
X17261905Y-8692914D02*
X17309524Y-8597676D01*
X17309524Y-8597676D02*
X17404762Y-8502438D01*
X17404762Y-8502438D02*
X17547619Y-8454819D01*
X17547619Y-8454819D02*
X17642857Y-8454819D01*
X17642857Y-8454819D02*
X17785714Y-8502438D01*
X17785714Y-8502438D02*
X17833333Y-8550057D01*
X18214286Y-8550057D02*
X18261905Y-8502438D01*
X18261905Y-8502438D02*
X18357143Y-8454819D01*
X18357143Y-8454819D02*
X18595238Y-8454819D01*
X18595238Y-8454819D02*
X18690476Y-8502438D01*
X18690476Y-8502438D02*
X18738095Y-8550057D01*
X18738095Y-8550057D02*
X18785714Y-8645295D01*
X18785714Y-8645295D02*
X18785714Y-8740533D01*
X18785714Y-8740533D02*
X18738095Y-8883390D01*
X18738095Y-8883390D02*
X18166667Y-9454819D01*
X18166667Y-9454819D02*
X18785714Y-9454819D01*
X4666666Y-1454819D02*
X4666666Y-2169104D01*
X4666666Y-2169104D02*
X4619047Y-2311961D01*
X4619047Y-2311961D02*
X4523809Y-2407200D01*
X4523809Y-2407200D02*
X4380952Y-2454819D01*
X4380952Y-2454819D02*
X4285714Y-2454819D01*
X5666666Y-2454819D02*
X5095238Y-2454819D01*
X5380952Y-2454819D02*
X5380952Y-1454819D01*
X5380952Y-1454819D02*
X5285714Y-1597676D01*
X5285714Y-1597676D02*
X5190476Y-1692914D01*
X5190476Y-1692914D02*
X5095238Y-1740533D01*
X4666666Y-41454819D02*
X4666666Y-42169104D01*
X4666666Y-42169104D02*
X4619047Y-42311961D01*
X4619047Y-42311961D02*
X4523809Y-42407200D01*
X4523809Y-42407200D02*
X4380952Y-42454819D01*
X4380952Y-42454819D02*
X4285714Y-42454819D01*
X5047619Y-41454819D02*
X5666666Y-41454819D01*
X5666666Y-41454819D02*
X5333333Y-41835771D01*
X5333333Y-41835771D02*
X5476190Y-41835771D01*
X5476190Y-41835771D02*
X5571428Y-41883390D01*
X5571428Y-41883390D02*
X5619047Y-41931009D01*
X5619047Y-41931009D02*
X5666666Y-42026247D01*
X5666666Y-42026247D02*
X5666666Y-42264342D01*
X5666666Y-42264342D02*
X5619047Y-42359580D01*
X5619047Y-42359580D02*
X5571428Y-42407200D01*
X5571428Y-42407200D02*
X5476190Y-42454819D01*
X5476190Y-42454819D02*
X5190476Y-42454819D01*
X5190476Y-42454819D02*
X5095238Y-42407200D01*
X5095238Y-42407200D02*
X5047619Y-42359580D01*
X71666666Y-38454819D02*
X71666666Y-39169104D01*
X71666666Y-39169104D02*
X71619047Y-39311961D01*
X71619047Y-39311961D02*
X71523809Y-39407200D01*
X71523809Y-39407200D02*
X71380952Y-39454819D01*
X71380952Y-39454819D02*
X71285714Y-39454819D01*
X72095238Y-38550057D02*
X72142857Y-38502438D01*
X72142857Y-38502438D02*
X72238095Y-38454819D01*
X72238095Y-38454819D02*
X72476190Y-38454819D01*
X72476190Y-38454819D02*
X72571428Y-38502438D01*
X72571428Y-38502438D02*
X72619047Y-38550057D01*
X72619047Y-38550057D02*
X72666666Y-38645295D01*
X72666666Y-38645295D02*
X72666666Y-38740533D01*
X72666666Y-38740533D02*
X72619047Y-38883390D01*
X72619047Y-38883390D02*
X72047619Y-39454819D01*
X72047619Y-39454819D02*
X72666666Y-39454819D01*
X71833333Y-19359580D02*
X71785714Y-19407200D01*
X71785714Y-19407200D02*
X71642857Y-19454819D01*
X71642857Y-19454819D02*
X71547619Y-19454819D01*
X71547619Y-19454819D02*
X71404762Y-19407200D01*
X71404762Y-19407200D02*
X71309524Y-19311961D01*
X71309524Y-19311961D02*
X71261905Y-19216723D01*
X71261905Y-19216723D02*
X71214286Y-19026247D01*
X71214286Y-19026247D02*
X71214286Y-18883390D01*
X71214286Y-18883390D02*
X71261905Y-18692914D01*
X71261905Y-18692914D02*
X71309524Y-18597676D01*
X71309524Y-18597676D02*
X71404762Y-18502438D01*
X71404762Y-18502438D02*
X71547619Y-18454819D01*
X71547619Y-18454819D02*
X71642857Y-18454819D01*
X71642857Y-18454819D02*
X71785714Y-18502438D01*
X71785714Y-18502438D02*
X71833333Y-18550057D01*
X72690476Y-18454819D02*
X72500000Y-18454819D01*
X72500000Y-18454819D02*
X72404762Y-18502438D01*
X72404762Y-18502438D02*
X72357143Y-18550057D01*
X72357143Y-18550057D02*
X72261905Y-18692914D01*
X72261905Y-18692914D02*
X72214286Y-18883390D01*
X72214286Y-18883390D02*
X72214286Y-19264342D01*
X72214286Y-19264342D02*
X72261905Y-19359580D01*
X72261905Y-19359580D02*
X72309524Y-19407200D01*
X72309524Y-19407200D02*
X72404762Y-19454819D01*
X72404762Y-19454819D02*
X72595238Y-19454819D01*
X72595238Y-19454819D02*
X72690476Y-19407200D01*
X72690476Y-19407200D02*
X72738095Y-19359580D01*
X72738095Y-19359580D02*
X72785714Y-19264342D01*
X72785714Y-19264342D02*
X72785714Y-19026247D01*
X72785714Y-19026247D02*
X72738095Y-18931009D01*
X72738095Y-18931009D02*
X72690476Y-18883390D01*
X72690476Y-18883390D02*
X72595238Y-18835771D01*
X72595238Y-18835771D02*
X72404762Y-18835771D01*
X72404762Y-18835771D02*
X72309524Y-18883390D01*
X72309524Y-18883390D02*
X72261905Y-18931009D01*
X72261905Y-18931009D02*
X72214286Y-19026247D01*
X44833333Y-25454819D02*
X44500000Y-24978628D01*
X44261905Y-25454819D02*
X44261905Y-24454819D01*
X44261905Y-24454819D02*
X44642857Y-24454819D01*
X44642857Y-24454819D02*
X44738095Y-24502438D01*
X44738095Y-24502438D02*
X44785714Y-24550057D01*
X44785714Y-24550057D02*
X44833333Y-24645295D01*
X44833333Y-24645295D02*
X44833333Y-24788152D01*
X44833333Y-24788152D02*
X44785714Y-24883390D01*
X44785714Y-24883390D02*
X44738095Y-24931009D01*
X44738095Y-24931009D02*
X44642857Y-24978628D01*
X44642857Y-24978628D02*
X44261905Y-24978628D01*
X45214286Y-24550057D02*
X45261905Y-24502438D01*
X45261905Y-24502438D02*
X45357143Y-24454819D01*
X45357143Y-24454819D02*
X45595238Y-24454819D01*
X45595238Y-24454819D02*
X45690476Y-24502438D01*
X45690476Y-24502438D02*
X45738095Y-24550057D01*
X45738095Y-24550057D02*
X45785714Y-24645295D01*
X45785714Y-24645295D02*
X45785714Y-24740533D01*
X45785714Y-24740533D02*
X45738095Y-24883390D01*
X45738095Y-24883390D02*
X45166667Y-25454819D01*
X45166667Y-25454819D02*
X45785714Y-25454819D01*
X17833333Y-2359580D02*
X17785714Y-2407200D01*
X17785714Y-2407200D02*
X17642857Y-2454819D01*
X17642857Y-2454819D02*
X17547619Y-2454819D01*
X17547619Y-2454819D02*
X17404762Y-2407200D01*
X17404762Y-2407200D02*
X17309524Y-2311961D01*
X17309524Y-2311961D02*
X17261905Y-2216723D01*
X17261905Y-2216723D02*
X17214286Y-2026247D01*
X17214286Y-2026247D02*
X17214286Y-1883390D01*
X17214286Y-1883390D02*
X17261905Y-1692914D01*
X17261905Y-1692914D02*
X17309524Y-1597676D01*
X17309524Y-1597676D02*
X17404762Y-1502438D01*
X17404762Y-1502438D02*
X17547619Y-1454819D01*
X17547619Y-1454819D02*
X17642857Y-1454819D01*
X17642857Y-1454819D02*
X17785714Y-1502438D01*
X17785714Y-1502438D02*
X17833333Y-1550057D01*
X18785714Y-2454819D02*
X18214286Y-2454819D01*
X18500000Y-2454819D02*
X18500000Y-1454819D01*
X18500000Y-1454819D02*
X18404762Y-1597676D01*
X18404762Y-1597676D02*
X18309524Y-1692914D01*
X18309524Y-1692914D02*
X18214286Y-1740533D01*
X39238095Y-16454819D02*
X39238095Y-17264342D01*
X39238095Y-17264342D02*
X39285714Y-17359580D01*
X39285714Y-17359580D02*
X39333333Y-17407200D01*
X39333333Y-17407200D02*
X39428571Y-17454819D01*
X39428571Y-17454819D02*
X39619047Y-17454819D01*
X39619047Y-17454819D02*
X39714285Y-17407200D01*
X39714285Y-17407200D02*
X39761904Y-17359580D01*
X39761904Y-17359580D02*
X39809523Y-17264342D01*
X39809523Y-17264342D02*
X39809523Y-16454819D01*
X40809523Y-17454819D02*
X40238095Y-17454819D01*
X40523809Y-17454819D02*
X40523809Y-16454819D01*
X40523809Y-16454819D02*
X40428571Y-16597676D01*
X40428571Y-16597676D02*
X40333333Y-16692914D01*
X40333333Y-16692914D02*
X40238095Y-16740533D01*
X57904761Y-12550057D02*
X57809523Y-12502438D01*
X57809523Y-12502438D02*
X57714285Y-12407200D01*
X57714285Y-12407200D02*
X57571428Y-12264342D01*
X57571428Y-12264342D02*
X57476190Y-12216723D01*
X57476190Y-12216723D02*
X57380952Y-12216723D01*
X57428571Y-12454819D02*
X57333333Y-12407200D01*
X57333333Y-12407200D02*
X57238095Y-12311961D01*
X57238095Y-12311961D02*
X57190476Y-12121485D01*
X57190476Y-12121485D02*
X57190476Y-11788152D01*
X57190476Y-11788152D02*
X57238095Y-11597676D01*
X57238095Y-11597676D02*
X57333333Y-11502438D01*
X57333333Y-11502438D02*
X57428571Y-11454819D01*
X57428571Y-11454819D02*
X57619047Y-11454819D01*
X57619047Y-11454819D02*
X57714285Y-11502438D01*
X57714285Y-11502438D02*
X57809523Y-11597676D01*
X57809523Y-11597676D02*
X57857142Y-11788152D01*
X57857142Y-11788152D02*
X57857142Y-12121485D01*
X57857142Y-12121485D02*
X57809523Y-12311961D01*
X57809523Y-12311961D02*
X57714285Y-12407200D01*
X57714285Y-12407200D02*
X57619047Y-12454819D01*
X57619047Y-12454819D02*
X57428571Y-12454819D01*
X58809523Y-12454819D02*
X58238095Y-12454819D01*
X58523809Y-12454819D02*
X58523809Y-11454819D01*
X58523809Y-11454819D02*
X58428571Y-11597676D01*
X58428571Y-11597676D02*
X58333333Y-11692914D01*
X58333333Y-11692914D02*
X58238095Y-11740533D01*
X38261905Y-12454819D02*
X38261905Y-11454819D01*
X38261905Y-11454819D02*
X38500000Y-11454819D01*
X38500000Y-11454819D02*
X38642857Y-11502438D01*
X38642857Y-11502438D02*
X38738095Y-11597676D01*
X38738095Y-11597676D02*
X38785714Y-11692914D01*
X38785714Y-11692914D02*
X38833333Y-11883390D01*
X38833333Y-11883390D02*
X38833333Y-12026247D01*
X38833333Y-12026247D02*
X38785714Y-12216723D01*
X38785714Y-12216723D02*
X38738095Y-12311961D01*
X38738095Y-12311961D02*
X38642857Y-12407200D01*
X38642857Y-12407200D02*
X38500000Y-12454819D01*
X38500000Y-12454819D02*
X38261905Y-12454819D01*
X39214286Y-11550057D02*
X39261905Y-11502438D01*
X39261905Y-11502438D02*
X39357143Y-11454819D01*
X39357143Y-11454819D02*
X39595238Y-11454819D01*
X39595238Y-11454819D02*
X39690476Y-11502438D01*
X39690476Y-11502438D02*
X39738095Y-11550057D01*
X39738095Y-11550057D02*
X39785714Y-11645295D01*
X39785714Y-11645295D02*
X39785714Y-11740533D01*
X39785714Y-11740533D02*
X39738095Y-11883390D01*
X39738095Y-11883390D02*
X39166667Y-12454819D01*
X39166667Y-12454819D02*
X39785714Y-12454819D01*
X38261905Y-22454819D02*
X38261905Y-21454819D01*
X38261905Y-21454819D02*
X38500000Y-21454819D01*
X38500000Y-21454819D02*
X38642857Y-21502438D01*
X38642857Y-21502438D02*
X38738095Y-21597676D01*
X38738095Y-21597676D02*
X38785714Y-21692914D01*
X38785714Y-21692914D02*
X38833333Y-21883390D01*
X38833333Y-21883390D02*
X38833333Y-22026247D01*
X38833333Y-22026247D02*
X38785714Y-22216723D01*
X38785714Y-22216723D02*
X38738095Y-22311961D01*
X38738095Y-22311961D02*
X38642857Y-22407200D01*
X38642857Y-22407200D02*
X38500000Y-22454819D01*
X38500000Y-22454819D02*
X38261905Y-22454819D01*
X39166667Y-21454819D02*
X39785714Y-21454819D01*
X39785714Y-21454819D02*
X39452381Y-21835771D01*
X39452381Y-21835771D02*
X39595238Y-21835771D01*
X39595238Y-21835771D02*
X39690476Y-21883390D01*
X39690476Y-21883390D02*
X39738095Y-21931009D01*
X39738095Y-21931009D02*
X39785714Y-22026247D01*
X39785714Y-22026247D02*
X39785714Y-22264342D01*
X39785714Y-22264342D02*
X39738095Y-22359580D01*
X39738095Y-22359580D02*
X39690476Y-22407200D01*
X39690476Y-22407200D02*
X39595238Y-22454819D01*
X39595238Y-22454819D02*
X39309524Y-22454819D01*
X39309524Y-22454819D02*
X39214286Y-22407200D01*
X39214286Y-22407200D02*
X39166667Y-22359580D01*
X17833333Y-42359580D02*
X17785714Y-42407200D01*
X17785714Y-42407200D02*
X17642857Y-42454819D01*
X17642857Y-42454819D02*
X17547619Y-42454819D01*
X17547619Y-42454819D02*
X17404762Y-42407200D01*
X17404762Y-42407200D02*
X17309524Y-42311961D01*
X17309524Y-42311961D02*
X17261905Y-42216723D01*
X17261905Y-42216723D02*
X17214286Y-42026247D01*
X17214286Y-42026247D02*
X17214286Y-41883390D01*
X17214286Y-41883390D02*
X17261905Y-41692914D01*
X17261905Y-41692914D02*
X17309524Y-41597676D01*
X17309524Y-41597676D02*
X17404762Y-41502438D01*
X17404762Y-41502438D02*
X17547619Y-41454819D01*
X17547619Y-41454819D02*
X17642857Y-41454819D01*
X17642857Y-41454819D02*
X17785714Y-41502438D01*
X17785714Y-41502438D02*
X17833333Y-41550057D01*
X18166667Y-41454819D02*
X18785714Y-41454819D01*
X18785714Y-41454819D02*
X18452381Y-41835771D01*
X18452381Y-41835771D02*
X18595238Y-41835771D01*
X18595238Y-41835771D02*
X18690476Y-41883390D01*
X18690476Y-41883390D02*
X18738095Y-41931009D01*
X18738095Y-41931009D02*
X18785714Y-42026247D01*
X18785714Y-42026247D02*
X18785714Y-42264342D01*
X18785714Y-42264342D02*
X18738095Y-42359580D01*
X18738095Y-42359580D02*
X18690476Y-42407200D01*
X18690476Y-42407200D02*
X18595238Y-42454819D01*
X18595238Y-42454819D02*
X18309524Y-42454819D01*
X18309524Y-42454819D02*
X18214286Y-42407200D01*
X18214286Y-42407200D02*
X18166667Y-42359580D01*
X71833333Y-12454819D02*
X71357143Y-12454819D01*
X71357143Y-12454819D02*
X71357143Y-11454819D01*
X72119048Y-11550057D02*
X72166667Y-11502438D01*
X72166667Y-11502438D02*
X72261905Y-11454819D01*
X72261905Y-11454819D02*
X72500000Y-11454819D01*
X72500000Y-11454819D02*
X72595238Y-11502438D01*
X72595238Y-11502438D02*
X72642857Y-11550057D01*
X72642857Y-11550057D02*
X72690476Y-11645295D01*
X72690476Y-11645295D02*
X72690476Y-11740533D01*
X72690476Y-11740533D02*
X72642857Y-11883390D01*
X72642857Y-11883390D02*
X72071429Y-12454819D01*
X72071429Y-12454819D02*
X72690476Y-12454819D01*
X64833333Y-19359580D02*
X64785714Y-19407200D01*
X64785714Y-19407200D02*
X64642857Y-19454819D01*
X64642857Y-19454819D02*
X64547619Y-19454819D01*
X64547619Y-19454819D02*
X64404762Y-19407200D01*
X64404762Y-19407200D02*
X64309524Y-19311961D01*
X64309524Y-19311961D02*
X64261905Y-19216723D01*
X64261905Y-19216723D02*
X64214286Y-19026247D01*
X64214286Y-19026247D02*
X64214286Y-18883390D01*
X64214286Y-18883390D02*
X64261905Y-18692914D01*
X64261905Y-18692914D02*
X64309524Y-18597676D01*
X64309524Y-18597676D02*
X64404762Y-18502438D01*
X64404762Y-18502438D02*
X64547619Y-18454819D01*
X64547619Y-18454819D02*
X64642857Y-18454819D01*
X64642857Y-18454819D02*
X64785714Y-18502438D01*
X64785714Y-18502438D02*
X64833333Y-18550057D01*
X65738095Y-18454819D02*
X65261905Y-18454819D01*
X65261905Y-18454819D02*
X65214286Y-18931009D01*
X65214286Y-18931009D02*
X65261905Y-18883390D01*
X65261905Y-18883390D02*
X65357143Y-18835771D01*
X65357143Y-18835771D02*
X65595238Y-18835771D01*
X65595238Y-18835771D02*
X65690476Y-18883390D01*
X65690476Y-18883390D02*
X65738095Y-18931009D01*
X65738095Y-18931009D02*
X65785714Y-19026247D01*
X65785714Y-19026247D02*
X65785714Y-19264342D01*
X65785714Y-19264342D02*
X65738095Y-19359580D01*
X65738095Y-19359580D02*
X65690476Y-19407200D01*
X65690476Y-19407200D02*
X65595238Y-19454819D01*
X65595238Y-19454819D02*
X65357143Y-19454819D01*
X65357143Y-19454819D02*
X65261905Y-19407200D01*
X65261905Y-19407200D02*
X65214286Y-19359580D01*
X57904761Y-22550057D02*
X57809523Y-22502438D01*
X57809523Y-22502438D02*
X57714285Y-22407200D01*
X57714285Y-22407200D02*
X57571428Y-22264342D01*
X57571428Y-22264342D02*
X57476190Y-22216723D01*
X57476190Y-22216723D02*
X57380952Y-22216723D01*
X57428571Y-22454819D02*
X57333333Y-22407200D01*
X57333333Y-22407200D02*
X57238095Y-22311961D01*
X57238095Y-22311961D02*
X57190476Y-22121485D01*
X57190476Y-22121485D02*
X57190476Y-21788152D01*
X57190476Y-21788152D02*
X57238095Y-21597676D01*
X57238095Y-21597676D02*
X57333333Y-21502438D01*
X57333333Y-21502438D02*
X57428571Y-21454819D01*
X57428571Y-21454819D02*
X57619047Y-21454819D01*
X57619047Y-21454819D02*
X57714285Y-21502438D01*
X57714285Y-21502438D02*
X57809523Y-21597676D01*
X57809523Y-21597676D02*
X57857142Y-21788152D01*
X57857142Y-21788152D02*
X57857142Y-22121485D01*
X57857142Y-22121485D02*
X57809523Y-22311961D01*
X57809523Y-22311961D02*
X57714285Y-22407200D01*
X57714285Y-22407200D02*
X57619047Y-22454819D01*
X57619047Y-22454819D02*
X57428571Y-22454819D01*
X58238095Y-21550057D02*
X58285714Y-21502438D01*
X58285714Y-21502438D02*
X58380952Y-21454819D01*
X58380952Y-21454819D02*
X58619047Y-21454819D01*
X58619047Y-21454819D02*
X58714285Y-21502438D01*
X58714285Y-21502438D02*
X58761904Y-21550057D01*
X58761904Y-21550057D02*
X58809523Y-21645295D01*
X58809523Y-21645295D02*
X58809523Y-21740533D01*
X58809523Y-21740533D02*
X58761904Y-21883390D01*
X58761904Y-21883390D02*
X58190476Y-22454819D01*
X58190476Y-22454819D02*
X58809523Y-22454819D01*
X4666666Y-22074819D02*
X4666666Y-22789104D01*
X4666666Y-22789104D02*
X4619047Y-22931961D01*
X4619047Y-22931961D02*
X4523809Y-23027200D01*
X4523809Y-23027200D02*
X4380952Y-23074819D01*
X4380952Y-23074819D02*
X4285714Y-23074819D01*
X5571428Y-22408152D02*
X5571428Y-23074819D01*
X5333333Y-22027200D02*
X5095238Y-22741485D01*
X5095238Y-22741485D02*
X5714285Y-22741485D01*
X44833333Y-15454819D02*
X44500000Y-14978628D01*
X44261905Y-15454819D02*
X44261905Y-14454819D01*
X44261905Y-14454819D02*
X44642857Y-14454819D01*
X44642857Y-14454819D02*
X44738095Y-14502438D01*
X44738095Y-14502438D02*
X44785714Y-14550057D01*
X44785714Y-14550057D02*
X44833333Y-14645295D01*
X44833333Y-14645295D02*
X44833333Y-14788152D01*
X44833333Y-14788152D02*
X44785714Y-14883390D01*
X44785714Y-14883390D02*
X44738095Y-14931009D01*
X44738095Y-14931009D02*
X44642857Y-14978628D01*
X44642857Y-14978628D02*
X44261905Y-14978628D01*
X45785714Y-15454819D02*
X45214286Y-15454819D01*
X45500000Y-15454819D02*
X45500000Y-14454819D01*
X45500000Y-14454819D02*
X45404762Y-14597676D01*
X45404762Y-14597676D02*
X45309524Y-14692914D01*
X45309524Y-14692914D02*
X45214286Y-14740533D01*
%TO.C,R3*%
D11*
X62000000Y-28000000D02*
X68000000Y-28000000D01*
X62000000Y-32000000D02*
X62000000Y-28000000D01*
X68000000Y-28000000D02*
X68000000Y-32000000D01*
X68000000Y-32000000D02*
X62000000Y-32000000D01*
%TO.C,L1*%
X62000000Y-13000000D02*
X68000000Y-13000000D01*
X62000000Y-17000000D02*
X62000000Y-13000000D01*
X68000000Y-13000000D02*
X68000000Y-17000000D01*
X68000000Y-17000000D02*
X62000000Y-17000000D01*
%TO.C,C4*%
X27000000Y-13000000D02*
X33000000Y-13000000D01*
X27000000Y-17000000D02*
X27000000Y-13000000D01*
X33000000Y-13000000D02*
X33000000Y-17000000D01*
X33000000Y-17000000D02*
X27000000Y-17000000D01*
%TO.C,D1*%
X27000000Y-6000000D02*
X33000000Y-6000000D01*
X27000000Y-10000000D02*
X27000000Y-6000000D01*
X33000000Y-6000000D02*
X33000000Y-10000000D01*
X33000000Y-10000000D02*
X27000000Y-10000000D01*
%TO.C,C2*%
X15000000Y-10000000D02*
X21000000Y-10000000D01*
X15000000Y-14000000D02*
X15000000Y-10000000D01*
X21000000Y-10000000D02*
X21000000Y-14000000D01*
X21000000Y-14000000D02*
X15000000Y-14000000D01*
%TO.C,J1*%
X2000000Y-3000000D02*
X8000000Y-3000000D01*
X2000000Y-7000000D02*
X2000000Y-3000000D01*
X8000000Y-3000000D02*
X8000000Y-7000000D01*
X8000000Y-7000000D02*
X2000000Y-7000000D01*
%TO.C,J3*%
X2000000Y-43000000D02*
X8000000Y-43000000D01*
X2000000Y-47000000D02*
X2000000Y-43000000D01*
X8000000Y-43000000D02*
X8000000Y-47000000D01*
X8000000Y-47000000D02*
X2000000Y-47000000D01*
%TO.C,J2*%
X69000000Y-40000000D02*
X75000000Y-40000000D01*
X69000000Y-44000000D02*
X69000000Y-40000000D01*
X75000000Y-40000000D02*
X75000000Y-44000000D01*
X75000000Y-44000000D02*
X69000000Y-44000000D01*
%TO.C,C6*%
X69000000Y-20000000D02*
X75000000Y-20000000D01*
X69000000Y-24000000D02*
X69000000Y-20000000D01*
X75000000Y-20000000D02*
X75000000Y-24000000D01*
X75000000Y-24000000D02*
X69000000Y-24000000D01*
%TO.C,R2*%
X46000000Y-22000000D02*
X50000000Y-22000000D01*
X46000000Y-28000000D02*
X46000000Y-22000000D01*
X50000000Y-22000000D02*
X50000000Y-28000000D01*
X50000000Y-28000000D02*
X46000000Y-28000000D01*
%TO.C,C1*%
X15000000Y-3000000D02*
X21000000Y-3000000D01*
X15000000Y-7000000D02*
X15000000Y-3000000D01*
X21000000Y-3000000D02*
X21000000Y-7000000D01*
X21000000Y-7000000D02*
X15000000Y-7000000D01*
%TO.C,U1*%
X37000000Y-18000000D02*
X43000000Y-18000000D01*
X37000000Y-22000000D02*
X37000000Y-18000000D01*
X43000000Y-18000000D02*
X43000000Y-22000000D01*
X43000000Y-22000000D02*
X37000000Y-22000000D01*
%TO.C,Q1*%
X55000000Y-13000000D02*
X61000000Y-13000000D01*
X55000000Y-17000000D02*
X55000000Y-13000000D01*
X61000000Y-13000000D02*
X61000000Y-17000000D01*
X61000000Y-17000000D02*
X55000000Y-17000000D01*
%TO.C,D2*%
X36000000Y-13000000D02*
X42000000Y-13000000D01*
X36000000Y-17000000D02*
X36000000Y-13000000D01*
X42000000Y-13000000D02*
X42000000Y-17000000D01*
X42000000Y-17000000D02*
X36000000Y-17000000D01*
%TO.C,D3*%
X36000000Y-23000000D02*
X42000000Y-23000000D01*
X36000000Y-27000000D02*
X36000000Y-23000000D01*
X42000000Y-23000000D02*
X42000000Y-27000000D01*
X42000000Y-27000000D02*
X36000000Y-27000000D01*
%TO.C,C3*%
X15000000Y-43000000D02*
X21000000Y-43000000D01*
X15000000Y-47000000D02*
X15000000Y-43000000D01*
X21000000Y-43000000D02*
X21000000Y-47000000D01*
X21000000Y-47000000D02*
X15000000Y-47000000D01*
%TO.C,L2*%
X69000000Y-13000000D02*
X75000000Y-13000000D01*
X69000000Y-17000000D02*
X69000000Y-13000000D01*
X75000000Y-13000000D02*
X75000000Y-17000000D01*
X75000000Y-17000000D02*
X69000000Y-17000000D01*
%TO.C,C5*%
X62000000Y-20000000D02*
X68000000Y-20000000D01*
X62000000Y-24000000D02*
X62000000Y-20000000D01*
X68000000Y-20000000D02*
X68000000Y-24000000D01*
X68000000Y-24000000D02*
X62000000Y-24000000D01*
%TO.C,Q2*%
X55000000Y-23000000D02*
X61000000Y-23000000D01*
X55000000Y-27000000D02*
X55000000Y-23000000D01*
X61000000Y-23000000D02*
X61000000Y-27000000D01*
X61000000Y-27000000D02*
X55000000Y-27000000D01*
%TO.C,J4*%
X3620000Y-23620000D02*
X5000000Y-23620000D01*
X3620000Y-25000000D02*
X3620000Y-23620000D01*
X3620000Y-26270000D02*
X3620000Y-28920000D01*
X3620000Y-26270000D02*
X6380000Y-26270000D01*
X3620000Y-28920000D02*
X6380000Y-28920000D01*
X6380000Y-26270000D02*
X6380000Y-28920000D01*
%TO.C,R1*%
X46000000Y-12000000D02*
X50000000Y-12000000D01*
X46000000Y-18000000D02*
X46000000Y-12000000D01*
X50000000Y-12000000D02*
X50000000Y-18000000D01*
X50000000Y-18000000D02*
X46000000Y-18000000D01*
%TD*%
M02*
