%TF.GenerationSoftware,KiCad,Pcbnew,10.0.4*%
%TF.CreationDate,2026-06-29T19:01:09+05:30*%
%TF.ProjectId,rf_pa_300w,72665f70-615f-4333-9030-772e6b696361,1.0*%
%TF.SameCoordinates,Original*%
%TF.FileFunction,Copper,L1,Top*%
%TF.FilePolarity,Positive*%
%FSLAX46Y46*%
G04 Gerber Fmt 4.6, Leading zero omitted, Abs format (unit mm)*
G04 Created by KiCad (PCBNEW 10.0.4) date 2026-06-29 19:01:09*
%MOMM*%
%LPD*%
G01*
G04 APERTURE LIST*
G04 Aperture macros list*
%AMRoundRect*
0 Rectangle with rounded corners*
0 $1 Rounding radius*
0 $2 $3 $4 $5 $6 $7 $8 $9 X,Y pos of 4 corners*
0 Add a 4 corners polygon primitive as box body*
4,1,4,$2,$3,$4,$5,$6,$7,$8,$9,$2,$3,0*
0 Add four circle primitives for the rounded corners*
1,1,$1+$1,$2,$3*
1,1,$1+$1,$4,$5*
1,1,$1+$1,$6,$7*
1,1,$1+$1,$8,$9*
0 Add four rect primitives between the rounded corners*
20,1,$1+$1,$2,$3,$4,$5,0*
20,1,$1+$1,$4,$5,$6,$7,0*
20,1,$1+$1,$6,$7,$8,$9,0*
20,1,$1+$1,$8,$9,$2,$3,0*%
G04 Aperture macros list end*
%TA.AperFunction,ComponentPad*%
%ADD10R,1.500000X1.500000*%
%TD*%
%TA.AperFunction,ComponentPad*%
%ADD11C,1.500000*%
%TD*%
%TA.AperFunction,SMDPad,CuDef*%
%ADD12RoundRect,0.375000X-0.375000X-0.425000X0.375000X-0.425000X0.375000X0.425000X-0.375000X0.425000X0*%
%TD*%
%TA.AperFunction,ComponentPad*%
%ADD13R,2.000000X2.000000*%
%TD*%
%TA.AperFunction,ComponentPad*%
%ADD14C,2.000000*%
%TD*%
%TA.AperFunction,ComponentPad*%
%ADD15R,2.500000X2.500000*%
%TD*%
%TA.AperFunction,ComponentPad*%
%ADD16C,2.500000*%
%TD*%
%TA.AperFunction,SMDPad,CuDef*%
%ADD17RoundRect,0.150000X-0.150000X-0.150000X0.150000X-0.150000X0.150000X0.150000X-0.150000X0.150000X0*%
%TD*%
%TA.AperFunction,ComponentPad*%
%ADD18R,1.700000X1.700000*%
%TD*%
%TA.AperFunction,ComponentPad*%
%ADD19C,1.700000*%
%TD*%
%TA.AperFunction,ViaPad*%
%ADD20C,0.800000*%
%TD*%
%TA.AperFunction,Conductor*%
%ADD21C,3.060000*%
%TD*%
%TA.AperFunction,Conductor*%
%ADD22C,1.500000*%
%TD*%
%TA.AperFunction,Conductor*%
%ADD23C,0.500000*%
%TD*%
%TA.AperFunction,Conductor*%
%ADD24C,3.000000*%
%TD*%
%TA.AperFunction,Conductor*%
%ADD25C,1.000000*%
%TD*%
%TA.AperFunction,Conductor*%
%ADD26C,0.300000*%
%TD*%
G04 APERTURE END LIST*
D10*
%TO.P,R3,1*%
%TO.N,/TANK_OUT*%
X62460000Y-30000000D03*
D11*
%TO.P,R3,2*%
%TO.N,GND*%
X67540000Y-30000000D03*
%TD*%
D10*
%TO.P,L1,1*%
%TO.N,/TANK_OUT*%
X62460000Y-15000000D03*
D11*
%TO.P,L1,2*%
%TO.N,/MID*%
X67540000Y-15000000D03*
%TD*%
D12*
%TO.P,C4,1*%
%TO.N,VB*%
X28400000Y-15000000D03*
%TO.P,C4,2*%
%TO.N,/MID*%
X31600000Y-15000000D03*
%TD*%
D13*
%TO.P,D1,1,A_1*%
%TO.N,VCC*%
X24920000Y-8000000D03*
D14*
%TO.P,D1,2,K_2*%
%TO.N,VB*%
X35080000Y-8000000D03*
%TD*%
D12*
%TO.P,C2,1*%
%TO.N,+72V5*%
X16400000Y-12000000D03*
%TO.P,C2,2*%
%TO.N,GND*%
X19600000Y-12000000D03*
%TD*%
D15*
%TO.P,J1,1,Pin_1_1*%
%TO.N,+72V5*%
X2460000Y-5000000D03*
D16*
%TO.P,J1,2,Pin_2_2*%
%TO.N,GND*%
X7540000Y-5000000D03*
%TD*%
D15*
%TO.P,J3,1,Pin_1_1*%
%TO.N,VCC*%
X2460000Y-45000000D03*
D16*
%TO.P,J3,2,Pin_2_2*%
%TO.N,GND*%
X7540000Y-45000000D03*
%TD*%
D13*
%TO.P,J2,1,Pin_1_1*%
%TO.N,/RF_OUT*%
X72000000Y-42000000D03*
D14*
%TO.P,J2,2,Pin_2_2*%
%TO.N,GND*%
X69460000Y-42000000D03*
%TD*%
D12*
%TO.P,C6,1*%
%TO.N,/RF_OUT*%
X70400000Y-22000000D03*
%TO.P,C6,2*%
%TO.N,GND*%
X73600000Y-22000000D03*
%TD*%
%TO.P,R2,1*%
%TO.N,/GATE2*%
X48000000Y-26600000D03*
%TO.P,R2,2*%
%TO.N,/LO_NET*%
X48000000Y-23400000D03*
%TD*%
D13*
%TO.P,C1,1*%
%TO.N,+72V5*%
X15500000Y-5000000D03*
D14*
%TO.P,C1,2*%
%TO.N,GND*%
X20500000Y-5000000D03*
%TD*%
D17*
%TO.P,U1,1,VB_1*%
%TO.N,VB*%
X38090000Y-18090000D03*
%TO.P,U1,2,HIN_2*%
%TO.N,/HIN*%
X38090000Y-19360000D03*
%TO.P,U1,3,VCC_3*%
%TO.N,VCC*%
X38090000Y-20640000D03*
%TO.P,U1,4,COM_4*%
%TO.N,GND*%
X38090000Y-21910000D03*
%TO.P,U1,5,LO_5*%
%TO.N,/LO_NET*%
X41910000Y-21910000D03*
%TO.P,U1,6,VS_6*%
%TO.N,/MID*%
X41910000Y-20640000D03*
%TO.P,U1,7,HO_7*%
%TO.N,/HO_NET*%
X41910000Y-19360000D03*
%TO.P,U1,8,LIN_8*%
%TO.N,/LIN*%
X41910000Y-18090000D03*
%TD*%
D10*
%TO.P,Q1,1,G_1*%
%TO.N,/GATE1*%
X55460000Y-15000000D03*
D11*
%TO.P,Q1,2,D_2*%
%TO.N,+72V5*%
X58000000Y-15000000D03*
%TO.P,Q1,3,S_3*%
%TO.N,/MID*%
X60540000Y-15000000D03*
%TD*%
D13*
%TO.P,D2,1,A_1*%
%TO.N,/HO_NET*%
X33920000Y-15000000D03*
D14*
%TO.P,D2,2,K_2*%
%TO.N,/GATE1*%
X44080000Y-15000000D03*
%TD*%
D13*
%TO.P,D3,1,A_1*%
%TO.N,/LO_NET*%
X33920000Y-25000000D03*
D14*
%TO.P,D3,2,K_2*%
%TO.N,/GATE2*%
X44080000Y-25000000D03*
%TD*%
D12*
%TO.P,C3,1*%
%TO.N,VCC*%
X16400000Y-45000000D03*
%TO.P,C3,2*%
%TO.N,GND*%
X19600000Y-45000000D03*
%TD*%
D10*
%TO.P,L2,1*%
%TO.N,/RF_OUT*%
X69460000Y-15000000D03*
D11*
%TO.P,L2,2*%
%TO.N,/TANK_OUT*%
X74540000Y-15000000D03*
%TD*%
D12*
%TO.P,C5,1*%
%TO.N,/TANK_OUT*%
X63400000Y-22000000D03*
%TO.P,C5,2*%
%TO.N,GND*%
X66600000Y-22000000D03*
%TD*%
D10*
%TO.P,Q2,1,G_1*%
%TO.N,/GATE2*%
X55460000Y-25000000D03*
D11*
%TO.P,Q2,2,D_2*%
%TO.N,/MID*%
X58000000Y-25000000D03*
%TO.P,Q2,3,S_3*%
%TO.N,GND*%
X60540000Y-25000000D03*
%TD*%
D18*
%TO.P,J4,1,Pin_1_1*%
%TO.N,/HIN*%
X5000000Y-25000000D03*
D19*
%TO.P,J4,2,Pin_2_2*%
%TO.N,/LIN*%
X5000000Y-27540000D03*
%TD*%
D12*
%TO.P,R1,1*%
%TO.N,/GATE1*%
X48000000Y-16600000D03*
%TO.P,R1,2*%
%TO.N,/HO_NET*%
X48000000Y-13400000D03*
%TD*%
D20*
%TO.N,GND*%
X60540000Y-28000000D03*
X19600000Y-14500000D03*
X35000000Y-21910000D03*
X73600000Y-19500000D03*
X66600000Y-24500000D03*
X79000000Y-19500000D03*
X21500000Y-45000000D03*
%TO.N,/MID*%
X31600000Y-13000000D03*
X44500000Y-20640000D03*
X58000000Y-22000000D03*
%TO.N,VCC*%
X24920000Y-20640000D03*
X16400000Y-42500000D03*
%TO.N,/RF_OUT*%
X70400000Y-24500000D03*
%TO.N,/HO_NET*%
X50000000Y-13400000D03*
X33920000Y-13000000D03*
X44500000Y-19360000D03*
%TO.N,/LIN*%
X28000000Y-27540000D03*
X41910000Y-12000000D03*
%TD*%
%TO.N,/TANK_OUT*%
D21*
X62460000Y-35000000D02*
X76500000Y-35000000D01*
D22*
X62460000Y-15000000D02*
X63400000Y-22000000D01*
D21*
X62460000Y-30000000D02*
X62460000Y-35000000D01*
X76500000Y-15000000D02*
X74540000Y-15000000D01*
X63400000Y-22000000D02*
X62460000Y-30000000D01*
X76500000Y-35000000D02*
X76500000Y-15000000D01*
%TO.N,GND*%
D23*
X66600000Y-22000000D02*
X66600000Y-24500000D01*
X60540000Y-25000000D02*
X60540000Y-28000000D01*
X38090000Y-21910000D02*
X35000000Y-21910000D01*
X19600000Y-45000000D02*
X21500000Y-45000000D01*
X19600000Y-12000000D02*
X19600000Y-14500000D01*
X73600000Y-22000000D02*
X73600000Y-19500000D01*
%TO.N,/MID*%
D22*
X60540000Y-15000000D02*
X60540000Y-11000000D01*
D23*
X44500000Y-20640000D02*
X41910000Y-20640000D01*
D22*
X67540000Y-11000000D02*
X67540000Y-15000000D01*
X60540000Y-22000000D02*
X60540000Y-15000000D01*
X58000000Y-25000000D02*
X58000000Y-22000000D01*
D23*
X31600000Y-13000000D02*
X31600000Y-15000000D01*
D24*
X62000000Y-11000000D02*
X67540000Y-11000000D01*
D22*
X58000000Y-22000000D02*
X60540000Y-22000000D01*
X60540000Y-11000000D02*
X62000000Y-11000000D01*
%TO.N,VB*%
D23*
X36000000Y-18090000D02*
X38090000Y-18090000D01*
X28400000Y-11000000D02*
X28400000Y-15000000D01*
X35080000Y-11000000D02*
X28400000Y-11000000D01*
X35080000Y-11000000D02*
X36000000Y-11000000D01*
X36000000Y-11000000D02*
X36000000Y-18090000D01*
X35080000Y-8000000D02*
X35080000Y-11000000D01*
%TO.N,VCC*%
D25*
X24920000Y-20640000D02*
X38090000Y-20640000D01*
X16400000Y-45000000D02*
X16400000Y-42500000D01*
X16400000Y-48000000D02*
X16400000Y-45000000D01*
X2460000Y-45000000D02*
X2460000Y-48000000D01*
X2460000Y-48000000D02*
X16400000Y-48000000D01*
%TO.N,+72V5*%
D24*
X10000000Y-2200000D02*
X15500000Y-2200000D01*
X16400000Y-12000000D02*
X16400000Y-2200000D01*
X16400000Y-2200000D02*
X58000000Y-2200000D01*
D22*
X2460000Y-2200000D02*
X10000000Y-2200000D01*
X2460000Y-5000000D02*
X2460000Y-2200000D01*
D24*
X15500000Y-12000000D02*
X16400000Y-12000000D01*
X15500000Y-5000000D02*
X15500000Y-12000000D01*
D22*
X58000000Y-2200000D02*
X58000000Y-15000000D01*
D24*
X15500000Y-2200000D02*
X15500000Y-5000000D01*
%TO.N,/RF_OUT*%
D21*
X70400000Y-15000000D02*
X70400000Y-22000000D01*
X70400000Y-22000000D02*
X70400000Y-24500000D01*
D22*
X69460000Y-15000000D02*
X70400000Y-15000000D01*
%TO.N,/GATE2*%
D23*
X44080000Y-25000000D02*
X55460000Y-25000000D01*
X48000000Y-26600000D02*
X48000000Y-25000000D01*
%TO.N,/LO_NET*%
X41910000Y-21910000D02*
X41910000Y-23400000D01*
X33920000Y-23400000D02*
X33920000Y-25000000D01*
X41910000Y-23400000D02*
X33920000Y-23400000D01*
X41910000Y-23400000D02*
X48000000Y-23400000D01*
%TO.N,/HIN*%
D26*
X22000000Y-19360000D02*
X38090000Y-19360000D01*
X22000000Y-25000000D02*
X22000000Y-19360000D01*
X5000000Y-25000000D02*
X22000000Y-25000000D01*
%TO.N,/HO_NET*%
D23*
X41910000Y-19360000D02*
X44500000Y-19360000D01*
X50000000Y-13400000D02*
X48000000Y-13400000D01*
X33920000Y-13000000D02*
X33920000Y-15000000D01*
%TO.N,/LIN*%
D26*
X5000000Y-27540000D02*
X28000000Y-27540000D01*
X41910000Y-12000000D02*
X41910000Y-18090000D01*
%TO.N,/GATE1*%
D23*
X44080000Y-15000000D02*
X55460000Y-15000000D01*
X51500000Y-12000000D02*
X44080000Y-12000000D01*
X51500000Y-16600000D02*
X51500000Y-12000000D01*
X48000000Y-16600000D02*
X51500000Y-16600000D01*
X44080000Y-12000000D02*
X44080000Y-15000000D01*
%TD*%
%TA.AperFunction,Conductor*%
%TO.N,GND*%
G36*
X79442539Y-520185D02*
G01*
X79488294Y-572989D01*
X79499500Y-624500D01*
X79499500Y-49375500D01*
X79479815Y-49442539D01*
X79427011Y-49488294D01*
X79375500Y-49499500D01*
X624500Y-49499500D01*
X557461Y-49479815D01*
X511706Y-49427011D01*
X500500Y-49375500D01*
X500500Y-46467236D01*
X520185Y-46400197D01*
X572989Y-46354442D01*
X642147Y-46344498D01*
X705703Y-46373523D01*
X740682Y-46423903D01*
X766202Y-46492328D01*
X766206Y-46492335D01*
X852452Y-46607544D01*
X852455Y-46607547D01*
X967664Y-46693793D01*
X967671Y-46693797D01*
X1012618Y-46710561D01*
X1102517Y-46744091D01*
X1162127Y-46750500D01*
X1335500Y-46750499D01*
X1402539Y-46770183D01*
X1448294Y-46822987D01*
X1459500Y-46874499D01*
X1459500Y-47901459D01*
X1459500Y-48098541D01*
X1459500Y-48098543D01*
X1459499Y-48098543D01*
X1497947Y-48291829D01*
X1497950Y-48291839D01*
X1573364Y-48473907D01*
X1573371Y-48473920D01*
X1682860Y-48637781D01*
X1682863Y-48637785D01*
X1822214Y-48777136D01*
X1822218Y-48777139D01*
X1986079Y-48886628D01*
X1986092Y-48886635D01*
X2168160Y-48962049D01*
X2168165Y-48962051D01*
X2168169Y-48962051D01*
X2168170Y-48962052D01*
X2361456Y-49000500D01*
X2361459Y-49000500D01*
X16498543Y-49000500D01*
X16628582Y-48974632D01*
X16691835Y-48962051D01*
X16873914Y-48886632D01*
X17037782Y-48777139D01*
X17177139Y-48637782D01*
X17286632Y-48473914D01*
X17362051Y-48291835D01*
X17400500Y-48098541D01*
X17400500Y-46087924D01*
X17420185Y-46020885D01*
X17427853Y-46010237D01*
X17517030Y-45899296D01*
X17601641Y-45728693D01*
X17647600Y-45543889D01*
X17650500Y-45501123D01*
X17650500Y-45501096D01*
X18350000Y-45501096D01*
X18352897Y-45543824D01*
X18398831Y-45728523D01*
X18483390Y-45899022D01*
X18483392Y-45899025D01*
X18602632Y-46047366D01*
X18602633Y-46047367D01*
X18750974Y-46166607D01*
X18750977Y-46166609D01*
X18921476Y-46251168D01*
X19106175Y-46297102D01*
X19148903Y-46300000D01*
X19350000Y-46300000D01*
X19850000Y-46300000D01*
X20051097Y-46300000D01*
X20093824Y-46297102D01*
X20278523Y-46251168D01*
X20449022Y-46166609D01*
X20449025Y-46166607D01*
X20597366Y-46047367D01*
X20597367Y-46047366D01*
X20716607Y-45899025D01*
X20716609Y-45899022D01*
X20801168Y-45728523D01*
X20847102Y-45543824D01*
X20850000Y-45501096D01*
X20850000Y-45250000D01*
X19850000Y-45250000D01*
X19850000Y-46300000D01*
X19350000Y-46300000D01*
X19350000Y-45250000D01*
X18350000Y-45250000D01*
X18350000Y-45501096D01*
X17650500Y-45501096D01*
X17650499Y-45000000D01*
X17650499Y-44498903D01*
X18350000Y-44498903D01*
X18350000Y-44750000D01*
X19350000Y-44750000D01*
X19850000Y-44750000D01*
X20850000Y-44750000D01*
X20850000Y-44498903D01*
X20847102Y-44456175D01*
X20801168Y-44271476D01*
X20716609Y-44100977D01*
X20716607Y-44100974D01*
X20597367Y-43952633D01*
X20597366Y-43952632D01*
X20449025Y-43833392D01*
X20449022Y-43833390D01*
X20278523Y-43748831D01*
X20093824Y-43702897D01*
X20051097Y-43700000D01*
X19850000Y-43700000D01*
X19850000Y-44750000D01*
X19350000Y-44750000D01*
X19350000Y-43700000D01*
X19148903Y-43700000D01*
X19106175Y-43702897D01*
X18921476Y-43748831D01*
X18750977Y-43833390D01*
X18750974Y-43833392D01*
X18602633Y-43952632D01*
X18602632Y-43952633D01*
X18483392Y-44100974D01*
X18483390Y-44100977D01*
X18398831Y-44271476D01*
X18352897Y-44456175D01*
X18350000Y-44498903D01*
X17650499Y-44498903D01*
X17650499Y-44498877D01*
X17650498Y-44498876D01*
X17647600Y-44456111D01*
X17601641Y-44271307D01*
X17517030Y-44100704D01*
X17456719Y-44025673D01*
X17427852Y-43989760D01*
X17401194Y-43925175D01*
X17400500Y-43912073D01*
X17400500Y-42401456D01*
X17362052Y-42208170D01*
X17362051Y-42208169D01*
X17362051Y-42208165D01*
X17338132Y-42150418D01*
X17286635Y-42026092D01*
X17286628Y-42026079D01*
X17233098Y-41945966D01*
X17190322Y-41881947D01*
X67960000Y-41881947D01*
X67960000Y-42118052D01*
X67996934Y-42351247D01*
X68069897Y-42575802D01*
X68177087Y-42786174D01*
X68237338Y-42869104D01*
X68237340Y-42869105D01*
X69017861Y-42088584D01*
X69040667Y-42173694D01*
X69099910Y-42276306D01*
X69183694Y-42360090D01*
X69286306Y-42419333D01*
X69371414Y-42442137D01*
X68590893Y-43222658D01*
X68673828Y-43282914D01*
X68884197Y-43390102D01*
X69108752Y-43463065D01*
X69108751Y-43463065D01*
X69341948Y-43500000D01*
X69578052Y-43500000D01*
X69811247Y-43463065D01*
X70035802Y-43390102D01*
X70246171Y-43282914D01*
X70369977Y-43192964D01*
X70435784Y-43169484D01*
X70503838Y-43185309D01*
X70551779Y-43234640D01*
X70551953Y-43234546D01*
X70552293Y-43235169D01*
X70552532Y-43235415D01*
X70553009Y-43236480D01*
X70556206Y-43242335D01*
X70642452Y-43357544D01*
X70642455Y-43357547D01*
X70757664Y-43443793D01*
X70757671Y-43443797D01*
X70892517Y-43494091D01*
X70892516Y-43494091D01*
X70899444Y-43494835D01*
X70952127Y-43500500D01*
X73047872Y-43500499D01*
X73107483Y-43494091D01*
X73242331Y-43443796D01*
X73357546Y-43357546D01*
X73443796Y-43242331D01*
X73494091Y-43107483D01*
X73500500Y-43047873D01*
X73500499Y-40952128D01*
X73494091Y-40892517D01*
X73470924Y-40830404D01*
X73443797Y-40757671D01*
X73443793Y-40757664D01*
X73357547Y-40642455D01*
X73357544Y-40642452D01*
X73242335Y-40556206D01*
X73242328Y-40556202D01*
X73107482Y-40505908D01*
X73107483Y-40505908D01*
X73047883Y-40499501D01*
X73047881Y-40499500D01*
X73047873Y-40499500D01*
X73047864Y-40499500D01*
X70952129Y-40499500D01*
X70952123Y-40499501D01*
X70892516Y-40505908D01*
X70757671Y-40556202D01*
X70757664Y-40556206D01*
X70642455Y-40642452D01*
X70642452Y-40642455D01*
X70556206Y-40757664D01*
X70551953Y-40765454D01*
X70548807Y-40763736D01*
X70517139Y-40806010D01*
X70451667Y-40830404D01*
X70383399Y-40815529D01*
X70369978Y-40807035D01*
X70246174Y-40717087D01*
X70035802Y-40609897D01*
X69811247Y-40536934D01*
X69811248Y-40536934D01*
X69578052Y-40500000D01*
X69341948Y-40500000D01*
X69108752Y-40536934D01*
X68884197Y-40609897D01*
X68673830Y-40717084D01*
X68590894Y-40777340D01*
X69371415Y-41557861D01*
X69286306Y-41580667D01*
X69183694Y-41639910D01*
X69099910Y-41723694D01*
X69040667Y-41826306D01*
X69017861Y-41911415D01*
X68237340Y-41130894D01*
X68177084Y-41213830D01*
X68069897Y-41424197D01*
X67996934Y-41648752D01*
X67960000Y-41881947D01*
X17190322Y-41881947D01*
X17177139Y-41862218D01*
X17177136Y-41862214D01*
X17037785Y-41722863D01*
X17037781Y-41722860D01*
X16873920Y-41613371D01*
X16873907Y-41613364D01*
X16691839Y-41537950D01*
X16691829Y-41537947D01*
X16498543Y-41499500D01*
X16498541Y-41499500D01*
X16301459Y-41499500D01*
X16301457Y-41499500D01*
X16108170Y-41537947D01*
X16108160Y-41537950D01*
X15926092Y-41613364D01*
X15926079Y-41613371D01*
X15762218Y-41722860D01*
X15762214Y-41722863D01*
X15622863Y-41862214D01*
X15622860Y-41862218D01*
X15513371Y-42026079D01*
X15513364Y-42026092D01*
X15437950Y-42208160D01*
X15437947Y-42208170D01*
X15399500Y-42401456D01*
X15399500Y-43912073D01*
X15379815Y-43979112D01*
X15372148Y-43989760D01*
X15282971Y-44100702D01*
X15198360Y-44271304D01*
X15152400Y-44456107D01*
X15149500Y-44498879D01*
X15149500Y-45501122D01*
X15149501Y-45501125D01*
X15152399Y-45543886D01*
X15152399Y-45543887D01*
X15198360Y-45728696D01*
X15282967Y-45899292D01*
X15282969Y-45899295D01*
X15372147Y-46010237D01*
X15398806Y-46074821D01*
X15399500Y-46087924D01*
X15399500Y-46875500D01*
X15379815Y-46942539D01*
X15327011Y-46988294D01*
X15275500Y-46999500D01*
X3584500Y-46999500D01*
X3575814Y-46996949D01*
X3566853Y-46998238D01*
X3542812Y-46987259D01*
X3517461Y-46979815D01*
X3511533Y-46972974D01*
X3503297Y-46969213D01*
X3489007Y-46946978D01*
X3471706Y-46927011D01*
X3469418Y-46916496D01*
X3465523Y-46910435D01*
X3460500Y-46875500D01*
X3460500Y-46874499D01*
X3480185Y-46807460D01*
X3532989Y-46761705D01*
X3584500Y-46750499D01*
X3757871Y-46750499D01*
X3757872Y-46750499D01*
X3817483Y-46744091D01*
X3952331Y-46693796D01*
X4067546Y-46607546D01*
X4153796Y-46492331D01*
X4204091Y-46357483D01*
X4210500Y-46297873D01*
X4210499Y-44885305D01*
X5790000Y-44885305D01*
X5790000Y-45114694D01*
X5790001Y-45114710D01*
X5819942Y-45342137D01*
X5879318Y-45563730D01*
X5967102Y-45775659D01*
X5967106Y-45775669D01*
X6081799Y-45974324D01*
X6081805Y-45974331D01*
X6138381Y-46048064D01*
X6975387Y-45211058D01*
X6980889Y-45231591D01*
X7059881Y-45368408D01*
X7171592Y-45480119D01*
X7308409Y-45559111D01*
X7328940Y-45564612D01*
X6491934Y-46401617D01*
X6491934Y-46401618D01*
X6565666Y-46458194D01*
X6764330Y-46572893D01*
X6764340Y-46572897D01*
X6976269Y-46660681D01*
X7197862Y-46720057D01*
X7425289Y-46749998D01*
X7425306Y-46750000D01*
X7654694Y-46750000D01*
X7654710Y-46749998D01*
X7882137Y-46720057D01*
X8103730Y-46660681D01*
X8315659Y-46572897D01*
X8315668Y-46572893D01*
X8514327Y-46458197D01*
X8514334Y-46458192D01*
X8588064Y-46401617D01*
X7751059Y-45564612D01*
X7771591Y-45559111D01*
X7908408Y-45480119D01*
X8020119Y-45368408D01*
X8099111Y-45231591D01*
X8104612Y-45211059D01*
X8941617Y-46048064D01*
X8998192Y-45974334D01*
X8998197Y-45974327D01*
X9112893Y-45775668D01*
X9112897Y-45775659D01*
X9200681Y-45563730D01*
X9260057Y-45342137D01*
X9289998Y-45114710D01*
X9290000Y-45114694D01*
X9290000Y-44885305D01*
X9289998Y-44885289D01*
X9260057Y-44657862D01*
X9200681Y-44436269D01*
X9112897Y-44224340D01*
X9112893Y-44224330D01*
X8998194Y-44025666D01*
X8941618Y-43951934D01*
X8941617Y-43951934D01*
X8104612Y-44788939D01*
X8099111Y-44768409D01*
X8020119Y-44631592D01*
X7908408Y-44519881D01*
X7771591Y-44440889D01*
X7751057Y-44435387D01*
X8588064Y-43598381D01*
X8588064Y-43598380D01*
X8514331Y-43541805D01*
X8514324Y-43541799D01*
X8315669Y-43427106D01*
X8315659Y-43427102D01*
X8103730Y-43339318D01*
X7882137Y-43279942D01*
X7654710Y-43250001D01*
X7654694Y-43250000D01*
X7425306Y-43250000D01*
X7425289Y-43250001D01*
X7197862Y-43279942D01*
X6976269Y-43339318D01*
X6764340Y-43427102D01*
X6764330Y-43427106D01*
X6565673Y-43541801D01*
X6565659Y-43541810D01*
X6491934Y-43598380D01*
X7328940Y-44435387D01*
X7308409Y-44440889D01*
X7171592Y-44519881D01*
X7059881Y-44631592D01*
X6980889Y-44768409D01*
X6975387Y-44788940D01*
X6138380Y-43951934D01*
X6081810Y-44025659D01*
X6081801Y-44025673D01*
X5967106Y-44224330D01*
X5967102Y-44224340D01*
X5879318Y-44436269D01*
X5819942Y-44657862D01*
X5790001Y-44885289D01*
X5790000Y-44885305D01*
X4210499Y-44885305D01*
X4210499Y-43702128D01*
X4204091Y-43642517D01*
X4187629Y-43598381D01*
X4153797Y-43507671D01*
X4153793Y-43507664D01*
X4067547Y-43392455D01*
X4067544Y-43392452D01*
X3952335Y-43306206D01*
X3952328Y-43306202D01*
X3817482Y-43255908D01*
X3817483Y-43255908D01*
X3757883Y-43249501D01*
X3757881Y-43249500D01*
X3757873Y-43249500D01*
X3757864Y-43249500D01*
X1162129Y-43249500D01*
X1162123Y-43249501D01*
X1102516Y-43255908D01*
X967671Y-43306202D01*
X967664Y-43306206D01*
X852455Y-43392452D01*
X852452Y-43392455D01*
X766206Y-43507664D01*
X766202Y-43507671D01*
X740682Y-43576096D01*
X698811Y-43632030D01*
X633347Y-43656447D01*
X565074Y-43641595D01*
X515668Y-43592190D01*
X500500Y-43532763D01*
X500500Y-24102135D01*
X3649500Y-24102135D01*
X3649500Y-25897870D01*
X3649501Y-25897876D01*
X3655908Y-25957483D01*
X3706202Y-26092328D01*
X3706206Y-26092335D01*
X3792452Y-26207544D01*
X3792455Y-26207547D01*
X3907664Y-26293793D01*
X3907671Y-26293797D01*
X4039082Y-26342810D01*
X4095016Y-26384681D01*
X4119433Y-26450145D01*
X4104582Y-26518418D01*
X4083431Y-26546673D01*
X3969889Y-26660215D01*
X3844951Y-26832179D01*
X3748444Y-27021585D01*
X3682753Y-27223760D01*
X3649500Y-27433713D01*
X3649500Y-27646286D01*
X3682024Y-27851639D01*
X3682754Y-27856243D01*
X3697133Y-27900498D01*
X3748444Y-28058414D01*
X3844951Y-28247820D01*
X3969890Y-28419786D01*
X4120213Y-28570109D01*
X4292179Y-28695048D01*
X4292181Y-28695049D01*
X4292184Y-28695051D01*
X4481588Y-28791557D01*
X4683757Y-28857246D01*
X4893713Y-28890500D01*
X4893714Y-28890500D01*
X5106286Y-28890500D01*
X5106287Y-28890500D01*
X5316243Y-28857246D01*
X5518412Y-28791557D01*
X5707816Y-28695051D01*
X5729789Y-28679086D01*
X5879786Y-28570109D01*
X5879788Y-28570106D01*
X5879792Y-28570104D01*
X6030104Y-28419792D01*
X6030106Y-28419788D01*
X6030109Y-28419786D01*
X6157915Y-28243875D01*
X6159259Y-28244851D01*
X6205705Y-28202834D01*
X6259618Y-28190500D01*
X27325638Y-28190500D01*
X27392677Y-28210185D01*
X27413319Y-28226819D01*
X27425961Y-28239461D01*
X27425965Y-28239464D01*
X27573446Y-28338009D01*
X27573459Y-28338016D01*
X27696363Y-28388923D01*
X27737334Y-28405894D01*
X27737336Y-28405894D01*
X27737341Y-28405896D01*
X27911304Y-28440499D01*
X27911307Y-28440500D01*
X27911309Y-28440500D01*
X28088693Y-28440500D01*
X28088694Y-28440499D01*
X28146682Y-28428964D01*
X28262658Y-28405896D01*
X28262661Y-28405894D01*
X28262666Y-28405894D01*
X28426547Y-28338013D01*
X28574035Y-28239464D01*
X28699464Y-28114035D01*
X28798013Y-27966547D01*
X28865894Y-27802666D01*
X28872983Y-27767030D01*
X28900499Y-27628695D01*
X28900500Y-27628693D01*
X28900500Y-27451306D01*
X28900499Y-27451304D01*
X28865896Y-27277341D01*
X28865893Y-27277332D01*
X28798016Y-27113459D01*
X28798009Y-27113446D01*
X28699464Y-26965965D01*
X28699461Y-26965961D01*
X28574038Y-26840538D01*
X28574034Y-26840535D01*
X28426553Y-26741990D01*
X28426540Y-26741983D01*
X28262667Y-26674106D01*
X28262658Y-26674103D01*
X28088694Y-26639500D01*
X28088691Y-26639500D01*
X27911309Y-26639500D01*
X27911306Y-26639500D01*
X27737341Y-26674103D01*
X27737332Y-26674106D01*
X27573459Y-26741983D01*
X27573446Y-26741990D01*
X27425965Y-26840535D01*
X27425961Y-26840538D01*
X27413319Y-26853181D01*
X27351996Y-26886666D01*
X27325638Y-26889500D01*
X6259618Y-26889500D01*
X6192579Y-26869815D01*
X6158900Y-26835408D01*
X6157915Y-26836125D01*
X6030109Y-26660213D01*
X5916569Y-26546673D01*
X5883084Y-26485350D01*
X5888068Y-26415658D01*
X5929940Y-26359725D01*
X5960915Y-26342810D01*
X6092331Y-26293796D01*
X6207546Y-26207546D01*
X6293796Y-26092331D01*
X6344091Y-25957483D01*
X6350500Y-25897873D01*
X6350500Y-25774500D01*
X6370185Y-25707461D01*
X6422989Y-25661706D01*
X6474500Y-25650500D01*
X22064071Y-25650500D01*
X22148615Y-25633682D01*
X22189744Y-25625501D01*
X22308127Y-25576465D01*
X22414669Y-25505276D01*
X22505276Y-25414669D01*
X22576465Y-25308127D01*
X22625501Y-25189744D01*
X22650500Y-25064069D01*
X22650500Y-20134500D01*
X22670185Y-20067461D01*
X22722989Y-20021706D01*
X22774500Y-20010500D01*
X23912235Y-20010500D01*
X23979274Y-20030185D01*
X24025029Y-20082989D01*
X24034973Y-20152147D01*
X24026796Y-20181952D01*
X23957950Y-20348160D01*
X23957947Y-20348170D01*
X23919500Y-20541456D01*
X23919500Y-20541459D01*
X23919500Y-20738541D01*
X23919500Y-20738543D01*
X23919499Y-20738543D01*
X23957947Y-20931829D01*
X23957950Y-20931839D01*
X24033364Y-21113907D01*
X24033371Y-21113920D01*
X24142860Y-21277781D01*
X24142863Y-21277785D01*
X24282214Y-21417136D01*
X24282218Y-21417139D01*
X24446079Y-21526628D01*
X24446092Y-21526635D01*
X24563451Y-21575246D01*
X24628165Y-21602051D01*
X24628169Y-21602051D01*
X24628170Y-21602052D01*
X24821456Y-21640500D01*
X37220440Y-21640500D01*
X37286849Y-21660000D01*
X38887295Y-21660000D01*
X38887295Y-21659998D01*
X38887100Y-21657513D01*
X38841281Y-21499802D01*
X38817345Y-21459329D01*
X38800161Y-21391605D01*
X38822320Y-21325342D01*
X38836390Y-21308530D01*
X38867139Y-21277782D01*
X38976632Y-21113914D01*
X39052051Y-20931835D01*
X39071864Y-20832229D01*
X39090500Y-20738543D01*
X39090500Y-20541456D01*
X39052052Y-20348170D01*
X39052051Y-20348169D01*
X39052051Y-20348165D01*
X39022905Y-20277800D01*
X38976635Y-20166092D01*
X38976628Y-20166079D01*
X38867139Y-20002218D01*
X38867136Y-20002214D01*
X38833045Y-19968124D01*
X38799559Y-19906802D01*
X38804543Y-19837110D01*
X38813987Y-19817332D01*
X38841744Y-19770398D01*
X38887598Y-19612569D01*
X38890500Y-19575694D01*
X38890500Y-19144306D01*
X38887598Y-19107431D01*
X38871457Y-19051875D01*
X38841745Y-18949606D01*
X38841744Y-18949603D01*
X38841744Y-18949602D01*
X38758081Y-18808135D01*
X38758078Y-18808132D01*
X38753298Y-18801969D01*
X38755750Y-18800066D01*
X38729155Y-18751421D01*
X38734104Y-18681726D01*
X38754940Y-18649304D01*
X38753298Y-18648031D01*
X38758075Y-18641870D01*
X38758081Y-18641865D01*
X38841744Y-18500398D01*
X38887598Y-18342569D01*
X38890500Y-18305694D01*
X38890500Y-17874306D01*
X38887598Y-17837431D01*
X38867144Y-17767030D01*
X38841745Y-17679606D01*
X38841744Y-17679603D01*
X38841744Y-17679602D01*
X38758081Y-17538135D01*
X38758079Y-17538133D01*
X38758076Y-17538129D01*
X38641870Y-17421923D01*
X38641862Y-17421917D01*
X38550850Y-17368093D01*
X38500398Y-17338256D01*
X38500397Y-17338255D01*
X38500396Y-17338255D01*
X38500393Y-17338254D01*
X38342573Y-17292402D01*
X38342567Y-17292401D01*
X38305701Y-17289500D01*
X38305694Y-17289500D01*
X37874306Y-17289500D01*
X37874298Y-17289500D01*
X37837432Y-17292401D01*
X37837426Y-17292402D01*
X37692267Y-17334576D01*
X37657672Y-17339500D01*
X36874500Y-17339500D01*
X36807461Y-17319815D01*
X36761706Y-17267011D01*
X36750500Y-17215500D01*
X36750500Y-10926079D01*
X36721659Y-10781092D01*
X36721658Y-10781091D01*
X36721658Y-10781087D01*
X36708297Y-10748831D01*
X36665087Y-10644511D01*
X36665080Y-10644498D01*
X36582951Y-10521584D01*
X36582948Y-10521580D01*
X36478419Y-10417051D01*
X36478415Y-10417048D01*
X36355501Y-10334919D01*
X36355488Y-10334912D01*
X36218917Y-10278343D01*
X36218907Y-10278340D01*
X36073920Y-10249500D01*
X36073918Y-10249500D01*
X35954500Y-10249500D01*
X35887461Y-10229815D01*
X35841706Y-10177011D01*
X35830500Y-10125500D01*
X35830500Y-9372631D01*
X35850185Y-9305592D01*
X35881614Y-9272313D01*
X36057510Y-9144517D01*
X36224517Y-8977510D01*
X36363343Y-8786433D01*
X36470568Y-8575992D01*
X36543553Y-8351368D01*
X36580500Y-8118097D01*
X36580500Y-7881902D01*
X36543553Y-7648631D01*
X36470566Y-7424003D01*
X36363342Y-7213566D01*
X36224517Y-7022490D01*
X36057510Y-6855483D01*
X35866433Y-6716657D01*
X35821560Y-6693793D01*
X35655996Y-6609433D01*
X35431368Y-6536446D01*
X35198097Y-6499500D01*
X35198092Y-6499500D01*
X34961908Y-6499500D01*
X34961903Y-6499500D01*
X34728631Y-6536446D01*
X34504003Y-6609433D01*
X34293566Y-6716657D01*
X34237119Y-6757669D01*
X34102490Y-6855483D01*
X34102488Y-6855485D01*
X34102487Y-6855485D01*
X33935485Y-7022487D01*
X33935485Y-7022488D01*
X33935483Y-7022490D01*
X33875862Y-7104550D01*
X33796657Y-7213566D01*
X33689433Y-7424003D01*
X33616446Y-7648631D01*
X33579500Y-7881902D01*
X33579500Y-8118097D01*
X33616446Y-8351368D01*
X33689433Y-8575996D01*
X33796657Y-8786433D01*
X33935483Y-8977510D01*
X34102490Y-9144517D01*
X34237125Y-9242335D01*
X34278386Y-9272313D01*
X34321051Y-9327643D01*
X34329500Y-9372631D01*
X34329500Y-10125500D01*
X34309815Y-10192539D01*
X34257011Y-10238294D01*
X34205500Y-10249500D01*
X28326080Y-10249500D01*
X28181092Y-10278340D01*
X28181082Y-10278343D01*
X28044511Y-10334912D01*
X28044498Y-10334919D01*
X27921584Y-10417048D01*
X27921580Y-10417051D01*
X27817051Y-10521580D01*
X27817048Y-10521584D01*
X27734919Y-10644498D01*
X27734912Y-10644511D01*
X27678343Y-10781082D01*
X27678340Y-10781092D01*
X27649500Y-10926079D01*
X27649500Y-13707057D01*
X27629815Y-13774096D01*
X27580595Y-13818145D01*
X27550704Y-13832969D01*
X27402278Y-13952277D01*
X27402277Y-13952278D01*
X27282969Y-14100704D01*
X27282967Y-14100707D01*
X27198360Y-14271302D01*
X27152400Y-14456107D01*
X27149500Y-14498879D01*
X27149500Y-15501122D01*
X27149501Y-15501125D01*
X27152399Y-15543886D01*
X27152399Y-15543887D01*
X27169221Y-15611529D01*
X27197851Y-15726652D01*
X27198360Y-15728696D01*
X27282967Y-15899292D01*
X27282969Y-15899295D01*
X27402277Y-16047721D01*
X27402278Y-16047722D01*
X27550704Y-16167030D01*
X27550707Y-16167032D01*
X27721302Y-16251639D01*
X27721303Y-16251639D01*
X27721307Y-16251641D01*
X27906111Y-16297600D01*
X27948877Y-16300500D01*
X28851122Y-16300499D01*
X28893889Y-16297600D01*
X29078693Y-16251641D01*
X29249296Y-16167030D01*
X29397722Y-16047722D01*
X29517030Y-15899296D01*
X29601641Y-15728693D01*
X29647600Y-15543889D01*
X29650500Y-15501123D01*
X29650499Y-14498878D01*
X29647600Y-14456111D01*
X29601641Y-14271307D01*
X29567332Y-14202129D01*
X29517032Y-14100707D01*
X29517030Y-14100704D01*
X29397722Y-13952278D01*
X29397721Y-13952277D01*
X29249295Y-13832969D01*
X29219405Y-13818145D01*
X29168092Y-13770723D01*
X29150500Y-13707057D01*
X29150500Y-11874500D01*
X29170185Y-11807461D01*
X29222989Y-11761706D01*
X29274500Y-11750500D01*
X35006082Y-11750500D01*
X35125500Y-11750500D01*
X35192539Y-11770185D01*
X35238294Y-11822989D01*
X35249500Y-11874500D01*
X35249500Y-13410122D01*
X35229815Y-13477161D01*
X35177011Y-13522916D01*
X35107853Y-13532860D01*
X35082168Y-13526304D01*
X35027485Y-13505909D01*
X35027483Y-13505908D01*
X34967883Y-13499501D01*
X34967881Y-13499500D01*
X34967873Y-13499500D01*
X34967865Y-13499500D01*
X34873373Y-13499500D01*
X34806334Y-13479815D01*
X34760579Y-13427011D01*
X34750635Y-13357853D01*
X34758812Y-13328048D01*
X34767084Y-13308078D01*
X34785894Y-13262666D01*
X34805002Y-13166607D01*
X34820499Y-13088695D01*
X34820500Y-13088693D01*
X34820500Y-12911306D01*
X34820499Y-12911304D01*
X34785896Y-12737341D01*
X34785893Y-12737332D01*
X34718016Y-12573459D01*
X34718009Y-12573446D01*
X34619464Y-12425965D01*
X34619461Y-12425961D01*
X34494038Y-12300538D01*
X34494034Y-12300535D01*
X34346553Y-12201990D01*
X34346540Y-12201983D01*
X34182667Y-12134106D01*
X34182658Y-12134103D01*
X34008694Y-12099500D01*
X34008691Y-12099500D01*
X33831309Y-12099500D01*
X33831306Y-12099500D01*
X33657341Y-12134103D01*
X33657332Y-12134106D01*
X33493459Y-12201983D01*
X33493446Y-12201990D01*
X33345965Y-12300535D01*
X33345961Y-12300538D01*
X33220538Y-12425961D01*
X33220535Y-12425965D01*
X33121990Y-12573446D01*
X33121983Y-12573459D01*
X33054106Y-12737332D01*
X33054103Y-12737341D01*
X33019500Y-12911304D01*
X33019500Y-13088695D01*
X33054103Y-13262658D01*
X33054105Y-13262662D01*
X33054106Y-13262666D01*
X33068370Y-13297102D01*
X33081188Y-13328049D01*
X33088655Y-13397519D01*
X33057380Y-13459997D01*
X32997290Y-13495649D01*
X32966627Y-13499500D01*
X32872130Y-13499500D01*
X32872123Y-13499501D01*
X32812516Y-13505908D01*
X32677671Y-13556202D01*
X32677664Y-13556206D01*
X32562455Y-13642452D01*
X32562181Y-13642727D01*
X32561840Y-13642912D01*
X32555355Y-13647768D01*
X32554656Y-13646835D01*
X32542744Y-13653339D01*
X32526011Y-13667840D01*
X32512679Y-13669756D01*
X32500858Y-13676212D01*
X32478771Y-13674632D01*
X32456853Y-13677784D01*
X32444601Y-13672188D01*
X32431166Y-13671228D01*
X32413439Y-13657957D01*
X32393297Y-13648759D01*
X32386014Y-13637427D01*
X32375233Y-13629356D01*
X32367495Y-13608610D01*
X32355523Y-13589981D01*
X32352371Y-13568062D01*
X32350816Y-13563892D01*
X32350500Y-13555046D01*
X32350500Y-13535269D01*
X32370185Y-13468230D01*
X32371398Y-13466378D01*
X32375662Y-13459997D01*
X32398013Y-13426547D01*
X32465894Y-13262666D01*
X32485002Y-13166607D01*
X32500499Y-13088695D01*
X32500500Y-13088693D01*
X32500500Y-12911306D01*
X32500499Y-12911304D01*
X32465896Y-12737341D01*
X32465893Y-12737332D01*
X32398016Y-12573459D01*
X32398009Y-12573446D01*
X32299464Y-12425965D01*
X32299461Y-12425961D01*
X32174038Y-12300538D01*
X32174034Y-12300535D01*
X32026553Y-12201990D01*
X32026540Y-12201983D01*
X31862667Y-12134106D01*
X31862658Y-12134103D01*
X31688694Y-12099500D01*
X31688691Y-12099500D01*
X31511309Y-12099500D01*
X31511306Y-12099500D01*
X31337341Y-12134103D01*
X31337332Y-12134106D01*
X31173459Y-12201983D01*
X31173446Y-12201990D01*
X31025965Y-12300535D01*
X31025961Y-12300538D01*
X30900538Y-12425961D01*
X30900535Y-12425965D01*
X30801990Y-12573446D01*
X30801983Y-12573459D01*
X30734106Y-12737332D01*
X30734103Y-12737341D01*
X30699500Y-12911304D01*
X30699500Y-13088695D01*
X30734103Y-13262658D01*
X30734106Y-13262667D01*
X30801984Y-13426542D01*
X30801985Y-13426543D01*
X30801987Y-13426547D01*
X30824338Y-13459997D01*
X30828602Y-13466378D01*
X30834252Y-13484424D01*
X30844477Y-13500334D01*
X30848928Y-13531293D01*
X30849480Y-13533055D01*
X30849500Y-13535269D01*
X30849500Y-13707057D01*
X30829815Y-13774096D01*
X30780595Y-13818145D01*
X30750704Y-13832969D01*
X30602278Y-13952277D01*
X30602277Y-13952278D01*
X30482969Y-14100704D01*
X30482967Y-14100707D01*
X30398360Y-14271302D01*
X30352400Y-14456107D01*
X30349500Y-14498879D01*
X30349500Y-15501122D01*
X30349501Y-15501125D01*
X30352399Y-15543886D01*
X30352399Y-15543887D01*
X30369221Y-15611529D01*
X30397851Y-15726652D01*
X30398360Y-15728696D01*
X30482967Y-15899292D01*
X30482969Y-15899295D01*
X30602277Y-16047721D01*
X30602278Y-16047722D01*
X30750704Y-16167030D01*
X30750707Y-16167032D01*
X30921302Y-16251639D01*
X30921303Y-16251639D01*
X30921307Y-16251641D01*
X31106111Y-16297600D01*
X31148877Y-16300500D01*
X32051122Y-16300499D01*
X32093889Y-16297600D01*
X32278693Y-16251641D01*
X32335319Y-16223556D01*
X32404123Y-16211404D01*
X32468575Y-16238379D01*
X32489677Y-16260329D01*
X32562454Y-16357546D01*
X32590500Y-16378541D01*
X32677664Y-16443793D01*
X32677671Y-16443797D01*
X32812517Y-16494091D01*
X32812516Y-16494091D01*
X32819444Y-16494835D01*
X32872127Y-16500500D01*
X34967872Y-16500499D01*
X35027483Y-16494091D01*
X35082167Y-16473694D01*
X35151858Y-16468711D01*
X35213181Y-16502196D01*
X35246666Y-16563519D01*
X35249500Y-16589877D01*
X35249500Y-18016082D01*
X35249500Y-18163918D01*
X35249500Y-18163920D01*
X35249499Y-18163920D01*
X35278340Y-18308907D01*
X35278343Y-18308917D01*
X35334912Y-18445488D01*
X35334919Y-18445501D01*
X35382432Y-18516609D01*
X35403310Y-18583287D01*
X35384825Y-18650667D01*
X35332846Y-18697357D01*
X35279330Y-18709500D01*
X21935929Y-18709500D01*
X21810261Y-18734497D01*
X21810255Y-18734499D01*
X21691875Y-18783533D01*
X21691866Y-18783538D01*
X21585331Y-18854723D01*
X21585327Y-18854726D01*
X21494726Y-18945327D01*
X21494723Y-18945331D01*
X21423538Y-19051866D01*
X21423533Y-19051875D01*
X21374499Y-19170255D01*
X21374497Y-19170261D01*
X21349500Y-19295928D01*
X21349500Y-24225500D01*
X21329815Y-24292539D01*
X21277011Y-24338294D01*
X21225500Y-24349500D01*
X6474499Y-24349500D01*
X6407460Y-24329815D01*
X6361705Y-24277011D01*
X6350499Y-24225500D01*
X6350499Y-24102129D01*
X6350498Y-24102123D01*
X6350497Y-24102116D01*
X6344091Y-24042517D01*
X6331094Y-24007671D01*
X6293797Y-23907671D01*
X6293793Y-23907664D01*
X6207547Y-23792455D01*
X6207544Y-23792452D01*
X6092335Y-23706206D01*
X6092328Y-23706202D01*
X5957482Y-23655908D01*
X5957483Y-23655908D01*
X5897883Y-23649501D01*
X5897881Y-23649500D01*
X5897873Y-23649500D01*
X5897864Y-23649500D01*
X4102129Y-23649500D01*
X4102123Y-23649501D01*
X4042516Y-23655908D01*
X3907671Y-23706202D01*
X3907664Y-23706206D01*
X3792455Y-23792452D01*
X3792452Y-23792455D01*
X3706206Y-23907664D01*
X3706202Y-23907671D01*
X3655908Y-24042517D01*
X3649501Y-24102116D01*
X3649501Y-24102123D01*
X3649500Y-24102135D01*
X500500Y-24102135D01*
X500500Y-6467236D01*
X520185Y-6400197D01*
X572989Y-6354442D01*
X642147Y-6344498D01*
X705703Y-6373523D01*
X740682Y-6423903D01*
X766202Y-6492328D01*
X766206Y-6492335D01*
X852452Y-6607544D01*
X852455Y-6607547D01*
X967664Y-6693793D01*
X967671Y-6693797D01*
X1102517Y-6744091D01*
X1102516Y-6744091D01*
X1109444Y-6744835D01*
X1162127Y-6750500D01*
X3757872Y-6750499D01*
X3817483Y-6744091D01*
X3952331Y-6693796D01*
X4067546Y-6607546D01*
X4153796Y-6492331D01*
X4204091Y-6357483D01*
X4210500Y-6297873D01*
X4210499Y-3702128D01*
X4204091Y-3642517D01*
X4200180Y-3632030D01*
X4194885Y-3617832D01*
X4189901Y-3548140D01*
X4223387Y-3486818D01*
X4284711Y-3453333D01*
X4311067Y-3450500D01*
X6369234Y-3450500D01*
X6436273Y-3470185D01*
X6482028Y-3522989D01*
X6492968Y-3582611D01*
X6491934Y-3598381D01*
X7328941Y-4435387D01*
X7308409Y-4440889D01*
X7171592Y-4519881D01*
X7059881Y-4631592D01*
X6980889Y-4768409D01*
X6975387Y-4788940D01*
X6138380Y-3951934D01*
X6081810Y-4025659D01*
X6081801Y-4025673D01*
X5967106Y-4224330D01*
X5967102Y-4224340D01*
X5879318Y-4436269D01*
X5819942Y-4657862D01*
X5790001Y-4885289D01*
X5790000Y-4885305D01*
X5790000Y-5114694D01*
X5790001Y-5114710D01*
X5819942Y-5342137D01*
X5879318Y-5563730D01*
X5967102Y-5775659D01*
X5967106Y-5775669D01*
X6081799Y-5974324D01*
X6081805Y-5974331D01*
X6138381Y-6048064D01*
X6975387Y-5211058D01*
X6980889Y-5231591D01*
X7059881Y-5368408D01*
X7171592Y-5480119D01*
X7308409Y-5559111D01*
X7328940Y-5564612D01*
X6491934Y-6401617D01*
X6491934Y-6401618D01*
X6565666Y-6458194D01*
X6764330Y-6572893D01*
X6764340Y-6572897D01*
X6976269Y-6660681D01*
X7197862Y-6720057D01*
X7425289Y-6749998D01*
X7425306Y-6750000D01*
X7654694Y-6750000D01*
X7654710Y-6749998D01*
X7882137Y-6720057D01*
X8103730Y-6660681D01*
X8315659Y-6572897D01*
X8315668Y-6572893D01*
X8514327Y-6458197D01*
X8514334Y-6458192D01*
X8588064Y-6401617D01*
X7751059Y-5564612D01*
X7771591Y-5559111D01*
X7908408Y-5480119D01*
X8020119Y-5368408D01*
X8099111Y-5231591D01*
X8104612Y-5211058D01*
X8941617Y-6048064D01*
X8998192Y-5974334D01*
X8998197Y-5974327D01*
X9112893Y-5775668D01*
X9112897Y-5775659D01*
X9200681Y-5563730D01*
X9260057Y-5342137D01*
X9289998Y-5114710D01*
X9290000Y-5114694D01*
X9290000Y-4885305D01*
X9289998Y-4885289D01*
X9260057Y-4657862D01*
X9200681Y-4436269D01*
X9114226Y-4227548D01*
X9106757Y-4158078D01*
X9138032Y-4095599D01*
X9198121Y-4059947D01*
X9267946Y-4062441D01*
X9276240Y-4065534D01*
X9355571Y-4098394D01*
X9355581Y-4098398D01*
X9608884Y-4166270D01*
X9868880Y-4200500D01*
X13375500Y-4200500D01*
X13442539Y-4220185D01*
X13488294Y-4272989D01*
X13499500Y-4324500D01*
X13499500Y-12131127D01*
X13521805Y-12300538D01*
X13533730Y-12391116D01*
X13601602Y-12644418D01*
X13601605Y-12644428D01*
X13701953Y-12886690D01*
X13701958Y-12886700D01*
X13833075Y-13113803D01*
X13992718Y-13321851D01*
X13992726Y-13321860D01*
X14178140Y-13507274D01*
X14178148Y-13507281D01*
X14178149Y-13507282D01*
X14202879Y-13526258D01*
X14386196Y-13666924D01*
X14613299Y-13798041D01*
X14613309Y-13798046D01*
X14841226Y-13892452D01*
X14855581Y-13898398D01*
X15108884Y-13966270D01*
X15368880Y-14000500D01*
X15368887Y-14000500D01*
X16531113Y-14000500D01*
X16531120Y-14000500D01*
X16791116Y-13966270D01*
X17044419Y-13898398D01*
X17266995Y-13806204D01*
X17286690Y-13798046D01*
X17286691Y-13798045D01*
X17286697Y-13798043D01*
X17513803Y-13666924D01*
X17721851Y-13507282D01*
X17721855Y-13507277D01*
X17721860Y-13507274D01*
X17907274Y-13321860D01*
X17907277Y-13321855D01*
X17907282Y-13321851D01*
X18066924Y-13113803D01*
X18198043Y-12886697D01*
X18220705Y-12831987D01*
X18264545Y-12777583D01*
X18330840Y-12755518D01*
X18398539Y-12772797D01*
X18446150Y-12823934D01*
X18446354Y-12824344D01*
X18483392Y-12899025D01*
X18602632Y-13047366D01*
X18602633Y-13047367D01*
X18750974Y-13166607D01*
X18750977Y-13166609D01*
X18921476Y-13251168D01*
X19106175Y-13297102D01*
X19148903Y-13300000D01*
X19350000Y-13300000D01*
X19850000Y-13300000D01*
X20051097Y-13300000D01*
X20093824Y-13297102D01*
X20278523Y-13251168D01*
X20449022Y-13166609D01*
X20449025Y-13166607D01*
X20597366Y-13047367D01*
X20597367Y-13047366D01*
X20716607Y-12899025D01*
X20716609Y-12899022D01*
X20801168Y-12728523D01*
X20847102Y-12543824D01*
X20850000Y-12501096D01*
X20850000Y-12250000D01*
X19850000Y-12250000D01*
X19850000Y-13300000D01*
X19350000Y-13300000D01*
X19350000Y-11750000D01*
X19850000Y-11750000D01*
X20850000Y-11750000D01*
X20850000Y-11498903D01*
X20847102Y-11456175D01*
X20801168Y-11271476D01*
X20716609Y-11100977D01*
X20716607Y-11100974D01*
X20597367Y-10952633D01*
X20597366Y-10952632D01*
X20449025Y-10833392D01*
X20449022Y-10833390D01*
X20278523Y-10748831D01*
X20093824Y-10702897D01*
X20051097Y-10700000D01*
X19850000Y-10700000D01*
X19850000Y-11750000D01*
X19350000Y-11750000D01*
X19350000Y-10700000D01*
X19148903Y-10700000D01*
X19106175Y-10702897D01*
X18921476Y-10748831D01*
X18750977Y-10833390D01*
X18750974Y-10833392D01*
X18602187Y-10952991D01*
X18537603Y-10979650D01*
X18468859Y-10967159D01*
X18417780Y-10919486D01*
X18400500Y-10856344D01*
X18400500Y-6952135D01*
X23419500Y-6952135D01*
X23419500Y-9047870D01*
X23419501Y-9047876D01*
X23425908Y-9107483D01*
X23476202Y-9242328D01*
X23476206Y-9242335D01*
X23562452Y-9357544D01*
X23562455Y-9357547D01*
X23677664Y-9443793D01*
X23677671Y-9443797D01*
X23812517Y-9494091D01*
X23812516Y-9494091D01*
X23819444Y-9494835D01*
X23872127Y-9500500D01*
X25967872Y-9500499D01*
X26027483Y-9494091D01*
X26162331Y-9443796D01*
X26277546Y-9357546D01*
X26363796Y-9242331D01*
X26414091Y-9107483D01*
X26420500Y-9047873D01*
X26420499Y-6952128D01*
X26414091Y-6892517D01*
X26400278Y-6855483D01*
X26363797Y-6757671D01*
X26363793Y-6757664D01*
X26277547Y-6642455D01*
X26277544Y-6642452D01*
X26162335Y-6556206D01*
X26162328Y-6556202D01*
X26027482Y-6505908D01*
X26027483Y-6505908D01*
X25967883Y-6499501D01*
X25967881Y-6499500D01*
X25967873Y-6499500D01*
X25967864Y-6499500D01*
X23872129Y-6499500D01*
X23872123Y-6499501D01*
X23812516Y-6505908D01*
X23677671Y-6556202D01*
X23677664Y-6556206D01*
X23562455Y-6642452D01*
X23562452Y-6642455D01*
X23476206Y-6757664D01*
X23476202Y-6757671D01*
X23425908Y-6892517D01*
X23419501Y-6952116D01*
X23419501Y-6952123D01*
X23419500Y-6952135D01*
X18400500Y-6952135D01*
X18400500Y-4324500D01*
X18420185Y-4257461D01*
X18472989Y-4211706D01*
X18524500Y-4200500D01*
X19021527Y-4200500D01*
X19088566Y-4220185D01*
X19134321Y-4272989D01*
X19144265Y-4342147D01*
X19132012Y-4380795D01*
X19109897Y-4424197D01*
X19036934Y-4648752D01*
X19000000Y-4881947D01*
X19000000Y-5118052D01*
X19036934Y-5351247D01*
X19109897Y-5575802D01*
X19217087Y-5786174D01*
X19277338Y-5869104D01*
X19277340Y-5869105D01*
X20100000Y-5046445D01*
X20100000Y-5052661D01*
X20127259Y-5154394D01*
X20179920Y-5245606D01*
X20254394Y-5320080D01*
X20345606Y-5372741D01*
X20447339Y-5400000D01*
X20453554Y-5400000D01*
X19630893Y-6222658D01*
X19713828Y-6282914D01*
X19924197Y-6390102D01*
X20148752Y-6463065D01*
X20148751Y-6463065D01*
X20381948Y-6500000D01*
X20618052Y-6500000D01*
X20851247Y-6463065D01*
X21075802Y-6390102D01*
X21286163Y-6282918D01*
X21286169Y-6282914D01*
X21369104Y-6222658D01*
X21369105Y-6222658D01*
X20546446Y-5400000D01*
X20552661Y-5400000D01*
X20654394Y-5372741D01*
X20745606Y-5320080D01*
X20820080Y-5245606D01*
X20872741Y-5154394D01*
X20900000Y-5052661D01*
X20900000Y-5046447D01*
X21722658Y-5869105D01*
X21722658Y-5869104D01*
X21782914Y-5786169D01*
X21782918Y-5786163D01*
X21890102Y-5575802D01*
X21963065Y-5351247D01*
X22000000Y-5118052D01*
X22000000Y-4881947D01*
X21963065Y-4648752D01*
X21890102Y-4424197D01*
X21867988Y-4380795D01*
X21855092Y-4312126D01*
X21881368Y-4247386D01*
X21938474Y-4207128D01*
X21978473Y-4200500D01*
X56625500Y-4200500D01*
X56692539Y-4220185D01*
X56738294Y-4272989D01*
X56749500Y-4324500D01*
X56749500Y-13780942D01*
X56729815Y-13847981D01*
X56677011Y-13893736D01*
X56607853Y-13903680D01*
X56551189Y-13880209D01*
X56535374Y-13868370D01*
X56452331Y-13806204D01*
X56452329Y-13806203D01*
X56452328Y-13806202D01*
X56317482Y-13755908D01*
X56317483Y-13755908D01*
X56257883Y-13749501D01*
X56257881Y-13749500D01*
X56257873Y-13749500D01*
X56257864Y-13749500D01*
X54662129Y-13749500D01*
X54662123Y-13749501D01*
X54602516Y-13755908D01*
X54467671Y-13806202D01*
X54467664Y-13806206D01*
X54352455Y-13892452D01*
X54352452Y-13892455D01*
X54266206Y-14007664D01*
X54266202Y-14007671D01*
X54215908Y-14142517D01*
X54214126Y-14150062D01*
X54211853Y-14149525D01*
X54189571Y-14203312D01*
X54132177Y-14243157D01*
X54093024Y-14249500D01*
X52374500Y-14249500D01*
X52307461Y-14229815D01*
X52261706Y-14177011D01*
X52250500Y-14125500D01*
X52250500Y-11926079D01*
X52221659Y-11781092D01*
X52221658Y-11781091D01*
X52221658Y-11781087D01*
X52213630Y-11761706D01*
X52165087Y-11644511D01*
X52165080Y-11644498D01*
X52082951Y-11521584D01*
X52082948Y-11521580D01*
X51978419Y-11417051D01*
X51978415Y-11417048D01*
X51855501Y-11334919D01*
X51855488Y-11334912D01*
X51718917Y-11278343D01*
X51718907Y-11278340D01*
X51573920Y-11249500D01*
X51573918Y-11249500D01*
X44153918Y-11249500D01*
X44006082Y-11249500D01*
X44006080Y-11249500D01*
X43861092Y-11278340D01*
X43861082Y-11278343D01*
X43724511Y-11334912D01*
X43724498Y-11334919D01*
X43601584Y-11417048D01*
X43601580Y-11417051D01*
X43497051Y-11521580D01*
X43497048Y-11521584D01*
X43414919Y-11644498D01*
X43414912Y-11644511D01*
X43358343Y-11781082D01*
X43358340Y-11781092D01*
X43329500Y-11926079D01*
X43329500Y-13627368D01*
X43309815Y-13694407D01*
X43278386Y-13727686D01*
X43102488Y-13855484D01*
X42935485Y-14022487D01*
X42935485Y-14022488D01*
X42935483Y-14022490D01*
X42879164Y-14100006D01*
X42796653Y-14213572D01*
X42794982Y-14216852D01*
X42747006Y-14267646D01*
X42679184Y-14284439D01*
X42613050Y-14261899D01*
X42569601Y-14207182D01*
X42560500Y-14160553D01*
X42560500Y-12674361D01*
X42580185Y-12607322D01*
X42596816Y-12586682D01*
X42609464Y-12574035D01*
X42708013Y-12426547D01*
X42775894Y-12262666D01*
X42778414Y-12250000D01*
X42810499Y-12088695D01*
X42810500Y-12088693D01*
X42810500Y-11911306D01*
X42810499Y-11911304D01*
X42775896Y-11737341D01*
X42775893Y-11737332D01*
X42708016Y-11573459D01*
X42708009Y-11573446D01*
X42609464Y-11425965D01*
X42609461Y-11425961D01*
X42484038Y-11300538D01*
X42484034Y-11300535D01*
X42336553Y-11201990D01*
X42336540Y-11201983D01*
X42172667Y-11134106D01*
X42172658Y-11134103D01*
X41998694Y-11099500D01*
X41998691Y-11099500D01*
X41821309Y-11099500D01*
X41821306Y-11099500D01*
X41647341Y-11134103D01*
X41647332Y-11134106D01*
X41483459Y-11201983D01*
X41483446Y-11201990D01*
X41335965Y-11300535D01*
X41335961Y-11300538D01*
X41210538Y-11425961D01*
X41210535Y-11425965D01*
X41111990Y-11573446D01*
X41111983Y-11573459D01*
X41044106Y-11737332D01*
X41044103Y-11737341D01*
X41009500Y-11911304D01*
X41009500Y-12088695D01*
X41044103Y-12262658D01*
X41044106Y-12262667D01*
X41111983Y-12426540D01*
X41111990Y-12426553D01*
X41210534Y-12574033D01*
X41210535Y-12574034D01*
X41210536Y-12574035D01*
X41223180Y-12586679D01*
X41256665Y-12647999D01*
X41259500Y-12674361D01*
X41259500Y-17474484D01*
X41242232Y-17537605D01*
X41158255Y-17679603D01*
X41158254Y-17679606D01*
X41112402Y-17837426D01*
X41112401Y-17837432D01*
X41109500Y-17874298D01*
X41109500Y-18305701D01*
X41112401Y-18342567D01*
X41112402Y-18342573D01*
X41158254Y-18500393D01*
X41158255Y-18500396D01*
X41241917Y-18641862D01*
X41246702Y-18648031D01*
X41244256Y-18649927D01*
X41270857Y-18698642D01*
X41265873Y-18768334D01*
X41245069Y-18800703D01*
X41246702Y-18801969D01*
X41241917Y-18808137D01*
X41158255Y-18949603D01*
X41158254Y-18949606D01*
X41112402Y-19107426D01*
X41112401Y-19107432D01*
X41109500Y-19144298D01*
X41109500Y-19575701D01*
X41112401Y-19612567D01*
X41112402Y-19612573D01*
X41158254Y-19770393D01*
X41158255Y-19770396D01*
X41158256Y-19770398D01*
X41195681Y-19833681D01*
X41241917Y-19911862D01*
X41241923Y-19911870D01*
X41242372Y-19912319D01*
X41242611Y-19912756D01*
X41246702Y-19918031D01*
X41245851Y-19918690D01*
X41275857Y-19973642D01*
X41270873Y-20043334D01*
X41246262Y-20081627D01*
X41246702Y-20081969D01*
X41242857Y-20086925D01*
X41242372Y-20087681D01*
X41241923Y-20088129D01*
X41241917Y-20088137D01*
X41158255Y-20229603D01*
X41158254Y-20229606D01*
X41112402Y-20387426D01*
X41112401Y-20387432D01*
X41109500Y-20424298D01*
X41109500Y-20855701D01*
X41112401Y-20892567D01*
X41112402Y-20892573D01*
X41158254Y-21050393D01*
X41158255Y-21050396D01*
X41158256Y-21050398D01*
X41188166Y-21100974D01*
X41241917Y-21191862D01*
X41246702Y-21198031D01*
X41244256Y-21199927D01*
X41270857Y-21248642D01*
X41265873Y-21318334D01*
X41245069Y-21350703D01*
X41246702Y-21351969D01*
X41241917Y-21358137D01*
X41158255Y-21499603D01*
X41158254Y-21499606D01*
X41112402Y-21657426D01*
X41112401Y-21657432D01*
X41109500Y-21694298D01*
X41109500Y-22125701D01*
X41112401Y-22162567D01*
X41112402Y-22162573D01*
X41154576Y-22307733D01*
X41159500Y-22342328D01*
X41159500Y-22525500D01*
X41139815Y-22592539D01*
X41087011Y-22638294D01*
X41035500Y-22649500D01*
X38863929Y-22649500D01*
X38796890Y-22629815D01*
X38751135Y-22577011D01*
X38741191Y-22507853D01*
X38757197Y-22462379D01*
X38841281Y-22320198D01*
X38887100Y-22162486D01*
X38887295Y-22160001D01*
X38887295Y-22160000D01*
X37292705Y-22160000D01*
X37292704Y-22160001D01*
X37292899Y-22162486D01*
X37338718Y-22320198D01*
X37422803Y-22462379D01*
X37439986Y-22530103D01*
X37417826Y-22596366D01*
X37363360Y-22640129D01*
X37316071Y-22649500D01*
X33846080Y-22649500D01*
X33701092Y-22678340D01*
X33701082Y-22678343D01*
X33564511Y-22734912D01*
X33564498Y-22734919D01*
X33441584Y-22817048D01*
X33441580Y-22817051D01*
X33337051Y-22921580D01*
X33337048Y-22921584D01*
X33254919Y-23044498D01*
X33254912Y-23044511D01*
X33198343Y-23181082D01*
X33198340Y-23181092D01*
X33169500Y-23326079D01*
X33169500Y-23375500D01*
X33149815Y-23442539D01*
X33097011Y-23488294D01*
X33045501Y-23499500D01*
X32872130Y-23499500D01*
X32872123Y-23499501D01*
X32812516Y-23505908D01*
X32677671Y-23556202D01*
X32677664Y-23556206D01*
X32562455Y-23642452D01*
X32562452Y-23642455D01*
X32476206Y-23757664D01*
X32476202Y-23757671D01*
X32425908Y-23892517D01*
X32419501Y-23952116D01*
X32419500Y-23952135D01*
X32419500Y-26047870D01*
X32419501Y-26047876D01*
X32425908Y-26107483D01*
X32476202Y-26242328D01*
X32476206Y-26242335D01*
X32562452Y-26357544D01*
X32562455Y-26357547D01*
X32677664Y-26443793D01*
X32677671Y-26443797D01*
X32812517Y-26494091D01*
X32812516Y-26494091D01*
X32819444Y-26494835D01*
X32872127Y-26500500D01*
X34967872Y-26500499D01*
X35027483Y-26494091D01*
X35162331Y-26443796D01*
X35277546Y-26357546D01*
X35363796Y-26242331D01*
X35414091Y-26107483D01*
X35420500Y-26047873D01*
X35420499Y-24274499D01*
X35440184Y-24207461D01*
X35492987Y-24161706D01*
X35544499Y-24150500D01*
X41836082Y-24150500D01*
X42626441Y-24150500D01*
X42693480Y-24170185D01*
X42739235Y-24222989D01*
X42749179Y-24292147D01*
X42736926Y-24330795D01*
X42689434Y-24424003D01*
X42616446Y-24648631D01*
X42579500Y-24881902D01*
X42579500Y-25118097D01*
X42616446Y-25351368D01*
X42689433Y-25575996D01*
X42770078Y-25734269D01*
X42796657Y-25786433D01*
X42935483Y-25977510D01*
X43102490Y-26144517D01*
X43293567Y-26283343D01*
X43375335Y-26325006D01*
X43504003Y-26390566D01*
X43504005Y-26390566D01*
X43504008Y-26390568D01*
X43624412Y-26429689D01*
X43728631Y-26463553D01*
X43961903Y-26500500D01*
X43961908Y-26500500D01*
X44198097Y-26500500D01*
X44431368Y-26463553D01*
X44472633Y-26450145D01*
X44655992Y-26390568D01*
X44866433Y-26283343D01*
X45057510Y-26144517D01*
X45224517Y-25977510D01*
X45352313Y-25801613D01*
X45407643Y-25758949D01*
X45452631Y-25750500D01*
X46669788Y-25750500D01*
X46736827Y-25770185D01*
X46782582Y-25822989D01*
X46792526Y-25892147D01*
X46790123Y-25904426D01*
X46752400Y-26056106D01*
X46749500Y-26098879D01*
X46749500Y-27101122D01*
X46749501Y-27101125D01*
X46752399Y-27143886D01*
X46752399Y-27143887D01*
X46798360Y-27328696D01*
X46882967Y-27499292D01*
X46882969Y-27499295D01*
X47002277Y-27647721D01*
X47002278Y-27647722D01*
X47150704Y-27767030D01*
X47150707Y-27767032D01*
X47321302Y-27851639D01*
X47321303Y-27851639D01*
X47321307Y-27851641D01*
X47506111Y-27897600D01*
X47548877Y-27900500D01*
X48451122Y-27900499D01*
X48493889Y-27897600D01*
X48678693Y-27851641D01*
X48849296Y-27767030D01*
X48997722Y-27647722D01*
X49117030Y-27499296D01*
X49201641Y-27328693D01*
X49247600Y-27143889D01*
X49250500Y-27101123D01*
X49250499Y-26098878D01*
X49247600Y-26056111D01*
X49209877Y-25904424D01*
X49212801Y-25834618D01*
X49253001Y-25777472D01*
X49317716Y-25751131D01*
X49330212Y-25750500D01*
X54093023Y-25750500D01*
X54160062Y-25770185D01*
X54205817Y-25822989D01*
X54213266Y-25850134D01*
X54214124Y-25849932D01*
X54215907Y-25857479D01*
X54266202Y-25992328D01*
X54266206Y-25992335D01*
X54352452Y-26107544D01*
X54352455Y-26107547D01*
X54467664Y-26193793D01*
X54467671Y-26193797D01*
X54602517Y-26244091D01*
X54602516Y-26244091D01*
X54609444Y-26244835D01*
X54662127Y-26250500D01*
X56257872Y-26250499D01*
X56317483Y-26244091D01*
X56452331Y-26193796D01*
X56567546Y-26107546D01*
X56653796Y-25992331D01*
X56704091Y-25857483D01*
X56710500Y-25797873D01*
X56710499Y-25734265D01*
X56730183Y-25667229D01*
X56782986Y-25621473D01*
X56852144Y-25611529D01*
X56915700Y-25640553D01*
X56934816Y-25661381D01*
X57013869Y-25770185D01*
X57046172Y-25814646D01*
X57185354Y-25953828D01*
X57344595Y-26069524D01*
X57402198Y-26098874D01*
X57519970Y-26158882D01*
X57519972Y-26158882D01*
X57519975Y-26158884D01*
X57620317Y-26191487D01*
X57707173Y-26219709D01*
X57901578Y-26250500D01*
X57901583Y-26250500D01*
X58098422Y-26250500D01*
X58292826Y-26219709D01*
X58294328Y-26219221D01*
X58480025Y-26158884D01*
X58655405Y-26069524D01*
X58814646Y-25953828D01*
X58953828Y-25814646D01*
X59069524Y-25655405D01*
X59158884Y-25480025D01*
X59158884Y-25480022D01*
X59159795Y-25478236D01*
X59207769Y-25427440D01*
X59275590Y-25410644D01*
X59341725Y-25433181D01*
X59380765Y-25478235D01*
X59470905Y-25655145D01*
X59496319Y-25690125D01*
X59496320Y-25690125D01*
X60140000Y-25046445D01*
X60140000Y-25052661D01*
X60167259Y-25154394D01*
X60219920Y-25245606D01*
X60294394Y-25320080D01*
X60385606Y-25372741D01*
X60487339Y-25400000D01*
X60493552Y-25400000D01*
X59849873Y-26043677D01*
X59849873Y-26043678D01*
X59884858Y-26069096D01*
X60060164Y-26158418D01*
X60247294Y-26219221D01*
X60441618Y-26250000D01*
X60638380Y-26250000D01*
X60698632Y-26240456D01*
X60767926Y-26249410D01*
X60821378Y-26294405D01*
X60842019Y-26361156D01*
X60841185Y-26377399D01*
X60445127Y-29748116D01*
X60445021Y-29749010D01*
X60429500Y-29866914D01*
X60429500Y-29881118D01*
X60428653Y-29888327D01*
X60428653Y-29888329D01*
X60427843Y-29895221D01*
X60427842Y-29895230D01*
X60429488Y-30013293D01*
X60429500Y-30015021D01*
X60429500Y-35133086D01*
X60464241Y-35396977D01*
X60533135Y-35654090D01*
X60634986Y-35899982D01*
X60634992Y-35899994D01*
X60768078Y-36130506D01*
X60768081Y-36130510D01*
X60768085Y-36130516D01*
X60930114Y-36341674D01*
X60930122Y-36341683D01*
X61118317Y-36529878D01*
X61118325Y-36529885D01*
X61329483Y-36691914D01*
X61329486Y-36691916D01*
X61329494Y-36691922D01*
X61560006Y-36825008D01*
X61560011Y-36825010D01*
X61560017Y-36825013D01*
X61805909Y-36926864D01*
X61805911Y-36926864D01*
X61805917Y-36926867D01*
X62063019Y-36995758D01*
X62260940Y-37021814D01*
X62326913Y-37030500D01*
X62326914Y-37030500D01*
X76633087Y-37030500D01*
X76685865Y-37023551D01*
X76896981Y-36995758D01*
X77154083Y-36926867D01*
X77399994Y-36825008D01*
X77630506Y-36691922D01*
X77841674Y-36529886D01*
X77841678Y-36529881D01*
X77841683Y-36529878D01*
X78029878Y-36341683D01*
X78029881Y-36341678D01*
X78029886Y-36341674D01*
X78191922Y-36130506D01*
X78325008Y-35899994D01*
X78426867Y-35654083D01*
X78495758Y-35396981D01*
X78530500Y-35133086D01*
X78530500Y-14866914D01*
X78495758Y-14603019D01*
X78426867Y-14345917D01*
X78395961Y-14271302D01*
X78325013Y-14100017D01*
X78325010Y-14100011D01*
X78325008Y-14100006D01*
X78191922Y-13869494D01*
X78175414Y-13847981D01*
X78044817Y-13677784D01*
X78029886Y-13658326D01*
X78029885Y-13658325D01*
X78029878Y-13658317D01*
X77841683Y-13470122D01*
X77841674Y-13470114D01*
X77630516Y-13308085D01*
X77630510Y-13308081D01*
X77630506Y-13308078D01*
X77399994Y-13174992D01*
X77399982Y-13174986D01*
X77154090Y-13073135D01*
X77153545Y-13072989D01*
X76896981Y-13004242D01*
X76896980Y-13004241D01*
X76896977Y-13004241D01*
X76633087Y-12969500D01*
X76633086Y-12969500D01*
X74406914Y-12969500D01*
X74406913Y-12969500D01*
X74143022Y-13004241D01*
X73885909Y-13073135D01*
X73640017Y-13174986D01*
X73640003Y-13174993D01*
X73409500Y-13308074D01*
X73409483Y-13308085D01*
X73198325Y-13470114D01*
X73010114Y-13658325D01*
X72848085Y-13869483D01*
X72848074Y-13869500D01*
X72714993Y-14100003D01*
X72714986Y-14100017D01*
X72613135Y-14345909D01*
X72613133Y-14345917D01*
X72592209Y-14424008D01*
X72589775Y-14433091D01*
X72553410Y-14492751D01*
X72490563Y-14523280D01*
X72421187Y-14514985D01*
X72367309Y-14470500D01*
X72350225Y-14433091D01*
X72326867Y-14345917D01*
X72295961Y-14271302D01*
X72225013Y-14100017D01*
X72225010Y-14100011D01*
X72225008Y-14100006D01*
X72091922Y-13869494D01*
X72075414Y-13847981D01*
X71944817Y-13677784D01*
X71929886Y-13658326D01*
X71929885Y-13658325D01*
X71929878Y-13658317D01*
X71741683Y-13470122D01*
X71741674Y-13470114D01*
X71530516Y-13308085D01*
X71530510Y-13308081D01*
X71530506Y-13308078D01*
X71299994Y-13174992D01*
X71299982Y-13174986D01*
X71054090Y-13073135D01*
X71053545Y-13072989D01*
X70796981Y-13004242D01*
X70796980Y-13004241D01*
X70796977Y-13004241D01*
X70533087Y-12969500D01*
X70533086Y-12969500D01*
X70266914Y-12969500D01*
X70266913Y-12969500D01*
X70003022Y-13004241D01*
X69745909Y-13073135D01*
X69500017Y-13174986D01*
X69500003Y-13174993D01*
X69269500Y-13308074D01*
X69269483Y-13308085D01*
X69058325Y-13470114D01*
X69002181Y-13526258D01*
X68940858Y-13559743D01*
X68871166Y-13554759D01*
X68815233Y-13512887D01*
X68790816Y-13447423D01*
X68790500Y-13438577D01*
X68790500Y-12623181D01*
X68810185Y-12556142D01*
X68839013Y-12524805D01*
X68861851Y-12507282D01*
X68943172Y-12425961D01*
X69047274Y-12321860D01*
X69047277Y-12321855D01*
X69047282Y-12321851D01*
X69206924Y-12113803D01*
X69338043Y-11886697D01*
X69438398Y-11644419D01*
X69506270Y-11391116D01*
X69540500Y-11131120D01*
X69540500Y-10868880D01*
X69506270Y-10608884D01*
X69438398Y-10355581D01*
X69438015Y-10354656D01*
X69338046Y-10113309D01*
X69338041Y-10113299D01*
X69206924Y-9886196D01*
X69047281Y-9678148D01*
X69047274Y-9678140D01*
X68861860Y-9492726D01*
X68861851Y-9492718D01*
X68653803Y-9333075D01*
X68426700Y-9201958D01*
X68426690Y-9201953D01*
X68184428Y-9101605D01*
X68184421Y-9101603D01*
X68184419Y-9101602D01*
X67931116Y-9033730D01*
X67873339Y-9026123D01*
X67671127Y-8999500D01*
X67671120Y-8999500D01*
X61868880Y-8999500D01*
X61868872Y-8999500D01*
X61637772Y-9029926D01*
X61608884Y-9033730D01*
X61355581Y-9101602D01*
X61355571Y-9101605D01*
X61113309Y-9201953D01*
X61113299Y-9201958D01*
X60886196Y-9333075D01*
X60678148Y-9492718D01*
X60678140Y-9492725D01*
X60492719Y-9678147D01*
X60492718Y-9678148D01*
X60467580Y-9710907D01*
X60411150Y-9752107D01*
X60388606Y-9757889D01*
X60247176Y-9780290D01*
X60059972Y-9841117D01*
X59884594Y-9930476D01*
X59793741Y-9996485D01*
X59725354Y-10046172D01*
X59725352Y-10046174D01*
X59725351Y-10046174D01*
X59586173Y-10185352D01*
X59474818Y-10338618D01*
X59419487Y-10381283D01*
X59349874Y-10387262D01*
X59288079Y-10354656D01*
X59253722Y-10293817D01*
X59250500Y-10265732D01*
X59250500Y-3823181D01*
X59270185Y-3756142D01*
X59299013Y-3724805D01*
X59321851Y-3707282D01*
X59411301Y-3617832D01*
X59507274Y-3521860D01*
X59507277Y-3521855D01*
X59507282Y-3521851D01*
X59666924Y-3313803D01*
X59798043Y-3086697D01*
X59898398Y-2844419D01*
X59966270Y-2591116D01*
X60000500Y-2331120D01*
X60000500Y-2068880D01*
X59966270Y-1808884D01*
X59898398Y-1555581D01*
X59898394Y-1555571D01*
X59798046Y-1313309D01*
X59798041Y-1313299D01*
X59666924Y-1086196D01*
X59507281Y-878148D01*
X59507274Y-878140D01*
X59341315Y-712181D01*
X59307830Y-650858D01*
X59312814Y-581166D01*
X59354686Y-525233D01*
X59420150Y-500816D01*
X59428996Y-500500D01*
X79375500Y-500500D01*
X79442539Y-520185D01*
G37*
%TD.AperFunction*%
%TA.AperFunction,Conductor*%
G36*
X66232539Y-13020185D02*
G01*
X66278294Y-13072989D01*
X66289500Y-13124500D01*
X66289500Y-15098422D01*
X66320290Y-15292826D01*
X66381117Y-15480029D01*
X66465349Y-15645343D01*
X66470476Y-15655405D01*
X66586172Y-15814646D01*
X66725354Y-15953828D01*
X66884595Y-16069524D01*
X66917053Y-16086062D01*
X67059970Y-16158882D01*
X67059972Y-16158882D01*
X67059975Y-16158884D01*
X67134710Y-16183167D01*
X67247173Y-16219709D01*
X67441578Y-16250500D01*
X67441583Y-16250500D01*
X67638422Y-16250500D01*
X67832826Y-16219709D01*
X67912574Y-16193797D01*
X68020025Y-16158884D01*
X68189208Y-16072681D01*
X68257874Y-16059786D01*
X68322615Y-16086062D01*
X68362872Y-16143168D01*
X68369500Y-16183167D01*
X68369500Y-24633086D01*
X68402257Y-24881908D01*
X68404242Y-24896981D01*
X68463490Y-25118097D01*
X68473135Y-25154090D01*
X68574986Y-25399982D01*
X68574993Y-25399996D01*
X68676604Y-25575992D01*
X68708078Y-25630506D01*
X68708081Y-25630510D01*
X68708085Y-25630516D01*
X68870114Y-25841674D01*
X68870122Y-25841683D01*
X69058317Y-26029878D01*
X69058325Y-26029885D01*
X69058326Y-26029886D01*
X69109425Y-26069096D01*
X69269483Y-26191914D01*
X69269486Y-26191916D01*
X69269494Y-26191922D01*
X69500006Y-26325008D01*
X69500011Y-26325010D01*
X69500017Y-26325013D01*
X69745909Y-26426864D01*
X69745911Y-26426864D01*
X69745917Y-26426867D01*
X70003019Y-26495758D01*
X70175141Y-26518418D01*
X70266913Y-26530500D01*
X70266914Y-26530500D01*
X70533087Y-26530500D01*
X70585865Y-26523551D01*
X70796981Y-26495758D01*
X71054083Y-26426867D01*
X71299994Y-26325008D01*
X71530506Y-26191922D01*
X71741674Y-26029886D01*
X71741678Y-26029881D01*
X71741683Y-26029878D01*
X71929878Y-25841683D01*
X71929881Y-25841678D01*
X71929886Y-25841674D01*
X72091922Y-25630506D01*
X72225008Y-25399994D01*
X72236297Y-25372741D01*
X72326864Y-25154090D01*
X72326863Y-25154090D01*
X72326867Y-25154083D01*
X72395758Y-24896981D01*
X72430500Y-24633086D01*
X72430500Y-23167770D01*
X72450185Y-23100731D01*
X72502989Y-23054976D01*
X72572147Y-23045032D01*
X72632187Y-23071123D01*
X72750975Y-23166607D01*
X72750977Y-23166609D01*
X72921476Y-23251168D01*
X73106175Y-23297102D01*
X73148903Y-23300000D01*
X73350000Y-23300000D01*
X73350000Y-20700000D01*
X73148903Y-20700000D01*
X73106175Y-20702897D01*
X72921476Y-20748831D01*
X72750979Y-20833389D01*
X72632187Y-20928877D01*
X72567603Y-20955535D01*
X72498859Y-20943044D01*
X72447780Y-20895371D01*
X72430500Y-20832229D01*
X72430500Y-15836559D01*
X72450185Y-15769520D01*
X72502989Y-15723765D01*
X72572147Y-15713821D01*
X72635703Y-15742846D01*
X72669061Y-15789107D01*
X72714986Y-15899982D01*
X72714992Y-15899994D01*
X72848078Y-16130506D01*
X72848081Y-16130510D01*
X72848085Y-16130516D01*
X73010114Y-16341674D01*
X73010122Y-16341683D01*
X73198317Y-16529878D01*
X73198325Y-16529885D01*
X73409483Y-16691914D01*
X73409486Y-16691916D01*
X73409494Y-16691922D01*
X73640006Y-16825008D01*
X73640011Y-16825010D01*
X73640017Y-16825013D01*
X73885909Y-16926864D01*
X73885911Y-16926864D01*
X73885917Y-16926867D01*
X74143019Y-16995758D01*
X74361686Y-17024545D01*
X74425581Y-17052811D01*
X74464053Y-17111135D01*
X74469500Y-17147484D01*
X74469500Y-20643636D01*
X74449815Y-20710675D01*
X74397011Y-20756430D01*
X74327853Y-20766374D01*
X74290408Y-20754726D01*
X74278520Y-20748830D01*
X74093824Y-20702897D01*
X74051097Y-20700000D01*
X73850000Y-20700000D01*
X73850000Y-23300000D01*
X74051097Y-23300000D01*
X74093824Y-23297102D01*
X74278520Y-23251169D01*
X74290403Y-23245276D01*
X74359208Y-23233123D01*
X74423660Y-23260098D01*
X74463297Y-23317636D01*
X74469500Y-23356363D01*
X74469500Y-32845500D01*
X74449815Y-32912539D01*
X74397011Y-32958294D01*
X74345500Y-32969500D01*
X64614500Y-32969500D01*
X64547461Y-32949815D01*
X64501706Y-32897011D01*
X64490500Y-32845500D01*
X64490500Y-30126144D01*
X64491347Y-30111673D01*
X64516029Y-29901617D01*
X66290000Y-29901617D01*
X66290000Y-30098382D01*
X66320778Y-30292705D01*
X66381581Y-30479835D01*
X66470905Y-30655145D01*
X66496319Y-30690125D01*
X66496320Y-30690125D01*
X67140000Y-30046445D01*
X67140000Y-30052661D01*
X67167259Y-30154394D01*
X67219920Y-30245606D01*
X67294394Y-30320080D01*
X67385606Y-30372741D01*
X67487339Y-30400000D01*
X67493553Y-30400000D01*
X66849873Y-31043677D01*
X66849873Y-31043678D01*
X66884858Y-31069096D01*
X67060164Y-31158418D01*
X67247294Y-31219221D01*
X67441618Y-31250000D01*
X67638382Y-31250000D01*
X67832705Y-31219221D01*
X68019835Y-31158418D01*
X68195143Y-31069095D01*
X68230125Y-31043678D01*
X68230126Y-31043678D01*
X67586448Y-30400000D01*
X67592661Y-30400000D01*
X67694394Y-30372741D01*
X67785606Y-30320080D01*
X67860080Y-30245606D01*
X67912741Y-30154394D01*
X67940000Y-30052661D01*
X67940000Y-30046447D01*
X68583678Y-30690126D01*
X68583678Y-30690125D01*
X68609095Y-30655143D01*
X68698418Y-30479835D01*
X68759221Y-30292705D01*
X68790000Y-30098382D01*
X68790000Y-29901617D01*
X68759221Y-29707294D01*
X68698418Y-29520164D01*
X68609096Y-29344858D01*
X68583678Y-29309873D01*
X68583677Y-29309873D01*
X67940000Y-29953551D01*
X67940000Y-29947339D01*
X67912741Y-29845606D01*
X67860080Y-29754394D01*
X67785606Y-29679920D01*
X67694394Y-29627259D01*
X67592661Y-29600000D01*
X67586447Y-29600000D01*
X68230125Y-28956320D01*
X68230125Y-28956319D01*
X68195145Y-28930905D01*
X68019835Y-28841581D01*
X67832705Y-28780778D01*
X67638382Y-28750000D01*
X67441618Y-28750000D01*
X67247294Y-28780778D01*
X67060161Y-28841582D01*
X66884863Y-28930899D01*
X66884859Y-28930902D01*
X66849873Y-28956320D01*
X66849872Y-28956320D01*
X67493554Y-29600000D01*
X67487339Y-29600000D01*
X67385606Y-29627259D01*
X67294394Y-29679920D01*
X67219920Y-29754394D01*
X67167259Y-29845606D01*
X67140000Y-29947339D01*
X67140000Y-29953552D01*
X66496320Y-29309872D01*
X66496320Y-29309873D01*
X66470902Y-29344859D01*
X66470899Y-29344863D01*
X66381582Y-29520161D01*
X66320778Y-29707294D01*
X66290000Y-29901617D01*
X64516029Y-29901617D01*
X64518301Y-29882280D01*
X64518301Y-29882279D01*
X64623249Y-28989109D01*
X64992078Y-25850134D01*
X65322756Y-23035843D01*
X65350130Y-22971560D01*
X65407912Y-22932280D01*
X65477759Y-22930475D01*
X65537493Y-22966718D01*
X65542556Y-22972628D01*
X65602632Y-23047366D01*
X65602633Y-23047367D01*
X65750974Y-23166607D01*
X65750977Y-23166609D01*
X65921476Y-23251168D01*
X66106175Y-23297102D01*
X66148903Y-23300000D01*
X66350000Y-23300000D01*
X66850000Y-23300000D01*
X67051097Y-23300000D01*
X67093824Y-23297102D01*
X67278523Y-23251168D01*
X67449022Y-23166609D01*
X67449025Y-23166607D01*
X67597366Y-23047367D01*
X67597367Y-23047366D01*
X67716607Y-22899025D01*
X67716609Y-22899022D01*
X67801168Y-22728523D01*
X67847102Y-22543824D01*
X67850000Y-22501096D01*
X67850000Y-22250000D01*
X66850000Y-22250000D01*
X66850000Y-23300000D01*
X66350000Y-23300000D01*
X66350000Y-21750000D01*
X66850000Y-21750000D01*
X67850000Y-21750000D01*
X67850000Y-21498903D01*
X67847102Y-21456175D01*
X67801168Y-21271476D01*
X67716609Y-21100977D01*
X67716607Y-21100974D01*
X67597367Y-20952633D01*
X67597366Y-20952632D01*
X67449025Y-20833392D01*
X67449022Y-20833390D01*
X67278523Y-20748831D01*
X67093824Y-20702897D01*
X67051097Y-20700000D01*
X66850000Y-20700000D01*
X66850000Y-21750000D01*
X66350000Y-21750000D01*
X66350000Y-20700000D01*
X66148903Y-20700000D01*
X66106175Y-20702897D01*
X65921476Y-20748831D01*
X65750977Y-20833390D01*
X65750974Y-20833392D01*
X65602633Y-20952632D01*
X65602632Y-20952633D01*
X65483392Y-21100974D01*
X65463374Y-21141338D01*
X65415953Y-21192651D01*
X65348317Y-21210179D01*
X65281942Y-21188359D01*
X65238398Y-21135289D01*
X65212289Y-21074660D01*
X65076003Y-20846026D01*
X65024091Y-20780291D01*
X64911043Y-20637139D01*
X64911036Y-20637132D01*
X64720232Y-20451572D01*
X64720219Y-20451561D01*
X64506826Y-20292493D01*
X64506816Y-20292487D01*
X64480538Y-20277800D01*
X64431622Y-20227910D01*
X64418139Y-20186065D01*
X63808385Y-15645343D01*
X63711602Y-14924620D01*
X63710499Y-14908117D01*
X63710499Y-14202129D01*
X63710498Y-14202123D01*
X63710096Y-14198386D01*
X63704091Y-14142517D01*
X63688235Y-14100006D01*
X63653797Y-14007671D01*
X63653793Y-14007664D01*
X63567547Y-13892455D01*
X63567544Y-13892452D01*
X63452335Y-13806206D01*
X63452328Y-13806202D01*
X63317482Y-13755908D01*
X63317483Y-13755908D01*
X63257883Y-13749501D01*
X63257881Y-13749500D01*
X63257873Y-13749500D01*
X63257865Y-13749500D01*
X62474793Y-13749500D01*
X62391111Y-13747526D01*
X62376406Y-13749500D01*
X61914500Y-13749500D01*
X61847461Y-13729815D01*
X61801706Y-13677011D01*
X61790500Y-13625500D01*
X61790500Y-13124500D01*
X61810185Y-13057461D01*
X61862989Y-13011706D01*
X61914500Y-13000500D01*
X66165500Y-13000500D01*
X66232539Y-13020185D01*
G37*
%TD.AperFunction*%
%TA.AperFunction,Conductor*%
G36*
X61158970Y-23169440D02*
G01*
X61199229Y-23226545D01*
X61205011Y-23281018D01*
X61152404Y-23728730D01*
X61125030Y-23793014D01*
X61067248Y-23832294D01*
X60997401Y-23834099D01*
X60990933Y-23832190D01*
X60832705Y-23780778D01*
X60638382Y-23750000D01*
X60441618Y-23750000D01*
X60247294Y-23780778D01*
X60060161Y-23841582D01*
X59884863Y-23930899D01*
X59884859Y-23930902D01*
X59849873Y-23956320D01*
X59849872Y-23956320D01*
X60493553Y-24600000D01*
X60487339Y-24600000D01*
X60385606Y-24627259D01*
X60294394Y-24679920D01*
X60219920Y-24754394D01*
X60167259Y-24845606D01*
X60140000Y-24947339D01*
X60140000Y-24953552D01*
X59496320Y-24309872D01*
X59496319Y-24309873D01*
X59474820Y-24339466D01*
X59419491Y-24382133D01*
X59349877Y-24388114D01*
X59288082Y-24355509D01*
X59253723Y-24294671D01*
X59250500Y-24266583D01*
X59250500Y-23374500D01*
X59270185Y-23307461D01*
X59322989Y-23261706D01*
X59374500Y-23250500D01*
X60638422Y-23250500D01*
X60832826Y-23219709D01*
X61020025Y-23158884D01*
X61025560Y-23156064D01*
X61094228Y-23143166D01*
X61158970Y-23169440D01*
G37*
%TD.AperFunction*%
%TD*%
M02*
